<svg width="176" height="142" viewBox="0 0 176 142" version="1.1" xmlns="http://www.w3.org/2000/svg" xmlns:xlink="http://www.w3.org/1999/xlink">
<title>contractor-hire</title>
<desc>Created using Figma</desc>
<g id="Canvas" transform="matrix(2 0 0 2 3536 326)">
<g id="contractor-hire">
<g id="Group">
<g id="Vector">
<use xlink:href="#path0_fill" transform="translate(-1767.47 -163)" fill="#496274"/>
</g>
</g>
</g>
</g>
<defs>
<path id="path0_fill" d="M 43.4678 -3.7384e-07C 34.6678 -3.7384e-07 26.5958 3.326 20.4588 8.766C 19.5058 9.583 19.3938 11.218 20.2348 12.148C 21.0478 13.106 22.6728 13.191 23.5978 12.345C 28.8948 7.638 35.8448 4.791 43.4678 4.791C 60.0588 4.791 73.4827 18.293 73.4827 35.008C 73.4827 37.067 73.0347 39.715 72.5867 41.576L 65.2708 34.219C 64.7668 33.712 64.0387 33.429 63.3097 33.486C 62.4127 33.599 61.5997 34.247 61.3197 35.092C 61.0107 35.938 61.2638 36.98 61.9088 37.601L 72.4177 48.171C 73.2867 49.044 74.8847 49.044 75.7807 48.171L 86.2907 37.601C 87.1597 36.726 87.1597 35.092 86.2907 34.218C 85.3947 33.344 83.7967 33.344 82.9277 34.218L 77.9398 39.206C 78.1358 37.825 78.2197 36.388 78.2197 35.007C 78.2187 15.7 62.6368 -3.7384e-07 43.4678 -3.7384e-07ZM 43.4678 15.051C 37.8068 15.051 33.1817 19.759 33.1817 25.48C 33.1817 27.65 33.9107 29.68 35.0597 31.371C 29.2587 34.444 25.2788 40.589 25.2788 47.663C 25.2788 48.903 26.4277 50.059 27.6607 50.059L 43.4678 50.059L 59.3018 50.059C 60.5338 50.059 61.6557 48.903 61.6557 47.663C 61.6557 40.589 57.6767 34.443 51.8467 31.371C 53.0237 29.68 53.7528 27.679 53.7528 25.48C 53.7528 19.759 49.1278 15.051 43.4678 15.051ZM 43.4678 19.815C 46.5508 19.815 49.0168 22.324 49.0168 25.481C 49.0168 27.482 47.9797 29.202 46.4657 30.216C 45.7087 30.724 45.2607 31.682 45.4017 32.584C 45.5417 33.486 46.2417 34.275 47.1107 34.529C 51.9877 35.91 55.6027 40.11 56.5277 45.268L 43.4678 45.268L 30.4348 45.268C 31.3318 40.11 34.9187 35.91 39.8237 34.529C 40.6927 34.275 41.3927 33.486 41.5327 32.584C 41.6727 31.682 41.2528 30.724 40.4958 30.216C 38.9538 29.201 37.9457 27.482 37.9457 25.481C 37.9467 22.324 40.4128 19.815 43.4678 19.815ZM 12.8068 21.168C 12.1908 21.168 11.6018 21.421 11.1818 21.873L 0.67275 32.443C -0.22425 33.345 -0.22425 34.952 0.67275 35.826C 1.54175 36.727 3.13875 36.727 4.03575 35.826L 8.99575 30.808C 8.82775 32.189 8.71575 33.626 8.71575 35.008C 8.71575 54.317 24.2987 70.016 43.4678 70.016C 52.2678 70.016 60.3397 66.719 66.4487 61.28C 67.4017 60.434 67.5128 58.827 66.7008 57.868C 65.8598 56.938 64.2347 56.854 63.3097 57.7C 58.0127 62.407 51.0898 65.253 43.4678 65.253C 26.8768 65.253 13.4808 51.753 13.4808 35.009C 13.4808 32.951 13.9007 30.302 14.3497 28.442L 21.6638 35.827C 22.5328 36.728 24.1298 36.728 24.9988 35.827C 25.8948 34.953 25.8948 33.346 24.9988 32.444L 14.5167 21.874C 14.0687 21.422 13.4238 21.168 12.8068 21.168Z"/>
</defs>
</svg>
