<svg width="102" height="100" viewBox="0 0 102 100" version="1.1" xmlns="http://www.w3.org/2000/svg" xmlns:xlink="http://www.w3.org/1999/xlink">
<title>1099-fixed</title>
<desc>Created using Figma</desc>
<g id="Canvas" transform="matrix(2 0 0 2 -1730 -666)">
<g id="1099-fixed">
<g id="Vector">
<use xlink:href="#path0_fill" transform="translate(872.031 343.107)" fill="#496274"/>
</g>
<g id="Vector">
<use xlink:href="#path1_fill" transform="translate(865 333)" fill="#496274"/>
</g>
<g id="Vector">
<use xlink:href="#path2_fill" transform="translate(879.387 345.852)" fill="#496274"/>
</g>
</g>
</g>
<defs>
<path id="path0_fill" d="M 39.2625 0.41921C 38.937 -0.029474 38.3024 -0.1345 37.8441 0.184564C 37.3871 0.503628 37.28 1.12647 37.6054 1.57449L 37.6047 1.57449C 40.331 5.33479 41.9345 9.92599 41.9345 14.8928C 41.9345 21.2494 39.3099 26.9946 35.0615 31.161C 30.8124 35.3261 24.9517 37.8986 18.4685 37.8993C 12.6383 37.8986 7.31526 35.8127 3.2099 32.3648L 7.28678 31.5379C 7.83732 31.4269 8.19057 30.8991 8.07666 30.36C 7.96276 29.8203 7.42509 29.474 6.87523 29.5857L 0.118845 30.9563L 0.000192359 37.7191C -0.0106558 38.2702 0.438188 38.7242 1.00026 38.7335C 1.56165 38.7428 2.02406 38.3041 2.03423 37.7537L 2.09932 34.0532C 6.52741 37.6939 12.239 39.8941 18.4685 39.8934C 32.5522 39.8928 43.9685 28.7009 43.9685 14.8928C 43.9685 9.50323 42.2247 4.5019 39.2625 0.41921Z"/>
<path id="path1_fill" d="M 2.03403 24.9993C 2.03403 18.6433 4.65862 12.8982 8.90703 8.73172C 13.1561 4.56727 19.0162 1.99482 25.5 1.99415C 31.2211 1.99482 36.4533 4.00093 40.5268 7.33382L 36.738 8.10223C 36.1882 8.21391 35.8349 8.74169 35.9488 9.28078C 36.0627 9.81986 36.6004 10.1668 37.1509 10.0552L 43.906 8.68453L 44.0239 1.92037C 44.0334 1.36998 43.5859 0.91598 43.0239 0.906674C 42.4618 0.897368 41.9987 1.33608 41.9899 1.88647L 41.9201 5.87477C 37.4852 2.21018 31.7533 -0.000664339 25.5 3.78061e-07C 11.415 0.000665095 4.48892e-07 11.1925 4.48892e-07 24.9993C -0.000677562 30.1542 1.594 34.9528 4.32368 38.9325C 4.63692 39.3898 5.2695 39.5108 5.7353 39.2037C 6.20177 38.8966 6.32517 38.2764 6.01193 37.8197C 3.49854 34.1551 2.03403 29.7501 2.03403 24.9993Z"/>
<path id="path2_fill" d="M 4.13825e-07 22.046C 4.13825e-07 22.3086 0.108482 22.5658 0.297647 22.7513C 0.486812 22.9367 0.749203 23.0431 1.01702 23.0431L 21.3574 23.0431C 21.6252 23.0431 21.8869 22.9367 22.0767 22.7513C 22.2666 22.5658 22.3744 22.3086 22.3744 22.046C 22.373 17.3524 19.3626 13.3608 15.1346 11.7947C 16.7821 10.6042 17.8547 8.69582 17.8547 6.53616C 17.8534 2.92542 14.8701 6.18709e-07 11.1872 6.18709e-07C 7.50423 0.000665336 4.52098 2.92608 4.51962 6.53616C 4.51962 8.69582 5.59224 10.6042 7.23912 11.7947C 3.0124 13.3601 0.00135644 17.3531 4.13825e-07 22.046ZM 7.91103 9.74741C 7.0703 8.92249 6.55366 7.79314 6.55366 6.5355C 6.55366 5.27785 7.0703 4.1485 7.91103 3.32358C 8.75177 2.5 9.90371 1.99349 11.1872 1.99349C 12.47 1.99349 13.6219 2.50066 14.4633 3.32358C 15.3034 4.1485 15.8207 5.27785 15.8207 6.5355C 15.8207 7.79314 15.3034 8.92183 14.4633 9.74741C 13.6219 10.571 12.47 11.0768 11.1872 11.0775C 9.90439 11.0775 8.75245 10.571 7.91103 9.74741ZM 11.1872 13.0723C 13.7175 13.073 15.9997 14.0754 17.6595 15.7006C 19.0914 17.1065 20.0468 18.969 20.2807 21.0489L 2.0937 21.0489C 2.32829 18.969 3.28157 17.1065 4.71421 15.7006C 6.37534 14.0747 8.65685 13.073 11.1872 13.0723Z"/>
</defs>
</svg>
