<svg width="106" height="104" viewBox="0 0 106 104" version="1.1" xmlns="http://www.w3.org/2000/svg" xmlns:xlink="http://www.w3.org/1999/xlink">
<title>noun_652196_cc</title>
<desc>Created using Figma</desc>
<g id="Canvas" transform="matrix(2 0 0 2 -1728 -664)">
<g id="noun_652196_cc">
<g id="Vector">
<use xlink:href="#path0_fill" transform="translate(872.031 343.107)" fill="#496274"/>
<mask id="mask0_outline_out">
<rect id="mask0_outline_inv" fill="white" x="-1" y="-1" width="46" height="42" transform="translate(872.031 343.107)"/>
<use xlink:href="#path0_fill" fill="black" transform="translate(872.031 343.107)"/>
</mask>
<g mask="url(#mask0_outline_out)">
<use xlink:href="#path1_stroke_2x" transform="translate(872.031 343.107)" fill="#496274"/>
</g>
</g>
<g id="Vector">
<use xlink:href="#path2_fill" transform="translate(865 333)" fill="#496274"/>
<mask id="mask1_outline_out">
<rect id="mask1_outline_inv" fill="white" x="-1" y="-1" width="46" height="41" transform="translate(865 333)"/>
<use xlink:href="#path2_fill" fill="black" transform="translate(865 333)"/>
</mask>
<g mask="url(#mask1_outline_out)">
<use xlink:href="#path3_stroke_2x" transform="translate(865 333)" fill="#496274"/>
</g>
</g>
<g id="Vector">
<use xlink:href="#path4_fill" transform="translate(879.387 345.852)" fill="#496274"/>
<mask id="mask2_outline_out">
<rect id="mask2_outline_inv" fill="white" x="-1" y="-1" width="24" height="25" transform="translate(879.387 345.852)"/>
<use xlink:href="#path4_fill" fill="black" transform="translate(879.387 345.852)"/>
</mask>
<g mask="url(#mask2_outline_out)">
<use xlink:href="#path5_stroke_2x" transform="translate(879.387 345.852)" fill="#496274"/>
</g>
</g>
</g>
</g>
<defs>
<path id="path0_fill" d="M 39.2625 0.41921C 38.937 -0.029474 38.3024 -0.1345 37.8441 0.184564C 37.3871 0.503628 37.28 1.12647 37.6054 1.57449L 37.6047 1.57449C 40.331 5.33479 41.9345 9.92599 41.9345 14.8928C 41.9345 21.2494 39.3099 26.9946 35.0615 31.161C 30.8124 35.3261 24.9517 37.8986 18.4685 37.8993C 12.6383 37.8986 7.31526 35.8127 3.2099 32.3648L 7.28678 31.5379C 7.83732 31.4269 8.19057 30.8991 8.07666 30.36C 7.96276 29.8203 7.42509 29.474 6.87523 29.5857L 0.118845 30.9563L 0.000192359 37.7191C -0.0106558 38.2702 0.438188 38.7242 1.00026 38.7335C 1.56165 38.7428 2.02406 38.3041 2.03423 37.7537L 2.09932 34.0532C 6.52741 37.6939 12.239 39.8941 18.4685 39.8934C 32.5522 39.8928 43.9685 28.7009 43.9685 14.8928C 43.9685 9.50323 42.2247 4.5019 39.2625 0.41921Z"/>
<path id="path1_stroke_2x" d="M 39.2625 0.41921L 38.8577 0.712782L 38.8578 0.712842L 39.2625 0.41921ZM 37.8441 0.184564L 37.5584 -0.225795L 37.5578 -0.225398L 37.8441 0.184564ZM 37.6054 1.57449L 37.6054 2.07449L 38.5866 2.07449L 38.0099 1.28063L 37.6054 1.57449ZM 37.6047 1.57449L 37.6047 1.07449L 36.6246 1.07449L 37.1999 1.86798L 37.6047 1.57449ZM 35.0615 31.161L 35.4115 31.5181L 35.4116 31.518L 35.0615 31.161ZM 18.4685 37.8993L 18.4685 38.3993L 18.4686 38.3993L 18.4685 37.8993ZM 3.2099 32.3648L 3.11051 31.8748L 2.09438 32.0809L 2.88834 32.7477L 3.2099 32.3648ZM 7.28678 31.5379L 7.18795 31.0478L 7.18739 31.0479L 7.28678 31.5379ZM 8.07666 30.36L 7.58744 30.4633L 7.58746 30.4634L 8.07666 30.36ZM 6.87523 29.5857L 6.97463 30.0757L 6.97474 30.0756L 6.87523 29.5857ZM 0.118845 30.9563L 0.0194364 30.4663L -0.374035 30.5461L -0.381078 30.9475L 0.118845 30.9563ZM 0.000192359 37.7191L 0.500097 37.729L 0.500115 37.7279L 0.000192359 37.7191ZM 1.00026 38.7335L 1.00855 38.2336L 1.00854 38.2336L 1.00026 38.7335ZM 2.03423 37.7537L 2.53414 37.7629L 2.53415 37.7625L 2.03423 37.7537ZM 2.09932 34.0532L 2.41686 33.667L 1.61759 33.0099L 1.59939 34.0444L 2.09932 34.0532ZM 18.4685 39.8934L 18.4685 39.3934L 18.4685 39.3934L 18.4685 39.8934ZM 39.6672 0.125638C 39.1799 -0.546239 38.2375 -0.698541 37.5584 -0.225795L 38.1297 0.594924C 38.3673 0.429542 38.6942 0.487291 38.8577 0.712782L 39.6672 0.125638ZM 37.5578 -0.225398C 36.8743 0.251873 36.709 1.19117 37.2009 1.86834L 38.0099 1.28063C 37.851 1.06177 37.8999 0.755384 38.1303 0.594526L 37.5578 -0.225398ZM 37.6054 1.07449L 37.6047 1.07449L 37.6047 2.07449L 37.6054 2.07449L 37.6054 1.07449ZM 37.1999 1.86798C 39.8879 5.56642 41.4415 10.0096 41.4345 14.8928L 42.4345 14.8928C 42.4275 9.84238 40.7741 5.10316 38.0095 1.281L 37.1999 1.86798ZM 41.4345 14.8928C 41.4345 21.1082 38.869 26.7266 34.7114 30.8041L 35.4116 31.518C 39.7508 27.2625 42.4345 21.3907 42.4345 14.8928L 41.4345 14.8928ZM 34.7115 30.804C 30.5531 34.8802 24.817 37.3986 18.4685 37.3993L 18.4686 38.3993C 25.0864 38.3986 31.0717 35.7721 35.4115 31.5181L 34.7115 30.804ZM 18.4686 37.3993C 12.7312 37.4073 7.57061 35.3828 3.53146 31.982L 2.88834 32.7477C 7.0599 36.2426 12.5455 38.3899 18.4685 38.3993L 18.4686 37.3993ZM 3.30929 32.8549L 7.38617 32.0279L 7.18739 31.0479L 3.11051 31.8748L 3.30929 32.8549ZM 7.38561 32.0281C 8.20056 31.8637 8.73891 31.0757 8.56586 30.2567L 7.58746 30.4634C 7.64222 30.7226 7.47408 30.9901 7.18795 31.0478L 7.38561 32.0281ZM 8.56589 30.2568C 8.39357 29.4403 7.58662 28.931 6.77571 29.0957L 6.97474 30.0756C 7.26356 30.017 7.53194 30.2003 7.58744 30.4633L 8.56589 30.2568ZM 6.77582 29.0956L 0.0194364 30.4663L 0.218254 31.4463L 6.97463 30.0757L 6.77582 29.0956ZM -0.381078 30.9475L -0.499731 37.7104L 0.500115 37.7279L 0.618768 30.9651L -0.381078 30.9475ZM -0.499711 37.7093C -0.516218 38.5478 0.164069 39.2197 0.991982 39.2334L 1.00854 38.2336C 0.712306 38.2286 0.494906 37.9926 0.500095 37.729L -0.499711 37.7093ZM 0.991972 39.2334C 1.82041 39.2471 2.51872 38.5976 2.53414 37.7629L 1.53431 37.7445C 1.52939 38.0105 1.30289 38.2384 1.00855 38.2336L 0.991972 39.2334ZM 2.53415 37.7625L 2.59924 34.062L 1.59939 34.0444L 1.5343 37.7449L 2.53415 37.7625ZM 1.78177 34.4394C 6.27554 38.1258 12.1476 40.3857 18.4686 40.3934L 18.4685 39.3934C 12.3304 39.4025 6.77927 37.2619 2.41686 33.667L 1.78177 34.4394ZM 18.4686 40.3934C 32.8189 40.3927 44.4685 28.9864 44.4685 14.8928L 43.4685 14.8928C 43.4685 28.4155 32.2854 39.3928 18.4685 39.3934L 18.4686 40.3934ZM 44.4685 14.8928C 44.4615 9.41975 42.6678 4.27031 39.6672 0.125578L 38.8578 0.712842C 41.7816 4.73349 43.4756 9.58671 43.4685 14.8928L 44.4685 14.8928Z"/>
<path id="path2_fill" d="M 2.03403 24.9993C 2.03403 18.6433 4.65862 12.8982 8.90703 8.73172C 13.1561 4.56727 19.0162 1.99482 25.5 1.99415C 31.2211 1.99482 36.4533 4.00093 40.5268 7.33382L 36.738 8.10223C 36.1882 8.21391 35.8349 8.74169 35.9488 9.28078C 36.0627 9.81986 36.6004 10.1668 37.1509 10.0552L 43.906 8.68453L 44.0239 1.92037C 44.0334 1.36998 43.5859 0.91598 43.0239 0.906674C 42.4618 0.897368 41.9987 1.33608 41.9899 1.88647L 41.9201 5.87477C 37.4852 2.21018 31.7533 -0.000664339 25.5 3.78061e-07C 11.415 0.000665095 4.48892e-07 11.1925 4.48892e-07 24.9993C -0.000677562 30.1542 1.594 34.9528 4.32368 38.9325C 4.63692 39.3898 5.2695 39.5108 5.7353 39.2037C 6.20177 38.8966 6.32517 38.2764 6.01193 37.8197C 3.49854 34.1551 2.03403 29.7501 2.03403 24.9993Z"/>
<path id="path3_stroke_2x" d="M 8.90703 8.73172L 8.55705 8.37463L 8.55694 8.37474L 8.90703 8.73172ZM 25.5 1.99415L 25.5001 1.49415L 25.4999 1.49415L 25.5 1.99415ZM 40.5268 7.33382L 40.6261 7.82384L 41.6592 7.61433L 40.8434 6.94684L 40.5268 7.33382ZM 36.738 8.10223L 36.6386 7.61221L 36.6385 7.61224L 36.738 8.10223ZM 37.1509 10.0552L 37.2503 10.5452L 37.2504 10.5452L 37.1509 10.0552ZM 43.906 8.68453L 44.0054 9.17454L 44.3989 9.0947L 44.4059 8.69324L 43.906 8.68453ZM 44.0239 1.92037L 44.5239 1.92909L 44.5239 1.92899L 44.0239 1.92037ZM 41.9899 1.88647L 42.4898 1.89522L 42.4898 1.89447L 41.9899 1.88647ZM 41.9201 5.87477L 41.6016 6.26021L 42.4018 6.92146L 42.42 5.88352L 41.9201 5.87477ZM 25.5 3.78061e-07L 25.5 0.5L 25.5001 0.5L 25.5 3.78061e-07ZM 4.48892e-07 24.9993L 0.5 24.9994L 0.5 24.9993L 4.48892e-07 24.9993ZM 4.32368 38.9325L 4.73619 38.6499L 4.73601 38.6496L 4.32368 38.9325ZM 5.7353 39.2037L 5.46036 38.786L 5.46008 38.7862L 5.7353 39.2037ZM 6.01193 37.8197L 5.59959 38.1025L 5.5996 38.1026L 6.01193 37.8197ZM 2.53403 24.9993C 2.53403 18.7846 5.0995 13.1661 9.25713 9.0887L 8.55694 8.37474C 4.21774 12.6302 1.53403 18.502 1.53403 24.9993L 2.53403 24.9993ZM 9.25701 9.08881C 13.4154 5.01324 19.1509 2.4948 25.5001 2.49415L 25.4999 1.49415C 18.8815 1.49483 12.8968 4.1213 8.55705 8.37463L 9.25701 9.08881ZM 25.4999 2.49415C 31.13 2.48646 36.2023 4.43336 40.2101 7.7208L 40.8434 6.94684C 36.7043 3.5685 31.3121 1.50318 25.5001 1.49415L 25.4999 2.49415ZM 40.4274 6.8438L 36.6386 7.61221L 36.8374 8.59226L 40.6261 7.82384L 40.4274 6.8438ZM 36.6385 7.61224C 35.8248 7.77749 35.2866 8.56518 35.4596 9.38414L 36.438 9.17741C 36.3833 8.9182 36.5515 8.65032 36.8375 8.59223L 36.6385 7.61224ZM 35.4596 9.38414C 35.632 10.1998 36.4387 10.7098 37.2503 10.5452L 37.0515 9.56515C 36.7621 9.62387 36.4935 9.43993 36.438 9.17741L 35.4596 9.38414ZM 37.2504 10.5452L 44.0054 9.17454L 43.8065 8.19451L 37.0515 9.56516L 37.2504 10.5452ZM 44.4059 8.69324L 44.5239 1.92909L 43.524 1.91165L 43.406 8.67581L 44.4059 8.69324ZM 44.5239 1.92899C 44.5383 1.09299 43.861 0.420465 43.0322 0.406742L 43.0156 1.40661C 43.3109 1.41149 43.5286 1.64697 43.524 1.91175L 44.5239 1.92899ZM 43.0322 0.406742C 42.204 0.39303 41.5034 1.04187 41.49 1.87846L 42.4898 1.89447C 42.4941 1.63029 42.7196 1.40171 43.0156 1.40661L 43.0322 0.406742ZM 41.49 1.87771L 41.4202 5.86601L 42.42 5.88352L 42.4898 1.89522L 41.49 1.87771ZM 42.2386 5.48933C 37.7377 1.77862 31.8448 -0.492223 25.4999 -0.5L 25.5001 0.5C 31.6618 0.490895 37.2327 2.64175 41.6016 6.26021L 42.2386 5.48933ZM 25.5 -0.5C 11.1482 -0.499322 -0.5 10.9071 -0.5 24.9993L 0.5 24.9993C 0.5 11.4779 11.6818 0.500653 25.5 0.5L 25.5 -0.5ZM -0.5 24.9993C -0.494263 30.234 1.14621 35.1752 3.91135 39.2153L 4.73601 38.6496C 2.0418 34.7304 0.492908 30.0744 0.5 24.9994L -0.5 24.9993ZM 3.91116 39.215C 4.38069 39.9005 5.32028 40.0762 6.01052 39.6211L 5.46008 38.7862C 5.21872 38.9454 4.89315 38.8791 4.73619 38.6499L 3.91116 39.215ZM 6.01024 39.6213C 6.7078 39.1621 6.89759 38.227 6.42425 37.5369L 5.5996 38.1026C 5.75275 38.3258 5.69574 38.6311 5.46036 38.786L 6.01024 39.6213ZM 6.42426 37.5369C 3.94633 33.9327 2.52761 29.6702 2.53403 24.9993L 1.53403 24.9993C 1.54046 29.83 3.05075 34.3776 5.59959 38.1025L 6.42426 37.5369Z"/>
<path id="path4_fill" d="M 4.13825e-07 22.046C 4.13825e-07 22.3086 0.108482 22.5658 0.297647 22.7513C 0.486812 22.9367 0.749203 23.0431 1.01702 23.0431L 21.3574 23.0431C 21.6252 23.0431 21.8869 22.9367 22.0767 22.7513C 22.2666 22.5658 22.3744 22.3086 22.3744 22.046C 22.373 17.3524 19.3626 13.3608 15.1346 11.7947C 16.7821 10.6042 17.8547 8.69582 17.8547 6.53616C 17.8534 2.92542 14.8701 6.18709e-07 11.1872 6.18709e-07C 7.50423 0.000665336 4.52098 2.92608 4.51962 6.53616C 4.51962 8.69582 5.59224 10.6042 7.23912 11.7947C 3.0124 13.3601 0.00135644 17.3531 4.13825e-07 22.046ZM 7.91103 9.74741C 7.0703 8.92249 6.55366 7.79314 6.55366 6.5355C 6.55366 5.27785 7.0703 4.1485 7.91103 3.32358C 8.75177 2.5 9.90371 1.99349 11.1872 1.99349C 12.47 1.99349 13.6219 2.50066 14.4633 3.32358C 15.3034 4.1485 15.8207 5.27785 15.8207 6.5355C 15.8207 7.79314 15.3034 8.92183 14.4633 9.74741C 13.6219 10.571 12.47 11.0768 11.1872 11.0775C 9.90439 11.0775 8.75245 10.571 7.91103 9.74741ZM 11.1872 13.0723C 13.7175 13.073 15.9997 14.0754 17.6595 15.7006C 19.0914 17.1065 20.0468 18.969 20.2807 21.0489L 2.0937 21.0489C 2.32829 18.969 3.28157 17.1065 4.71421 15.7006C 6.37534 14.0747 8.65685 13.073 11.1872 13.0723Z"/>
<path id="path5_stroke_2x" d="M 4.13825e-07 22.046L -0.5 22.0459L -0.5 22.046L 4.13825e-07 22.046ZM 22.3744 22.046L 22.8744 22.046L 22.8744 22.0459L 22.3744 22.046ZM 15.1346 11.7947L 14.8417 11.3895L 14.0823 11.9382L 14.9609 12.2636L 15.1346 11.7947ZM 17.8547 6.53616L 18.3547 6.53616L 18.3547 6.53597L 17.8547 6.53616ZM 11.1872 6.18709e-07L 11.1872 -0.499999L 11.1871 -0.499999L 11.1872 6.18709e-07ZM 4.51962 6.53616L 4.01962 6.53597L 4.01962 6.53616L 4.51962 6.53616ZM 7.23912 11.7947L 7.41278 12.2636L 8.29118 11.9383L 7.53205 11.3895L 7.23912 11.7947ZM 7.91103 9.74741L 7.56085 10.1043L 7.56129 10.1047L 7.91103 9.74741ZM 7.91103 3.32358L 7.56114 2.96641L 7.56085 2.96669L 7.91103 3.32358ZM 14.4633 3.32358L 14.8137 2.96683L 14.8129 2.96612L 14.4633 3.32358ZM 14.4633 9.74741L 14.8131 10.1047L 14.8138 10.104L 14.4633 9.74741ZM 11.1872 11.0775L 11.1872 11.5775L 11.1874 11.5775L 11.1872 11.0775ZM 11.1872 13.0723L 11.1873 12.5723L 11.1871 12.5723L 11.1872 13.0723ZM 17.6595 15.7006L 18.0098 15.3438L 18.0093 15.3434L 17.6595 15.7006ZM 20.2807 21.0489L 20.2807 21.5489L 20.8401 21.5489L 20.7775 20.993L 20.2807 21.0489ZM 2.0937 21.0489L 1.59685 20.9929L 1.53413 21.5489L 2.0937 21.5489L 2.0937 21.0489ZM 4.71421 15.7006L 4.36447 15.3433L 4.36401 15.3437L 4.71421 15.7006ZM -0.5 22.046C -0.5 22.4441 -0.336627 22.8296 -0.0523889 23.1083L 0.647682 22.3942C 0.55359 22.302 0.5 22.1731 0.5 22.046L -0.5 22.046ZM -0.0523889 23.1083C 0.231501 23.3866 0.620081 23.5431 1.01702 23.5431L 1.01702 22.5431C 0.878325 22.5431 0.742122 22.4868 0.647682 22.3942L -0.0523889 23.1083ZM 1.01702 23.5431L 21.3574 23.5431L 21.3574 22.5431L 1.01702 22.5431L 1.01702 23.5431ZM 21.3574 23.5431C 21.7548 23.5431 22.1422 23.3863 22.4261 23.1089L 21.7273 22.3936C 21.6316 22.4871 21.4955 22.5431 21.3574 22.5431L 21.3574 23.5431ZM 22.4261 23.1089C 22.7122 22.8295 22.8744 22.4433 22.8744 22.046L 21.8744 22.046C 21.8744 22.1738 21.8209 22.3021 21.7273 22.3936L 22.4261 23.1089ZM 22.8744 22.0459C 22.8729 17.1306 19.7204 12.9601 15.3082 11.3259L 14.9609 12.2636C 19.0049 13.7615 21.8731 17.5742 21.8744 22.0461L 22.8744 22.0459ZM 15.4274 12.2C 17.1963 10.9218 18.3547 8.86682 18.3547 6.53616L 17.3547 6.53616C 17.3547 8.52483 16.3679 10.2866 14.8417 11.3895L 15.4274 12.2ZM 18.3547 6.53597C 18.3533 2.64005 15.137 -0.499999 11.1872 -0.499999L 11.1872 0.500001C 14.6033 0.500001 17.3535 3.21079 17.3547 6.53635L 18.3547 6.53597ZM 11.1871 -0.499999C 7.23739 -0.499287 4.02109 2.64067 4.01962 6.53597L 5.01962 6.53635C 5.02087 3.2115 7.77107 0.500617 11.1873 0.500001L 11.1871 -0.499999ZM 4.01962 6.53616C 4.01962 8.8668 5.17801 10.9217 6.9462 12.1999L 7.53205 11.3895C 6.00646 10.2867 5.01962 8.52485 5.01962 6.53616L 4.01962 6.53616ZM 7.06547 11.3259C 2.65464 12.9595 -0.49858 17.1313 -0.5 22.0459L 0.5 22.0461C 0.501292 17.5749 3.37017 13.7608 7.41278 12.2636L 7.06547 11.3259ZM 8.26121 9.39051C 7.51105 8.65447 7.05366 7.6517 7.05366 6.5355L 6.05366 6.5355C 6.05366 7.93458 6.62955 9.19052 7.56085 10.1043L 8.26121 9.39051ZM 7.05366 6.5355C 7.05366 5.41929 7.51105 4.41652 8.26121 3.68048L 7.56085 2.96669C 6.62955 3.88047 6.05366 5.13641 6.05366 6.5355L 7.05366 6.5355ZM 8.26093 3.68076C 9.01112 2.94587 10.0386 2.49349 11.1872 2.49349L 11.1872 1.49349C 9.76887 1.49349 8.49242 2.05413 7.56114 2.96641L 8.26093 3.68076ZM 11.1872 2.49349C 12.3349 2.49349 13.3626 2.94638 14.1137 3.68104L 14.8129 2.96612C 13.8813 2.05495 12.6051 1.49349 11.1872 1.49349L 11.1872 2.49349ZM 14.113 3.68034C 14.8628 4.41657 15.3207 5.41946 15.3207 6.5355L 16.3207 6.5355C 16.3207 5.13624 15.744 3.88043 14.8137 2.96683L 14.113 3.68034ZM 15.3207 6.5355C 15.3207 7.65142 14.8628 8.65375 14.1129 9.39079L 14.8138 10.104C 15.7439 9.1899 16.3207 7.93486 16.3207 6.5355L 15.3207 6.5355ZM 14.1136 9.39009C 13.3627 10.125 12.3352 10.5769 11.1869 10.5775L 11.1874 11.5775C 12.6048 11.5768 13.8811 11.017 14.8131 10.1047L 14.1136 9.39009ZM 11.1872 10.5775C 10.0393 10.5775 9.01177 10.1252 8.26078 9.39009L 7.56129 10.1047C 8.49312 11.0168 9.76947 11.5775 11.1872 11.5775L 11.1872 10.5775ZM 11.1871 13.5723C 13.5827 13.5729 15.7404 14.5213 17.3097 16.0579L 18.0093 15.3434C 16.259 13.6295 13.8524 12.573 11.1873 12.5723L 11.1871 13.5723ZM 17.3092 16.0574C 18.6887 17.4028 19.5681 19.1134 19.7838 21.1048L 20.7775 20.993C 20.5255 18.8246 19.4942 16.8102 18.0098 15.3438L 17.3092 16.0574ZM 20.2807 20.5489L 2.0937 20.5489L 2.0937 21.5489L 20.2807 21.5489L 20.2807 20.5489ZM 2.59055 21.105C 2.80703 19.1133 3.68442 17.4026 5.06442 16.0575L 4.36401 15.3437C 2.87872 16.8103 1.84956 18.8248 1.59685 20.9929L 2.59055 21.105ZM 5.06396 16.0579C 6.63457 14.5206 8.79169 13.5729 11.1873 13.5723L 11.1871 12.5723C 8.52201 12.573 6.1161 13.6288 4.36447 15.3433L 5.06396 16.0579Z"/>
</defs>
</svg>
