<svg width="88" height="98" viewBox="0 0 88 98" version="1.1" xmlns="http://www.w3.org/2000/svg" xmlns:xlink="http://www.w3.org/1999/xlink">
<title>Camp vector</title>
<desc>Created using Figma</desc>
<g id="Canvas" transform="matrix(2 0 0 2 -1728 -338)">
<g id="Camp vector">
<g id="Vector">
<use xlink:href="#path0_fill" transform="translate(864 169)" fill="#496274"/>
</g>
<g id="Vector">
<use xlink:href="#path1_fill" transform="translate(875.962 179.224)" fill="#496274"/>
</g>
</g>
</g>
<defs>
<path id="path0_fill" d="M 41.0239 34.2382L 41.0269 34.229L 40.828 34.1664C 40.8239 34.165 40.8208 34.1632 40.8172 34.1623C 40.8131 34.1609 40.808 34.16 40.8044 34.1586L 34.9249 32.3115C 37.1248 30.3159 38.4414 27.8036 38.4414 25.0741C 38.4414 18.9353 36.1279 15.6115 33.8901 12.3972C 31.815 9.41614 29.854 6.59976 29.854 1.38013L 29.854 -2.38669e-07L 28.3195 -2.38669e-07C 26.8608 -2.38669e-07 18.6519 3.72266 17.3859 12.7813C 16.8315 12.0917 16.3425 10.9513 16.3425 9.07433L 16.3425 5.74224L 13.7232 8.09858C 6.66617 14.4453 4.60538 18.7748 5.5547 25.2549C 5.95724 28.0028 7.24722 30.3895 9.20622 32.2706L 3.19674 34.1586C 3.19111 34.16 3.186 34.1613 3.18089 34.1627C 3.17628 34.1646 3.17219 34.1664 3.16861 34.1678L 2.9722 34.2294L 2.97578 34.2386C 0.640833 35.0842 -0.572929 37.4442 0.265401 39.6023C 0.929824 41.3155 2.73078 42.466 4.74809 42.466C 5.20638 42.466 5.66007 42.4025 6.10046 42.2843L 6.10353 42.2921L 6.3025 42.2291C 6.30659 42.2282 6.31017 42.2273 6.31375 42.2263C 6.31682 42.2254 6.31989 42.2236 6.32296 42.2227L 17.3706 38.7516L 17.3711 44.723C 17.3711 44.7336 17.3696 44.7437 17.3696 44.7538C 17.3696 44.7621 17.3711 44.7695 17.3711 44.7777L 17.3711 44.9456L 17.3819 44.9456C 17.5087 47.198 19.5859 49 22.1157 49L 22.1433 49C 23.4118 48.9945 24.601 48.5446 25.493 47.734C 26.3314 46.9726 26.8055 45.978 26.8567 44.9144L 26.8669 44.9144L 26.8669 38.8257L 37.6741 42.2213C 37.6792 42.2227 37.6833 42.225 37.6879 42.2263C 37.6931 42.2282 37.6987 42.2291 37.7048 42.2309L 37.8977 42.2921L 37.9007 42.2843C 38.3411 42.4025 38.7948 42.466 39.2536 42.466C 41.2704 42.466 43.0719 41.3155 43.7353 39.6032C 44.5721 37.4442 43.3593 35.0846 41.0239 34.2382ZM 13.6961 12.1359C 14.9185 16.0757 18.3823 16.5312 18.5603 16.5514L 20.2912 16.7524L 20.2912 15.1828C 20.2912 8.70814 24.3898 5.04206 26.8899 3.53358C 27.3625 8.22141 29.3543 11.0833 31.2887 13.862C 33.3894 16.8789 35.3724 19.728 35.3724 25.0741C 35.3724 30.0214 29.3706 34.0459 21.9919 34.0459C 14.7825 34.0459 9.40007 30.3683 8.59755 24.8938C 7.96791 20.597 8.62721 17.2599 13.6961 12.1359ZM 5.30356 39.6188L 5.29794 39.6202C 5.11892 39.6763 4.93376 39.7053 4.74757 39.7053C 4.03405 39.7053 3.39776 39.2986 3.16247 38.6923C 2.85763 37.9079 3.31848 37.0472 4.18852 36.7707L 4.19824 36.7675C 4.37674 36.7118 4.56139 36.6833 4.74655 36.6833C 5.45957 36.6833 6.09688 37.0909 6.33217 37.6963C 6.6365 38.4821 6.17565 39.3437 5.30356 39.6188ZM 23.3105 45.7921C 22.9949 46.0787 22.5745 46.2379 22.1249 46.2397L 22.1141 47.6199L 22.1141 46.2397C 21.1996 46.2397 20.4513 45.5731 20.439 44.7515L 20.439 44.7244C 20.4406 44.326 20.6114 43.951 20.9224 43.6681C 21.2375 43.3815 21.6579 43.2228 22.1167 43.2205C 23.0379 43.2205 23.7908 43.8945 23.7959 44.7221C 23.798 45.1255 23.6251 45.5055 23.3105 45.7921ZM 40.8362 38.6932C 40.6014 39.2986 39.9651 39.7053 39.2516 39.7053C 39.0659 39.7053 38.8818 39.6768 38.7043 39.6211L 38.6935 39.6179C 37.8235 39.3414 37.3626 38.4807 37.6675 37.6963C 37.9023 37.0909 38.5396 36.6833 39.2531 36.6833C 39.4388 36.6833 39.6239 36.7123 39.8014 36.7675L 39.8096 36.7702C 40.6802 37.0458 41.1405 37.9079 40.8362 38.6932Z"/>
<path id="path1_fill" d="M 10.0302 20.6021C 15.251 20.6021 19.8303 17.9145 19.8303 14.8506C 19.8303 10.4296 18.2688 8.18691 16.2929 5.34753C 15.2269 3.81743 14.0393 2.11021 13.0823 -4.3522e-07C 12.3928 1.30468 11.9104 2.93921 11.9104 4.95925L 11.9104 10.1918L 6.14033 9.52149C 4.86468 9.37336 3.08982 8.77714 1.4996 7.50789C -0.203145 10.1044 -0.146882 11.9809 0.186097 14.2493C 0.751292 18.1086 4.61559 20.6021 10.0302 20.6021Z"/>
</defs>
</svg>
