<svg width="134" height="118" viewBox="0 0 134 118" version="1.1" xmlns="http://www.w3.org/2000/svg" xmlns:xlink="http://www.w3.org/1999/xlink">
<title>online-screening</title>
<desc>Created using Figma</desc>
<g id="Canvas" transform="matrix(2 0 0 2 3316 -254)">
<g id="online-screening">
<g id="Group">
<g id="Vector">
<use xlink:href="#path0_fill" transform="translate(-1658 127)" fill="#496274"/>
</g>
</g>
</g>
</g>
<defs>
<path id="path0_fill" d="M 63.4792 0.00480952C 62.6121 0.0460693 61.7667 0.442121 61.1776 1.08367C 52.363 10.3617 38.2631 25.9715 28.9017 35.923L 17.1057 26.8447C 15.7172 25.7523 13.4621 26.0395 12.3881 27.4455C 11.3141 28.8516 11.6187 31.1178 13.0254 32.1863L 27.254 43.1328C 28.5502 44.1409 30.5968 43.9845 31.7265 42.7908C 41.0995 32.9252 56.8159 15.453 66.0425 5.74118C 66.9893 4.7816 67.2712 3.22011 66.7202 1.98686C 66.1691 0.753617 64.8212 -0.0707212 63.4792 0.00480952L 63.4792 0.00480952ZM 2.66581e-07 8.4778L 2.66581e-07 55.6318C 0.000167661 57.3953 1.59502 58.9998 3.3479 59L 50.2185 59C 51.9713 58.9998 53.5662 57.3953 53.5664 55.6318L 53.5664 33.7389C 53.5915 31.9594 51.9874 30.3228 50.2185 30.3228C 48.4495 30.3228 46.8455 31.9594 46.8706 33.7389L 46.8706 52.2637L 6.6958 52.2637L 6.6958 11.846L 41.8487 11.846C 43.6174 11.8712 45.2443 10.2574 45.2443 8.4778C 45.2443 6.69816 43.6174 5.08448 41.8487 5.10966L 3.3479 5.10966C 1.50287 5.13913 0.037162 7.0583 2.66581e-07 8.4778L 2.66581e-07 8.4778Z"/>
</defs>
</svg>
