<svg width="231" height="247" viewBox="0 0 231 247" version="1.1" xmlns="http://www.w3.org/2000/svg" xmlns:xlink="http://www.w3.org/1999/xlink">
<title>contigent-workforce</title>
<desc>Created using Figma</desc>
<g id="Canvas" transform="translate(-8018 -4811)">
<g id="contigent-workforce">
<g id="Vector">
<use xlink:href="#path0_fill" transform="translate(8024.15 4854.47)" fill="#496274"/>
</g>
<g id="Vector">
<use xlink:href="#path1_fill" transform="translate(8018 4873.35)" fill="#496274"/>
</g>
<g id="Vector">
<use xlink:href="#path2_fill" transform="translate(8024.15 4939.26)" fill="#496274"/>
</g>
<g id="Vector">
<use xlink:href="#path3_fill" transform="translate(8018 4958.15)" fill="#496274"/>
</g>
<g id="Vector">
<use xlink:href="#path4_fill" transform="translate(8057.87 4811)" fill="#496274"/>
</g>
<g id="Vector">
<use xlink:href="#path5_fill" transform="translate(8051.62 4829.88)" fill="#496274"/>
</g>
<g id="Vector">
<use xlink:href="#path6_fill" transform="translate(8057.87 4895.79)" fill="#496274"/>
</g>
<g id="Vector">
<use xlink:href="#path7_fill" transform="translate(8051.62 4914.68)" fill="#496274"/>
</g>
<g id="Vector">
<use xlink:href="#path8_fill" transform="translate(8057.87 4980.56)" fill="#496274"/>
</g>
<g id="Vector">
<use xlink:href="#path9_fill" transform="translate(8051.62 4999.5)" fill="#496274"/>
</g>
<g id="Vector">
<use xlink:href="#path10_fill" transform="translate(8091.59 4854.47)" fill="#496274"/>
</g>
<g id="Vector">
<use xlink:href="#path11_fill" transform="translate(8085.44 4873.35)" fill="#496274"/>
</g>
<g id="Vector">
<use xlink:href="#path12_fill" transform="translate(8091.59 4939.26)" fill="#496274"/>
</g>
<g id="Vector">
<use xlink:href="#path13_fill" transform="translate(8085.44 4958.15)" fill="#496274"/>
</g>
<g id="Vector">
<use xlink:href="#path14_fill" transform="translate(8125.31 4811)" fill="#496274"/>
</g>
<g id="Vector">
<use xlink:href="#path15_fill" transform="translate(8119.16 4829.88)" fill="#496274"/>
</g>
<g id="Vector">
<use xlink:href="#path16_fill" transform="translate(8125.31 4895.79)" fill="#496274"/>
</g>
<g id="Vector">
<use xlink:href="#path17_fill" transform="translate(8119.16 4914.68)" fill="#496274"/>
</g>
<g id="Vector">
<use xlink:href="#path18_fill" transform="translate(8125.31 4980.56)" fill="#496274"/>
</g>
<g id="Vector">
<use xlink:href="#path19_fill" transform="translate(8119.16 4999.5)" fill="#496274"/>
</g>
<g id="Vector">
<use xlink:href="#path10_fill" transform="translate(8159.03 4854.47)" fill="#496274"/>
</g>
<g id="Vector">
<use xlink:href="#path20_fill" transform="translate(8152.88 4873.35)" fill="#496274"/>
</g>
<g id="Vector">
<use xlink:href="#path12_fill" transform="translate(8159.03 4939.26)" fill="#496274"/>
</g>
<g id="Vector">
<use xlink:href="#path21_fill" transform="translate(8152.88 4958.15)" fill="#496274"/>
</g>
<g id="Vector">
<use xlink:href="#path22_fill" transform="translate(8192.75 4811)" fill="#496274"/>
</g>
<g id="Vector">
<use xlink:href="#path23_fill" transform="translate(8186.5 4829.88)" fill="#496274"/>
</g>
<g id="Vector">
<use xlink:href="#path24_fill" transform="translate(8192.75 4895.79)" fill="#496274"/>
</g>
<g id="Vector">
<use xlink:href="#path25_fill" transform="translate(8186.5 4914.68)" fill="#496274"/>
</g>
<g id="Vector">
<use xlink:href="#path26_fill" transform="translate(8192.75 4980.56)" fill="#496274"/>
</g>
<g id="Vector">
<use xlink:href="#path27_fill" transform="translate(8186.5 4999.5)" fill="#496274"/>
</g>
<g id="Vector">
<use xlink:href="#path28_fill" transform="translate(8226.47 4854.47)" fill="#496274"/>
</g>
<g id="Vector">
<use xlink:href="#path29_fill" transform="translate(8220.31 4873.35)" fill="#496274"/>
</g>
<g id="Vector">
<use xlink:href="#path30_fill" transform="translate(8226.47 4939.26)" fill="#496274"/>
</g>
<g id="Vector">
<use xlink:href="#path31_fill" transform="translate(8220.31 4958.15)" fill="#496274"/>
</g>
</g>
</g>
<defs>
<path id="path0_fill" d="M 8.1583 16.3458C 12.664 16.3458 16.3166 12.6867 16.3166 8.1729C 16.3166 3.65913 12.664 0 8.1583 0C 3.6526 0 0 3.65913 0 8.1729C 0 12.6867 3.6526 16.3458 8.1583 16.3458Z"/>
<path id="path1_fill" d="M 20.2327 4.02285e-06L 8.39003 4.02285e-06C 6.16524 4.02285e-06 4.03157 0.885372 2.45841 2.46135C 0.885246 4.03733 0.00145173 6.17481 0.00145173 8.40358L 0.00145173 25.4744C -0.0352333 27.4497 0.62395 29.3748 1.86324 30.9116C 3.10253 32.4484 4.84268 33.4987 6.77811 33.878L 6.77811 52.4647C 6.77811 54.1079 7.42969 55.6837 8.58951 56.8456C 9.74933 58.0075 11.3224 58.6603 12.9626 58.6603L 15.6601 58.6603C 17.3004 58.6603 18.8734 58.0075 20.0332 56.8456C 21.1931 55.6837 21.8446 54.1079 21.8446 52.4647L 21.8446 52.4647L 21.8446 33.7132C 23.7521 33.339 25.4706 32.3129 26.7066 30.8102C 27.9426 29.3076 28.6194 27.4215 28.6213 25.4744L 28.6213 8.40358C 28.6213 7.30001 28.4043 6.20724 27.9828 5.18768C 27.5612 4.16811 26.9433 3.24169 26.1643 2.46135C 25.3854 1.681 24.4606 1.06201 23.4429 0.639688C 22.4251 0.217369 21.3343 4.02285e-06 20.2327 4.02285e-06L 20.2327 4.02285e-06Z"/>
<path id="path2_fill" d="M 8.1583 16.3458C 12.664 16.3458 16.3166 12.6867 16.3166 8.1729C 16.3166 3.65913 12.664 4.02285e-06 8.1583 4.02285e-06C 3.6526 4.02285e-06 0 3.65913 0 8.1729C 0 12.6867 3.6526 16.3458 8.1583 16.3458Z"/>
<path id="path3_fill" d="M 20.2313 2.51428e-06L 8.38858 2.51428e-06C 6.16379 2.51428e-06 4.03012 0.885371 2.45696 2.46135C 0.883793 4.03733 -8.78428e-07 6.17481 -8.78428e-07 8.40358L -8.78428e-07 25.4744C 0.00188866 27.4215 0.678659 29.3076 1.91467 30.8102C 3.15068 32.3129 4.86923 33.339 6.77666 33.7132L 6.77666 52.2999C 6.77666 53.9431 7.42824 55.519 8.58806 56.6809C 9.74788 57.8428 11.3209 58.4955 12.9612 58.4955L 15.6587 58.4955C 17.2989 58.4955 18.872 57.8428 20.0318 56.6809C 21.1916 55.519 21.8432 53.9431 21.8432 52.2999L 21.8432 52.2999L 21.8432 33.7132C 23.7506 33.339 25.4692 32.3129 26.7052 30.8102C 27.9412 29.3076 28.618 27.4215 28.6199 25.4744L 28.6199 8.40358C 28.6199 6.17481 27.7361 4.03733 26.1629 2.46135C 24.5897 0.885371 22.4561 2.51428e-06 20.2313 2.51428e-06L 20.2313 2.51428e-06Z"/>
<path id="path4_fill" d="M 8.1583 16.3458C 12.664 16.3458 16.3166 12.6867 16.3166 8.1729C 16.3166 3.65913 12.664 -2.51428e-06 8.1583 -2.51428e-06C 3.65259 -2.51428e-06 0 3.65913 0 8.1729C 0 12.6867 3.65259 16.3458 8.1583 16.3458Z"/>
<path id="path5_fill" d="M 20.33 0.000584625L 8.48727 0.000584625C 7.38015 -0.0124727 6.2814 0.194156 5.25439 0.608564C 4.22737 1.02297 3.29241 1.63696 2.50341 2.41511C 1.71442 3.19327 1.087 4.12019 0.657334 5.14245C 0.22767 6.1647 0.00426522 7.26204 1.16871e-14 8.37121L 1.16871e-14 25.442C 0.00188954 27.3891 0.67866 29.2752 1.91467 30.7779C 3.15068 32.2806 4.86923 33.3067 6.77665 33.6808L 6.77665 52.2676C 6.7718 53.1009 6.93481 53.9266 7.2559 54.6953C 7.577 55.464 8.04959 56.1599 8.64541 56.7414C 9.24122 57.3229 9.94801 57.778 10.7235 58.0795C 11.4989 58.381 12.3272 58.5227 13.1586 58.4961L 15.8561 58.4961C 17.4963 58.4961 19.0693 57.8434 20.2292 56.6815C 21.389 55.5196 22.0406 53.9437 22.0406 52.3005L 22.0406 52.3005L 22.0406 33.6808C 23.948 33.3067 25.6665 32.2806 26.9026 30.7779C 28.1386 29.2752 28.8153 27.3891 28.8172 25.442L 28.8172 8.37121C 28.813 7.26204 28.5896 6.1647 28.1599 5.14245C 27.7302 4.12019 27.1028 3.19327 26.3138 2.41511C 25.5248 1.63696 24.5899 1.02297 23.5628 0.608564C 22.5358 0.194156 21.4371 -0.0124727 20.33 0.000584625L 20.33 0.000584625Z"/>
<path id="path6_fill" d="M 8.1583 16.3458C 12.664 16.3458 16.3166 12.6867 16.3166 8.17289C 16.3166 3.65912 12.664 -4.02285e-06 8.1583 -4.02285e-06C 3.65259 -4.02285e-06 0 3.65912 0 8.17289C 0 12.6867 3.65259 16.3458 8.1583 16.3458Z"/>
<path id="path7_fill" d="M 20.33 0.000576831L 8.48727 0.000576831C 7.38015 -0.0124805 6.2814 0.19416 5.25439 0.608568C 4.22737 1.02298 3.29241 1.63695 2.50341 2.41511C 1.71442 3.19326 1.087 4.12019 0.657334 5.14244C 0.22767 6.16469 0.00426522 7.26204 2.33743e-14 8.37121L 2.33743e-14 25.5079C 0.00188954 27.455 0.67866 29.3411 1.91467 30.8438C 3.15068 32.3465 4.86923 33.3726 6.77665 33.7467L 6.77665 52.3335C 6.78499 53.1584 6.95772 53.9734 7.28469 54.7306C 7.61166 55.4878 8.0863 56.1719 8.68075 56.7429C 9.2752 57.3139 9.9775 57.7601 10.7464 58.0555C 11.5154 58.3509 12.3354 58.4895 13.1586 58.4631L 15.8561 58.4631C 17.4963 58.4631 19.0693 57.8104 20.2292 56.6485C 21.389 55.4866 22.0406 53.9107 22.0406 52.2676L 22.0406 52.2676L 22.0406 33.6808C 23.9127 33.2823 25.5926 32.2545 26.8013 30.7679C 28.01 29.2812 28.6749 27.4252 28.6856 25.5079L 28.6856 8.37121C 28.677 6.15385 27.7939 4.02979 26.2288 2.46187C 24.6636 0.893953 22.5434 0.00925543 20.33 0.000576831L 20.33 0.000576831Z"/>
<path id="path8_fill" d="M 8.1583 16.3458C 12.664 16.3458 16.3166 12.6867 16.3166 8.17291C 16.3166 3.65914 12.664 0 8.1583 0C 3.65259 0 0 3.65914 0 8.17291C 0 12.6867 3.65259 16.3458 8.1583 16.3458Z"/>
<path id="path9_fill" d="M 20.33 0.000584619L 8.48727 0.000584619C 7.3829 -0.0124655 6.28683 0.193092 5.26196 0.605446C 4.23709 1.0178 3.30358 1.62882 2.51502 2.40349C 1.72646 3.17815 1.09836 4.1012 0.666771 5.11964C 0.235178 6.13808 0.00858546 7.23187 1.16871e-14 8.33825L 1.16871e-14 25.4091C 0.00188954 27.3562 0.67866 29.2422 1.91467 30.7449C 3.15068 32.2476 4.86923 33.2737 6.77665 33.6479L 6.77665 52.2346C 6.77623 53.0651 6.9425 53.8873 7.26557 54.6521C 7.58864 55.417 8.06192 56.109 8.65727 56.687C 9.25263 57.2649 9.95791 57.7171 10.7312 58.0166C 11.5045 58.316 12.3299 58.4567 13.1586 58.4302L 15.8561 58.4302C 17.4963 58.4302 19.0693 57.7774 20.2292 56.6155C 21.389 55.4536 22.0406 53.8778 22.0406 52.2346L 22.0406 52.2346L 22.0406 33.6479C 23.948 33.2737 25.6665 32.2476 26.9026 30.7449C 28.1386 29.2422 28.8153 27.3562 28.8172 25.4091L 28.8172 8.33825C 28.8086 7.23187 28.5821 6.13808 28.1505 5.11964C 27.7189 4.1012 27.0908 3.17815 26.3022 2.40349C 25.5136 1.62882 24.5801 1.0178 23.5553 0.605446C 22.5304 0.193092 21.4343 -0.0124655 20.33 0.000584619L 20.33 0.000584619Z"/>
<path id="path10_fill" d="M 8.15831 16.3458C 12.664 16.3458 16.3166 12.6867 16.3166 8.1729C 16.3166 3.65913 12.664 0 8.15831 0C 3.6526 0 5.01959e-06 3.65913 5.01959e-06 8.1729C 5.01959e-06 12.6867 3.6526 16.3458 8.15831 16.3458Z"/>
<path id="path11_fill" d="M 20.2327 0.000262521L 8.39004 0.000262521C 6.16525 0.000262521 4.03158 0.885631 2.45841 2.46161C 0.885249 4.03758 0.00145486 6.17507 0.00145486 8.40384L 0.00145486 25.4746C -0.0352301 27.4499 0.62395 29.375 1.86324 30.9118C 3.10253 32.4487 4.84268 33.4989 6.77811 33.8782L 6.77811 52.465C 6.77811 54.1081 7.42969 55.684 8.58951 56.8459C 9.74934 58.0078 11.3224 58.6605 12.9626 58.6605L 15.5285 58.6605C 17.1688 58.6605 18.7418 58.0078 19.9017 56.8459C 21.0615 55.684 21.7131 54.1081 21.7131 52.465L 21.7131 52.465L 21.7131 33.7135C 23.6568 33.3804 25.4212 32.372 26.6965 30.8653C 27.9719 29.3587 28.6767 27.4501 28.6871 25.4746L 28.6871 8.40384C 28.6871 7.2947 28.468 6.19652 28.0423 5.17263C 27.6166 4.14874 26.9929 3.2194 26.2069 2.43819C 25.421 1.65698 24.4885 1.03935 23.4631 0.620926C 22.4378 0.202503 21.3399 -0.00843663 20.2327 0.000262521L 20.2327 0.000262521Z"/>
<path id="path12_fill" d="M 8.15831 16.3458C 12.664 16.3458 16.3166 12.6867 16.3166 8.1729C 16.3166 3.65913 12.664 4.02285e-06 8.15831 4.02285e-06C 3.6526 4.02285e-06 5.01959e-06 3.65913 5.01959e-06 8.1729C 5.01959e-06 12.6867 3.6526 16.3458 8.15831 16.3458Z"/>
<path id="path13_fill" d="M 20.2313 0.000261012L 8.38858 0.000261012C 6.16379 0.000261012 4.03012 0.885629 2.45696 2.46161C 0.883796 4.03758 2.25882e-06 6.17507 2.25882e-06 8.40384L 2.25882e-06 25.4746C 0.0018918 27.4218 0.678662 29.3078 1.91467 30.8105C 3.15069 32.3132 4.86923 33.3393 6.77665 33.7134L 6.77665 52.3002C 6.77665 53.9434 7.42824 55.5192 8.58806 56.6811C 9.74788 57.843 11.3209 58.4958 12.9612 58.4958L 15.5271 58.4958C 17.1673 58.4958 18.7404 57.843 19.9002 56.6811C 21.06 55.5192 21.7116 53.9434 21.7116 52.3002L 21.7116 52.3002L 21.7116 33.7134C 23.6553 33.3804 25.4197 32.372 26.6951 30.8653C 27.9704 29.3587 28.6752 27.4501 28.6856 25.4746L 28.6856 8.40384C 28.6857 7.2947 28.4665 6.19652 28.0409 5.17263C 27.6152 4.14874 26.9914 3.21939 26.2055 2.43817C 25.4195 1.65696 24.487 1.03935 23.4617 0.620924C 22.4363 0.202501 21.3384 -0.00843814 20.2313 0.000261012L 20.2313 0.000261012Z"/>
<path id="path14_fill" d="M 8.15831 16.3458C 12.664 16.3458 16.3166 12.6867 16.3166 8.1729C 16.3166 3.65913 12.664 -2.51428e-06 8.15831 -2.51428e-06C 3.6526 -2.51428e-06 5.01959e-06 3.65913 5.01959e-06 8.1729C 5.01959e-06 12.6867 3.6526 16.3458 8.15831 16.3458Z"/>
<path id="path15_fill" d="M 20.2313 2.2631e-06L 8.38858 2.2631e-06C 6.16379 2.2631e-06 4.03012 0.885377 2.45696 2.46135C 0.883796 4.03733 -4.01567e-06 6.17481 -4.01567e-06 8.40358L -4.01567e-06 25.4744C 0.00188552 27.4215 0.678656 29.3076 1.91467 30.8103C 3.15068 32.313 4.86923 33.339 6.77666 33.7132L 6.77666 52.2999C 6.77666 53.9431 7.42824 55.519 8.58806 56.6809C 9.74788 57.8428 11.3209 58.4955 12.9612 58.4955L 15.6587 58.4955C 17.2989 58.4955 18.872 57.8428 20.0318 56.6809C 21.1916 55.519 21.8432 53.9431 21.8432 52.2999L 21.8432 52.2999L 21.8432 33.6802C 23.7506 33.3061 25.4692 32.28 26.7052 30.7773C 27.9412 29.2746 28.618 27.3886 28.6199 25.4414L 28.6199 8.37062C 28.6111 6.14757 27.7235 4.01854 26.1513 2.44969C 24.5791 0.880831 22.4504 -1.48309e-05 20.2313 2.2631e-06L 20.2313 2.2631e-06Z"/>
<path id="path16_fill" d="M 8.15831 16.3458C 12.664 16.3458 16.3166 12.6867 16.3166 8.17289C 16.3166 3.65912 12.664 -4.02285e-06 8.15831 -4.02285e-06C 3.6526 -4.02285e-06 5.01959e-06 3.65912 5.01959e-06 8.17289C 5.01959e-06 12.6867 3.6526 16.3458 8.15831 16.3458Z"/>
<path id="path17_fill" d="M 20.2313 -5.53142e-06L 8.38858 -5.53142e-06C 6.16379 -5.53142e-06 4.03012 0.885375 2.45696 2.46135C 0.883796 4.03733 -4.01567e-06 6.17482 -4.01567e-06 8.40358L -4.01567e-06 25.5073C 0.00188552 27.4545 0.678656 29.3405 1.91467 30.8432C 3.15068 32.3459 4.86923 33.372 6.77666 33.7461L 6.77666 52.3329C 6.7939 53.9589 7.44858 55.513 8.59944 56.6597C 9.75031 57.8065 11.3051 58.454 12.9283 58.4626L 15.6258 58.4626C 17.266 58.4626 18.8391 57.8098 19.9989 56.6479C 21.1587 55.486 21.8103 53.9102 21.8103 52.267L 21.8103 52.267L 21.8103 33.6802C 23.7067 33.3083 25.4168 32.2919 26.6515 30.8028C 27.8862 29.3136 28.5699 27.4431 28.587 25.5073L 28.587 8.37062C 28.5783 6.15327 27.6952 4.02921 26.1301 2.46129C 24.5649 0.89337 22.4447 0.00867307 20.2313 -5.53142e-06L 20.2313 -5.53142e-06Z"/>
<path id="path18_fill" d="M 8.15831 16.3458C 12.664 16.3458 16.3166 12.6867 16.3166 8.17291C 16.3166 3.65914 12.664 0 8.15831 0C 3.6526 0 5.01959e-06 3.65914 5.01959e-06 8.17291C 5.01959e-06 12.6867 3.6526 16.3458 8.15831 16.3458Z"/>
<path id="path19_fill" d="M 20.2313 3.98078e-09L 8.38858 3.98078e-09C 6.16379 3.98078e-09 4.03012 0.885381 2.45696 2.46136C 0.883796 4.03734 -4.01567e-06 6.17482 -4.01567e-06 8.40359L -4.01567e-06 25.4744C 0.00188552 27.4215 0.678656 29.3076 1.91467 30.8103C 3.15068 32.313 4.86923 33.339 6.77666 33.7132L 6.77666 52.2999C 6.77666 53.9431 7.42824 55.519 8.58806 56.6809C 9.74788 57.8428 11.3209 58.4955 12.9612 58.4955L 15.6587 58.4955C 17.2989 58.4955 18.872 57.8428 20.0318 56.6809C 21.1916 55.519 21.8432 53.9431 21.8432 52.2999L 21.8432 52.2999L 21.8432 33.6473C 23.7506 33.2731 25.4692 32.247 26.7052 30.7443C 27.9412 29.2416 28.618 27.3556 28.6199 25.4085L 28.6199 8.33767C 28.6025 6.12034 27.711 3.99975 26.1398 2.438C 24.5685 0.87625 22.4447 -6.81984e-05 20.2313 3.98078e-09L 20.2313 3.98078e-09Z"/>
<path id="path20_fill" d="M 20.2327 4.02285e-06L 8.39004 4.02285e-06C 6.16525 4.02285e-06 4.03158 0.885372 2.45841 2.46135C 0.885249 4.03733 0.00144859 6.17481 0.00144859 8.40358L 0.00144859 25.4744C -0.0352364 27.4497 0.62395 29.3748 1.86324 30.9116C 3.10253 32.4484 4.84268 33.4987 6.77811 33.878L 6.77811 52.4647C 6.77811 54.1079 7.42969 55.6837 8.58951 56.8456C 9.74934 58.0075 11.3224 58.6603 12.9626 58.6603L 15.6601 58.6603C 17.3004 58.6603 18.8734 58.0075 20.0332 56.8456C 21.1931 55.6837 21.8446 54.1079 21.8446 52.4647L 21.8446 52.4647L 21.8446 33.7132C 23.7521 33.339 25.4706 32.3129 26.7066 30.8102C 27.9426 29.3076 28.6194 27.4215 28.6213 25.4744L 28.6213 8.40358C 28.6213 7.30001 28.4043 6.20724 27.9828 5.18768C 27.5612 4.16811 26.9433 3.24169 26.1644 2.46135C 25.3854 1.681 24.4606 1.06201 23.4429 0.639688C 22.4251 0.217369 21.3343 4.02285e-06 20.2327 4.02285e-06L 20.2327 4.02285e-06Z"/>
<path id="path21_fill" d="M 20.2313 2.51428e-06L 8.38858 2.51428e-06C 6.16379 2.51428e-06 4.03012 0.885371 2.45696 2.46135C 0.883796 4.03733 -4.01567e-06 6.17481 -4.01567e-06 8.40358L -4.01567e-06 25.4744C 0.00188552 27.4215 0.678656 29.3076 1.91467 30.8102C 3.15068 32.3129 4.86923 33.339 6.77666 33.7132L 6.77666 52.2999C 6.77666 53.9431 7.42824 55.519 8.58806 56.6809C 9.74788 57.8428 11.3209 58.4955 12.9612 58.4955L 15.6587 58.4955C 17.2989 58.4955 18.872 57.8428 20.0318 56.6809C 21.1916 55.519 21.8432 53.9431 21.8432 52.2999L 21.8432 52.2999L 21.8432 33.7132C 23.7506 33.339 25.4692 32.3129 26.7052 30.8102C 27.9412 29.3076 28.618 27.4215 28.6199 25.4744L 28.6199 8.40358C 28.6199 6.17481 27.7361 4.03733 26.1629 2.46135C 24.5897 0.885371 22.4561 2.51428e-06 20.2313 2.51428e-06L 20.2313 2.51428e-06Z"/>
<path id="path22_fill" d="M 8.15829 16.3458C 12.664 16.3458 16.3166 12.6867 16.3166 8.1729C 16.3166 3.65913 12.664 -2.51428e-06 8.15829 -2.51428e-06C 3.65259 -2.51428e-06 5.01959e-06 3.65913 5.01959e-06 8.1729C 5.01959e-06 12.6867 3.65259 16.3458 8.15829 16.3458Z"/>
<path id="path23_fill" d="M 20.33 0.000584625L 8.48727 0.000584625C 7.38015 -0.0124727 6.28141 0.194156 5.25439 0.608564C 4.22738 1.02297 3.29242 1.63696 2.50342 2.41511C 1.71442 3.19327 1.087 4.12019 0.65734 5.14245C 0.227677 6.1647 0.00426522 7.26204 2.33743e-14 8.37121L 2.33743e-14 25.442C 0.00188954 27.3891 0.67866 29.2752 1.91467 30.7779C 3.15068 32.2806 4.86923 33.3067 6.77666 33.6808L 6.77666 52.2676C 6.77181 53.1009 6.93481 53.9266 7.2559 54.6953C 7.577 55.464 8.0496 56.1599 8.64541 56.7414C 9.24123 57.3229 9.94801 57.778 10.7235 58.0795C 11.4989 58.381 12.3272 58.5227 13.1586 58.4961L 15.8561 58.4961C 17.4963 58.4961 19.0693 57.8434 20.2292 56.6815C 21.389 55.5196 22.0406 53.9437 22.0406 52.3005L 22.0406 52.3005L 22.0406 33.6808C 23.948 33.3067 25.6666 32.2806 26.9026 30.7779C 28.1386 29.2752 28.8153 27.3891 28.8172 25.442L 28.8172 8.37121C 28.813 7.26204 28.5896 6.1647 28.1599 5.14245C 27.7302 4.12019 27.1028 3.19327 26.3138 2.41511C 25.5248 1.63696 24.5898 1.02297 23.5628 0.608564C 22.5358 0.194156 21.4371 -0.0124727 20.33 0.000584625L 20.33 0.000584625Z"/>
<path id="path24_fill" d="M 8.15829 16.3458C 12.664 16.3458 16.3166 12.6867 16.3166 8.17289C 16.3166 3.65912 12.664 -4.02285e-06 8.15829 -4.02285e-06C 3.65259 -4.02285e-06 5.01959e-06 3.65912 5.01959e-06 8.17289C 5.01959e-06 12.6867 3.65259 16.3458 8.15829 16.3458Z"/>
<path id="path25_fill" d="M 20.33 0.000576831L 8.48727 0.000576831C 7.38015 -0.0124805 6.28141 0.19416 5.25439 0.608568C 4.22738 1.02298 3.29242 1.63695 2.50342 2.41511C 1.71442 3.19326 1.087 4.12019 0.65734 5.14244C 0.227677 6.16469 0.00426522 7.26204 2.33743e-14 8.37121L 2.33743e-14 25.5079C 0.00188954 27.455 0.67866 29.3411 1.91467 30.8438C 3.15068 32.3465 4.86923 33.3726 6.77666 33.7467L 6.77666 52.3335C 6.785 53.1584 6.95772 53.9734 7.28469 54.7306C 7.61166 55.4878 8.0863 56.1719 8.68075 56.7429C 9.2752 57.3139 9.97751 57.7601 10.7464 58.0555C 11.5154 58.3509 12.3354 58.4895 13.1586 58.4631L 15.8561 58.4631C 17.4963 58.4631 19.0693 57.8104 20.2292 56.6485C 21.389 55.4866 22.0406 53.9107 22.0406 52.2676L 22.0406 52.2676L 22.0406 33.6808C 23.9127 33.2823 25.5926 32.2545 26.8013 30.7679C 28.01 29.2812 28.6749 27.4252 28.6856 25.5079L 28.6856 8.37121C 28.677 6.15385 27.7939 4.02979 26.2288 2.46187C 24.6636 0.893953 22.5434 0.00925543 20.33 0.000576831L 20.33 0.000576831Z"/>
<path id="path26_fill" d="M 8.15829 16.3458C 12.664 16.3458 16.3166 12.6867 16.3166 8.17291C 16.3166 3.65914 12.664 0 8.15829 0C 3.65259 0 5.01959e-06 3.65914 5.01959e-06 8.17291C 5.01959e-06 12.6867 3.65259 16.3458 8.15829 16.3458Z"/>
<path id="path27_fill" d="M 20.33 0.000584619L 8.48727 0.000584619C 7.38291 -0.0124655 6.28683 0.193092 5.26196 0.605446C 4.23709 1.0178 3.30359 1.62882 2.51503 2.40349C 1.72647 3.17815 1.09836 4.1012 0.666765 5.11964C 0.235171 6.13808 0.00858546 7.23187 4.67486e-14 8.33825L 4.67486e-14 25.4091C 0.00188954 27.3562 0.67866 29.2422 1.91467 30.7449C 3.15068 32.2476 4.86923 33.2737 6.77666 33.6479L 6.77666 52.2346C 6.77624 53.0651 6.9425 53.8873 7.26557 54.6521C 7.58864 55.417 8.06192 56.109 8.65727 56.687C 9.25263 57.2649 9.95791 57.7171 10.7312 58.0166C 11.5045 58.316 12.3299 58.4567 13.1586 58.4302L 15.8561 58.4302C 17.4963 58.4302 19.0693 57.7774 20.2292 56.6155C 21.389 55.4536 22.0406 53.8778 22.0406 52.2346L 22.0406 52.2346L 22.0406 33.6479C 23.948 33.2737 25.6666 32.2476 26.9026 30.7449C 28.1386 29.2422 28.8153 27.3562 28.8172 25.4091L 28.8172 8.33825C 28.8087 7.23187 28.5821 6.13808 28.1505 5.11964C 27.7189 4.1012 27.0908 3.17815 26.3022 2.40349C 25.5136 1.62882 24.5801 1.0178 23.5553 0.605446C 22.5304 0.193092 21.4343 -0.0124655 20.33 0.000584619Z"/>
<path id="path28_fill" d="M 8.15829 16.3458C 12.664 16.3458 16.3166 12.6867 16.3166 8.1729C 16.3166 3.65913 12.664 0 8.15829 0C 3.65259 0 5.01959e-06 3.65913 5.01959e-06 8.1729C 5.01959e-06 12.6867 3.65259 16.3458 8.15829 16.3458Z"/>
<path id="path29_fill" d="M 20.2327 0.000262521L 8.39004 0.000262521C 6.16525 0.000262521 4.03158 0.885631 2.45841 2.46161C 0.885249 4.03758 0.00144859 6.17507 0.00144859 8.40384L 0.00144859 25.4746C -0.0352364 27.4499 0.62395 29.375 1.86324 30.9118C 3.10253 32.4487 4.84267 33.4989 6.7781 33.8782L 6.7781 52.465C 6.7781 54.1081 7.42969 55.684 8.58951 56.8459C 9.74934 58.0078 11.3224 58.6605 12.9626 58.6605L 15.5285 58.6605C 17.1688 58.6605 18.7418 58.0078 19.9017 56.8459C 21.0615 55.684 21.7131 54.1081 21.7131 52.465L 21.7131 52.465L 21.7131 33.7135C 23.6567 33.3804 25.4212 32.372 26.6965 30.8653C 27.9719 29.3587 28.6767 27.4501 28.6871 25.4746L 28.6871 8.40384C 28.6871 7.2947 28.468 6.19652 28.0423 5.17263C 27.6167 4.14874 26.9929 3.2194 26.2069 2.43819C 25.421 1.65698 24.4885 1.03935 23.4631 0.620926C 22.4378 0.202503 21.3399 -0.00843663 20.2327 0.000262521L 20.2327 0.000262521Z"/>
<path id="path30_fill" d="M 8.15829 16.3458C 12.664 16.3458 16.3166 12.6867 16.3166 8.1729C 16.3166 3.65913 12.664 4.02285e-06 8.15829 4.02285e-06C 3.65259 4.02285e-06 5.01959e-06 3.65913 5.01959e-06 8.1729C 5.01959e-06 12.6867 3.65259 16.3458 8.15829 16.3458Z"/>
<path id="path31_fill" d="M 20.2313 0.000261012L 8.38858 0.000261012C 6.16379 0.000261012 4.03012 0.885629 2.45696 2.46161C 0.883796 4.03758 -4.01567e-06 6.17507 -4.01567e-06 8.40384L -4.01567e-06 25.4746C 0.00188552 27.4218 0.678656 29.3078 1.91467 30.8105C 3.15068 32.3132 4.86922 33.3393 6.77664 33.7134L 6.77664 52.3002C 6.77664 53.9434 7.42824 55.5192 8.58806 56.6811C 9.74788 57.843 11.3209 58.4958 12.9612 58.4958L 15.5271 58.4958C 17.1673 58.4958 18.7404 57.843 19.9002 56.6811C 21.06 55.5192 21.7116 53.9434 21.7116 52.3002L 21.7116 52.3002L 21.7116 33.7134C 23.6553 33.3804 25.4197 32.372 26.6951 30.8653C 27.9704 29.3587 28.6752 27.4501 28.6856 25.4746L 28.6856 8.40384C 28.6857 7.2947 28.4666 6.19652 28.0409 5.17263C 27.6152 4.14874 26.9914 3.21939 26.2055 2.43817C 25.4195 1.65696 24.487 1.03935 23.4617 0.620924C 22.4363 0.202501 21.3384 -0.00843814 20.2313 0.000261012L 20.2313 0.000261012Z"/>
</defs>
</svg>
