<svg width="104" height="68" viewBox="0 0 104 68" version="1.1" xmlns="http://www.w3.org/2000/svg" xmlns:xlink="http://www.w3.org/1999/xlink">
<title>Group</title>
<desc>Created using Figma</desc>
<g id="Canvas" transform="matrix(2 0 0 2 -2838 -356)">
<g id="Group">
<g id="Vector">
<use xlink:href="#path0_fill" transform="translate(1420 179)" fill="#496274"/>
<mask id="mask0_outline_out">
<rect id="mask0_outline_inv" fill="white" x="-1" y="-1" width="53" height="34" transform="translate(1420 179)"/>
<use xlink:href="#path0_fill" fill="black" transform="translate(1420 179)"/>
</mask>
<g mask="url(#mask0_outline_out)">
<use xlink:href="#path1_stroke_2x" transform="translate(1420 179)" fill="#496274"/>
</g>
</g>
</g>
</g>
<defs>
<path id="path0_fill" d="M 24.8128 0.0365315L 0.310122 10.4987C -0.103374 10.6723 -0.103374 11.479 0.310122 11.6527L 3.76435 13.1336L 3.76435 20.48C 3.43933 20.693 3.21984 21.0827 3.21984 21.5378C 3.21984 22.2176 3.70745 22.7687 4.30885 22.7687C 4.91026 22.7687 5.39786 22.2176 5.39786 21.5378C 5.39786 21.0827 5.17837 20.693 4.85335 20.48L 4.85335 13.5951L 9.20939 15.4605L 9.20939 25.2304C 9.20939 26.1804 9.77159 26.9943 10.6047 27.7498C 11.4378 28.5051 12.5928 29.2214 14.0078 29.846C 16.8378 31.0953 20.7088 32 25 32C 29.2912 32 33.1622 31.0953 35.9922 29.846C 37.4072 29.2214 38.5622 28.5051 39.3953 27.7498C 40.2284 26.9943 40.7906 26.1804 40.7906 25.2304L 40.7906 15.4605L 49.6899 11.6527C 50.1034 11.479 50.1034 10.6723 49.6899 10.4987L 25.1872 0.0365315C 25.0262 -0.0418732 24.8295 0.0291465 24.8128 0.0365315L 24.8128 0.0365315ZM 25 1.26738L 47.9713 11.0757L 25 20.8839L 2.02874 11.0757L 25 1.26738ZM 10.2984 15.9221L 24.8128 22.1148C 24.9324 22.164 25.0676 22.164 25.1872 22.1148L 39.7016 15.9221L 39.7016 25.2304C 39.7016 25.5685 39.4205 26.1481 38.7147 26.7881C 38.0089 27.4281 36.9415 28.1003 35.6008 28.6921C 32.9193 29.8759 29.1552 30.7692 25 30.7692C 20.8448 30.7692 17.0807 29.8759 14.3992 28.6921C 13.0584 28.1003 11.9911 27.4281 11.2853 26.7881C 10.5795 26.1481 10.2984 25.5685 10.2984 25.2304L 10.2984 15.9221Z"/>
<path id="path1_stroke_2x" d="M 0.310122 10.4987L 0.697252 11.4208L 0.702807 11.4184L 0.310122 10.4987ZM 0.310122 11.6527L 0.704168 10.7335L 0.697245 10.7306L 0.310122 11.6527ZM 3.76435 13.1336L 4.76435 13.1336L 4.76435 12.4742L 4.15838 12.2145L 3.76435 13.1336ZM 3.76435 20.48L 4.31248 21.3164L 4.76435 21.0203L 4.76435 20.48L 3.76435 20.48ZM 4.85335 20.48L 3.85335 20.48L 3.85335 21.0203L 4.30523 21.3164L 4.85335 20.48ZM 4.85335 13.5951L 5.24702 12.6759L 3.85335 12.079L 3.85335 13.5951L 4.85335 13.5951ZM 9.20939 15.4605L 10.2094 15.4605L 10.2094 14.8009L 9.60305 14.5413L 9.20939 15.4605ZM 10.6047 27.7498L 9.93294 28.4906L 9.93297 28.4906L 10.6047 27.7498ZM 14.0078 29.846L 14.4117 28.9312L 14.4117 28.9312L 14.0078 29.846ZM 35.9922 29.846L 35.5883 28.9312L 35.5883 28.9312L 35.9922 29.846ZM 39.3953 27.7498L 40.067 28.4906L 40.0671 28.4906L 39.3953 27.7498ZM 40.7906 15.4605L 40.3972 14.5412L 39.7906 14.8007L 39.7906 15.4605L 40.7906 15.4605ZM 49.6899 11.6527L 49.3028 10.7306L 49.2965 10.7333L 49.6899 11.6527ZM 49.6899 10.4987L 49.2972 11.4184L 49.3028 11.4208L 49.6899 10.4987ZM 25.1872 0.0365315L 24.7494 0.9356L 24.7717 0.946462L 24.7945 0.956205L 25.1872 0.0365315ZM 25 1.26738L 25.3927 0.347702L 25 0.180032L 24.6073 0.347702L 25 1.26738ZM 47.9713 11.0757L 48.3639 11.9954L 50.5178 11.0757L 48.3639 10.156L 47.9713 11.0757ZM 25 20.8839L 24.6073 21.8036L 25 21.9713L 25.3927 21.8036L 25 20.8839ZM 2.02874 11.0757L 1.63606 10.156L -0.517843 11.0757L 1.63606 11.9954L 2.02874 11.0757ZM 10.2984 15.9221L 10.6908 15.0023L 9.29839 14.4082L 9.29839 15.9221L 10.2984 15.9221ZM 24.8128 22.1148L 24.4203 23.0346L 24.4322 23.0395L 24.8128 22.1148ZM 25.1872 22.1148L 25.5678 23.0396L 25.5796 23.0346L 25.1872 22.1148ZM 39.7016 15.9221L 40.7016 15.9221L 40.7016 14.4082L 39.3092 15.0023L 39.7016 15.9221ZM 38.7147 26.7881L 38.043 26.0473L 38.0429 26.0473L 38.7147 26.7881ZM 35.6008 28.6921L 36.0047 29.6069L 36.0047 29.6069L 35.6008 28.6921ZM 14.3992 28.6921L 14.803 27.7773L 14.803 27.7773L 14.3992 28.6921ZM 11.2853 26.7881L 11.9571 26.0473L 11.957 26.0473L 11.2853 26.7881ZM 24.4201 -0.883142L -0.0825617 9.57907L 0.702807 11.4184L 25.2055 0.956205L 24.4201 -0.883142ZM -0.077 9.57671C -0.81651 9.8872 -1 10.638 -1 11.0757C -1 11.5134 -0.81651 12.2642 -0.077 12.5747L 0.697245 10.7306C 0.860101 10.799 0.940636 10.914 0.970877 10.9742C 0.999237 11.0305 1 11.0659 1 11.0757C 1 11.0855 0.999237 11.1209 0.970877 11.1772C 0.940636 11.2374 0.860101 11.3524 0.697245 11.4208L -0.077 9.57671ZM -0.0839125 12.5717L 3.37031 14.0526L 4.15838 12.2145L 0.704157 10.7336L -0.0839125 12.5717ZM 2.76435 13.1336L 2.76435 20.48L 4.76435 20.48L 4.76435 13.1336L 2.76435 13.1336ZM 3.21622 19.6436C 2.59707 20.0494 2.21984 20.7603 2.21984 21.5378L 4.21984 21.5378C 4.21984 21.405 4.2816 21.3367 4.31248 21.3164L 3.21622 19.6436ZM 2.21984 21.5378C 2.21984 22.6514 3.04363 23.7687 4.30885 23.7687L 4.30885 21.7687C 4.32695 21.7687 4.31758 21.7792 4.28775 21.7455C 4.25627 21.7099 4.21984 21.6394 4.21984 21.5378L 2.21984 21.5378ZM 4.30885 23.7687C 5.57407 23.7687 6.39786 22.6514 6.39786 21.5378L 4.39786 21.5378C 4.39786 21.6394 4.36143 21.7099 4.32995 21.7455C 4.30012 21.7792 4.29075 21.7687 4.30885 21.7687L 4.30885 23.7687ZM 6.39786 21.5378C 6.39786 20.7603 6.02063 20.0494 5.40148 19.6436L 4.30523 21.3164C 4.3361 21.3367 4.39786 21.405 4.39786 21.5378L 6.39786 21.5378ZM 5.85335 20.48L 5.85335 13.5951L 3.85335 13.5951L 3.85335 20.48L 5.85335 20.48ZM 4.45969 14.5144L 8.81572 16.3798L 9.60305 14.5413L 5.24702 12.6759L 4.45969 14.5144ZM 8.20939 15.4605L 8.20939 25.2304L 10.2094 25.2304L 10.2094 15.4605L 8.20939 15.4605ZM 8.20939 25.2304C 8.20939 26.607 9.02934 27.6712 9.93294 28.4906L 11.2764 27.009C 10.5138 26.3175 10.2094 25.7538 10.2094 25.2304L 8.20939 25.2304ZM 9.93297 28.4906C 10.8359 29.3038 12.1263 30.1059 13.604 30.7608L 14.4117 28.9312C 13.0594 28.3369 12.0396 27.7065 11.2764 27.009L 9.93297 28.4906ZM 13.604 30.7608C 16.5207 32.0437 20.5943 32.9934 25 33L 25 31C 20.8234 31.0066 17.1549 30.1469 14.4117 28.9312L 13.604 30.7608ZM 25 33C 29.4057 32.9934 33.4793 32.0437 36.396 30.7608L 35.5883 28.9312C 32.8451 30.1469 29.1766 31.0066 25 31L 25 33ZM 36.396 30.7608C 37.8737 30.1059 39.1641 29.3038 40.067 28.4906L 38.7236 27.009C 37.9604 27.7065 36.9406 28.3369 35.5883 28.9312L 36.396 30.7608ZM 40.0671 28.4906C 40.9707 27.6712 41.7906 26.607 41.7906 25.2304L 39.7906 25.2304C 39.7906 25.7538 39.4862 26.3175 38.7236 27.009L 40.0671 28.4906ZM 41.7906 25.2304L 41.7906 15.4605L 39.7906 15.4605L 39.7906 25.2304L 41.7906 25.2304ZM 41.184 16.3799L 50.0833 12.572L 49.2965 10.7333L 40.3972 14.5412L 41.184 16.3799ZM 50.077 12.5747C 50.8165 12.2642 51 11.5134 51 11.0757C 51 10.638 50.8165 9.8872 50.077 9.57671L 49.3028 11.4208C 49.1399 11.3524 49.0594 11.2374 49.0291 11.1772C 49.0008 11.1209 49 11.0855 49 11.0757C 49 11.0659 49.0008 11.0305 49.0291 10.9742C 49.0594 10.914 49.1399 10.799 49.3028 10.7306L 50.077 12.5747ZM 50.0826 9.57907L 25.5799 -0.883142L 24.7945 0.956205L 49.2972 11.4184L 50.0826 9.57907ZM 25.625 -0.862537C 25.3414 -0.974741 24.9657 -1.00319 24.8225 -0.987997C 24.6532 -0.966953 24.505 -0.920861 24.4076 -0.877691L 25.218 0.950754C 25.1811 0.967111 25.1545 0.976079 25.151 0.977272C 25.1544 0.976192 25.1174 0.987738 25.1233 0.985922C 25.1088 0.989953 25.0912 0.993996 25.0693 0.996717C 25.0434 0.99994 24.9126 1.01507 24.7494 0.9356L 25.625 -0.862537ZM 24.6073 2.18705L 47.5786 11.9954L 48.3639 10.156L 25.3927 0.347702L 24.6073 2.18705ZM 47.5786 10.156L 24.6073 19.9643L 25.3927 21.8036L 48.3639 11.9954L 47.5786 10.156ZM 25.3927 19.9643L 2.42142 10.156L 1.63606 11.9954L 24.6073 21.8036L 25.3927 19.9643ZM 2.42142 11.9954L 25.3927 2.18705L 24.6073 0.347702L 1.63606 10.156L 2.42142 11.9954ZM 9.90596 16.8419L 24.4204 23.0346L 25.2052 21.195L 10.6908 15.0023L 9.90596 16.8419ZM 24.4322 23.0395C 24.7956 23.1891 25.2044 23.1891 25.5678 23.0395L 24.8066 21.19C 24.9308 21.1389 25.0692 21.1389 25.1934 21.19L 24.4322 23.0395ZM 25.5796 23.0346L 40.094 16.8419L 39.3092 15.0023L 24.7948 21.195L 25.5796 23.0346ZM 38.7016 15.9221L 38.7016 25.2304L 40.7016 25.2304L 40.7016 15.9221L 38.7016 15.9221ZM 38.7016 25.2304C 38.7016 25.1518 38.7221 25.2015 38.6128 25.3858C 38.5141 25.5522 38.336 25.7816 38.043 26.0473L 39.3864 27.5289C 40.1567 26.8305 40.7016 25.9998 40.7016 25.2304L 38.7016 25.2304ZM 38.0429 26.0473C 37.4043 26.6316 36.4719 27.2174 35.197 27.7773L 36.0047 29.6069C 37.4111 28.9831 38.6135 28.2247 39.3865 27.5289L 38.0429 26.0473ZM 35.197 27.7773C 32.6006 28.928 29.0389 29.7759 25 29.7692L 25 31.7692C 29.2714 31.7624 33.238 30.8237 36.0047 29.6069L 35.197 27.7773ZM 25 29.7692C 20.9611 29.7759 17.3994 28.928 14.803 27.7773L 13.9953 29.6069C 16.762 30.8237 20.7286 31.7624 25 31.7692L 25 29.7692ZM 14.803 27.7773C 13.528 27.2174 12.5957 26.6316 11.9571 26.0473L 10.6135 27.5289C 11.3865 28.2247 12.5888 28.9831 13.9953 29.6069L 14.803 27.7773ZM 11.957 26.0473C 11.664 25.7816 11.4859 25.5522 11.3872 25.3858C 11.2779 25.2015 11.2984 25.1518 11.2984 25.2304L 9.29839 25.2304C 9.29839 25.9998 9.84332 26.8305 10.6136 27.5289L 11.957 26.0473ZM 11.2984 25.2304L 11.2984 15.9221L 9.29839 15.9221L 9.29839 25.2304L 11.2984 25.2304Z"/>
</defs>
</svg>
