<svg width="138" height="84" viewBox="0 0 138 84" version="1.1" xmlns="http://www.w3.org/2000/svg" xmlns:xlink="http://www.w3.org/1999/xlink">
<title>education-fixed</title>
<desc>Created using Figma</desc>
<g id="Canvas" transform="matrix(2 0 0 2 -2824 -352)">
<g id="education-fixed">
<g id="Group">
<g id="Vector">
<use xlink:href="#path0_fill" transform="translate(1412 176)" fill="#496274"/>
</g>
</g>
</g>
</g>
<defs>
<path id="path0_fill" d="M 35.3202 0.134948L 67.5645 12.8867C 68.4038 13.2127 69 14.084 69 14.9846C 69 15.8852 68.4038 16.7566 67.5645 17.0826L 65.2446 17.9967L 65.2446 26.2947C 66.144 26.9841 66.7443 28.0447 66.7443 29.2483C 66.7443 31.2974 65.0435 32.9988 62.995 32.9988C 60.9465 32.9988 59.2456 31.2974 59.2456 29.2483C 59.2456 28.0447 59.846 26.9841 60.7454 26.2947L 60.7454 19.7782L 56.996 21.255L 56.996 32.2487C 56.996 34.1126 55.8887 35.4004 54.6058 36.468C 53.323 37.5356 51.6713 38.4526 49.6848 39.2574C 45.712 40.8672 40.3997 42 34.5 42C 28.6003 42 23.2881 40.8672 19.3152 39.2574C 17.3287 38.4526 15.677 37.5356 14.3942 36.468C 13.1113 35.4004 12.004 34.1126 12.004 32.2487L 12.004 21.255L 1.43547 17.0826C 0.59622 16.7566 5.03863e-08 15.8852 5.03863e-08 14.9846C 5.03863e-08 14.084 0.59622 13.2127 1.43547 12.8867L 33.6798 0.134948C 34.287 -0.0873595 34.9283 0.00299773 35.3202 0.134948ZM 34.5 4.659L 8.37175 14.9963L 34.5 25.3102L 60.6283 14.9963L 34.5 4.659ZM 52.4968 23.0365L 35.3202 29.8343C 34.799 30.0384 34.201 30.0384 33.6798 29.8343L 16.5032 23.0365L 16.5032 32.2487C 16.5032 31.9549 16.5159 32.3656 17.2764 32.9988C 18.0373 33.6319 19.3528 34.4071 21.0258 35.085C 24.372 36.4408 29.1832 37.4994 34.5 37.4994C 39.8168 37.4994 44.628 36.4408 47.9742 35.085C 49.6472 34.4071 50.9628 33.6319 51.7236 32.9988C 52.2941 32.5239 52.4576 32.1761 52.4968 32.1549L 52.4968 23.0365Z"/>
</defs>
</svg>
