<svg width="121" height="121" viewBox="0 0 121 121" version="1.1" xmlns="http://www.w3.org/2000/svg" xmlns:xlink="http://www.w3.org/1999/xlink">
<title>noun_984574_cc</title>
<desc>Created using Figma</desc>
<g id="Canvas" transform="translate(-1758 -273)">
<g id="noun_984574_cc">
<g id="Vector">
<use xlink:href="#path0_fill" transform="translate(1758 273)" fill="#496274"/>
</g>
</g>
</g>
<defs>
<path id="path0_fill" d="M 60.7839 3.65153e-09L 60.5003 3.65153e-09C 52.5315 -8.75457e-05 44.6411 1.57414 37.2824 4.63227C 29.9237 7.6904 23.2417 12.1722 17.62 17.8202C 11.9984 23.4682 7.54794 30.1712 4.52428 37.5441C 1.50061 44.9171 -0.0366892 52.8148 0.000664731 60.7836C 0.151914 93.983 28.0007 121 62.0695 121L 64.2816 121C 66.2872 121 68.2108 120.203 69.629 118.785C 71.0473 117.367 71.844 115.443 71.844 113.438C 71.844 111.432 71.0473 109.508 69.629 108.09C 68.2108 106.672 66.2872 105.875 64.2816 105.875L 62.0695 105.875C 36.3005 105.875 15.239 85.6075 15.1256 60.708C 15.0982 54.7318 16.2516 48.809 18.5197 43.2798C 20.7877 37.7507 24.1256 32.724 28.3418 28.4885C 32.558 24.253 37.5693 20.8921 43.088 18.5988C 48.6067 16.3055 54.5241 15.1249 60.5003 15.125L 60.7083 15.125C 85.6077 15.2384 105.875 36.3 105.875 62.0692L 105.875 79.4062C 105.875 81.4119 105.078 83.3355 103.66 84.7537C 102.242 86.172 100.318 86.9688 98.3126 86.9688C 96.3069 86.9688 94.3834 86.172 92.9652 84.7537C 91.5469 83.3355 90.7502 81.4119 90.7502 79.4062L 90.7502 60.5C 90.7729 53.7633 88.5533 47.2105 84.441 41.8745C 80.3288 36.5385 74.5578 32.7227 68.0376 31.0284C 61.5175 29.334 54.6189 29.8577 48.4291 32.5166C 42.2393 35.1756 37.1104 39.8188 33.8506 45.7143C 30.5908 51.6099 29.3856 58.4226 30.4249 65.0787C 31.4641 71.7348 34.6888 77.8558 39.5906 82.477C 44.4924 87.0983 50.7926 89.9569 57.4984 90.6024C 64.2041 91.2479 70.9339 89.6436 76.6273 86.0423C 78.2232 91.2327 81.6278 95.6784 86.2227 98.5721C 90.8176 101.466 96.2979 102.615 101.668 101.812C 107.039 101.009 111.943 98.3064 115.49 94.1951C 119.037 90.0837 120.992 84.8364 121 79.4062L 121 62.0692C 121 28.0002 93.9831 0.15125 60.7839 3.65153e-09ZM 60.5003 75.625C 57.5089 75.625 54.5847 74.7379 52.0974 73.076C 49.6101 71.414 47.6715 69.0518 46.5267 66.2881C 45.382 63.5244 45.0824 60.4832 45.666 57.5493C 46.2496 54.6153 47.6901 51.9203 49.8054 49.805C 51.9207 47.6897 54.6157 46.2492 57.5496 45.6656C 60.4836 45.082 63.5247 45.3815 66.2884 46.5263C 69.0521 47.6711 71.4143 49.6097 73.0762 52.097C 74.7382 54.5843 75.6252 57.5086 75.6252 60.5C 75.6252 64.5114 74.0317 68.3585 71.1953 71.195C 68.3588 74.0315 64.5117 75.625 60.5003 75.625Z"/>
</defs>
</svg>
