<svg width="102" height="90" viewBox="0 0 102 90" version="1.1" xmlns="http://www.w3.org/2000/svg" xmlns:xlink="http://www.w3.org/1999/xlink">
<title>gigeconomy-fixed</title>
<desc>Created using Figma</desc>
<g id="Canvas" transform="matrix(2 0 0 2 -2848 -696)">
<g id="gigeconomy-fixed">
<g id="Vector">
<use xlink:href="#path0_fill" transform="translate(1424 348)" fill="#496274"/>
</g>
</g>
</g>
<defs>
<path id="path0_fill" d="M 48.7986 18.6164L 45.5176 16.9395L 42.9407 9.98878C 42.6481 9.20566 42.122 8.52959 41.4323 8.05063C 40.7427 7.57168 39.9224 7.31258 39.0806 7.30786L 32.675 7.30786L 32.675 1.29388C 32.675 0.950724 32.5376 0.62162 32.293 0.37897C 32.0485 0.136319 31.7168 4.5968e-16 31.3709 0L 7.51149 0C 7.16744 0.00273099 6.83842 0.140255 6.59611 0.38261C 6.3538 0.624965 6.21784 0.95251 6.21785 1.29388L 6.21785 4.50271C 6.21785 4.84587 6.35524 5.17498 6.5998 5.41763C 6.84437 5.66028 7.17606 5.7966 7.52193 5.7966C 7.86779 5.7966 8.19949 5.66028 8.44405 5.41763C 8.68861 5.17498 8.82601 4.84587 8.82601 4.50271L 8.82601 2.58259L 30.0668 2.58259L 30.0668 28.1601L 8.82601 28.1601L 8.82601 26.24C 8.82601 25.8968 8.68861 25.5677 8.44405 25.325C 8.19949 25.0824 7.86779 24.9461 7.52193 24.9461C 7.17606 24.9461 6.84437 25.0824 6.5998 25.325C 6.35524 25.5677 6.21785 25.8968 6.21785 26.24L 6.21785 39.1788C 6.21785 39.522 6.35524 39.8511 6.5998 40.0937C 6.84437 40.3364 7.17606 40.4727 7.52193 40.4727L 12.3418 40.4727C 12.6416 41.7597 13.3721 42.908 14.4142 43.7302C 15.4563 44.5524 16.7484 45 18.0797 45C 19.4111 45 20.7032 44.5524 21.7453 43.7302C 22.7874 42.908 23.5179 41.7597 23.8177 40.4727L 33.3427 40.4727C 33.646 41.7589 34.3797 42.9052 35.424 43.7246C 36.4683 44.544 37.7617 44.9882 39.0931 44.9845C 40.4245 44.9809 41.7154 44.5298 42.7552 43.7048C 43.795 42.8798 44.5223 41.7295 44.8186 40.4416C 44.9128 40.4625 45.009 40.4729 45.1055 40.4727L 49.6958 40.4727C 50.0417 40.4727 50.3734 40.3364 50.618 40.0937C 50.8625 39.8511 50.9999 39.522 50.9999 39.1788L 50.9999 22.2548C 51.0048 21.5063 50.8021 20.7709 50.4138 20.1292C 50.0255 19.4874 49.4667 18.964 48.7986 18.6164L 48.7986 18.6164ZM 32.675 9.89562L 39.0806 9.89562C 39.3913 9.89665 39.6942 9.9919 39.9487 10.1686C 40.2032 10.3453 40.3972 10.595 40.5047 10.8841L 43.2537 18.3059C 43.3662 18.61 43.5895 18.8611 43.8796 19.0097L 47.6093 20.9143C 47.858 21.0405 48.0667 21.2325 48.2122 21.4691C 48.3576 21.7057 48.4342 21.9776 48.4335 22.2548L 48.4335 28.1601L 32.675 28.1601L 32.675 9.89562ZM 18.0693 42.4394C 17.4194 42.4394 16.784 42.2482 16.2436 41.8899C 15.7031 41.5316 15.2819 41.0224 15.0332 40.4266C 14.7845 39.8308 14.7194 39.1752 14.8462 38.5427C 14.973 37.9102 15.286 37.3292 15.7456 36.8732C 16.2052 36.4172 16.7907 36.1067 17.4282 35.9809C 18.0657 35.855 18.7264 35.9196 19.3269 36.1664C 19.9274 36.4132 20.4407 36.8311 20.8018 37.3673C 21.1629 37.9035 21.3556 38.5339 21.3556 39.1788C 21.3556 40.0431 21.0102 40.8722 20.3952 41.4844C 19.7802 42.0965 18.9457 42.4418 18.0745 42.4446L 18.0693 42.4394ZM 39.0963 42.4394C 38.4463 42.4394 37.8109 42.2482 37.2705 41.8899C 36.7301 41.5316 36.3089 41.0224 36.0602 40.4266C 35.8114 39.8308 35.7463 39.1752 35.8731 38.5427C 35.9999 37.9102 36.3129 37.3292 36.7725 36.8732C 37.2321 36.4172 37.8177 36.1067 38.4552 35.9809C 39.0926 35.855 39.7534 35.9196 40.3539 36.1664C 40.9544 36.4132 41.4676 36.8311 41.8287 37.3673C 42.1898 37.9035 42.3826 38.5339 42.3826 39.1788C 42.3826 39.6085 42.2971 40.034 42.131 40.4309C 41.9649 40.8278 41.7216 41.1883 41.4148 41.4917C 41.1081 41.7951 40.744 42.0354 40.3434 42.1989C 39.9429 42.3625 39.5138 42.4459 39.0806 42.4446L 39.0963 42.4394ZM 48.4231 37.8849L 45.1368 37.8849C 45.0403 37.8847 44.9441 37.8951 44.8499 37.916C 44.5536 36.6281 43.8263 35.4778 42.7865 34.6528C 41.7467 33.8278 40.4558 33.3766 39.1244 33.373C 37.793 33.3694 36.4996 33.8136 35.4553 34.633C 34.411 35.4523 33.6773 36.5987 33.374 37.8849L 23.8177 37.8849C 23.5179 36.5979 22.7874 35.4496 21.7453 34.6274C 20.7032 33.8052 19.4111 33.3576 18.0797 33.3576C 16.7484 33.3576 15.4563 33.8052 14.4142 34.6274C 13.3721 35.4496 12.6416 36.5979 12.3418 37.8849L 8.82601 37.8849L 8.82601 30.7479L 48.4283 30.7479L 48.4231 37.8849ZM 1.30408 11.0342C 0.958216 11.0342 0.626518 10.8979 0.381956 10.6553C 0.137394 10.4126 2.2386e-08 10.0835 2.2386e-08 9.74036C 2.2386e-08 9.3972 0.137394 9.06809 0.381956 8.82544C 0.626518 8.58279 0.958216 8.44647 1.30408 8.44647L 12.5661 8.44647C 12.912 8.44647 13.2437 8.58279 13.4882 8.82544C 13.7328 9.06809 13.8702 9.3972 13.8702 9.74036C 13.8702 10.0835 13.7328 10.4126 13.4882 10.6553C 13.2437 10.8979 12.912 11.0342 12.5661 11.0342L 1.30408 11.0342ZM 13.8702 15.3713C 13.8702 15.7145 13.7328 16.0436 13.4882 16.2863C 13.2437 16.5289 12.912 16.6652 12.5661 16.6652L 3.3906 16.6652C 3.04474 16.6652 2.71304 16.5289 2.46848 16.2863C 2.22392 16.0436 2.08653 15.7145 2.08653 15.3713C 2.08653 15.0282 2.22392 14.6991 2.46848 14.4564C 2.71304 14.2138 3.04474 14.0775 3.3906 14.0775L 12.5661 14.0775C 12.912 14.0775 13.2437 14.2138 13.4882 14.4564C 13.7328 14.6991 13.8702 15.0282 13.8702 15.3713ZM 13.8702 21.0023C 13.8702 21.3455 13.7328 21.6746 13.4882 21.9172C 13.2437 22.1599 12.912 22.2962 12.5661 22.2962L 5.47713 22.2962C 5.13127 22.2962 4.79957 22.1599 4.55501 21.9172C 4.31045 21.6746 4.17305 21.3455 4.17305 21.0023C 4.17305 20.6592 4.31045 20.3301 4.55501 20.0874C 4.79957 19.8448 5.13127 19.7084 5.47713 19.7084L 12.5661 19.7084C 12.912 19.7084 13.2437 19.8448 13.4882 20.0874C 13.7328 20.3301 13.8702 20.6592 13.8702 21.0023L 13.8702 21.0023Z"/>
</defs>
</svg>
