<svg width="106" height="94" viewBox="0 0 106 94" version="1.1" xmlns="http://www.w3.org/2000/svg" xmlns:xlink="http://www.w3.org/1999/xlink">
<title>noun_1002257_cc</title>
<desc>Created using Figma</desc>
<g id="Canvas" transform="matrix(2 0 0 2 -2846 -694)">
<g id="noun_1002257_cc">
<g id="Vector">
<use xlink:href="#path0_fill" transform="translate(1424 348)" fill="#496274"/>
<mask id="mask0_outline_out">
<rect id="mask0_outline_inv" fill="white" x="-1" y="-1" width="53" height="47" transform="translate(1424 348)"/>
<use xlink:href="#path0_fill" fill="black" transform="translate(1424 348)"/>
</mask>
<g mask="url(#mask0_outline_out)">
<use xlink:href="#path1_stroke_2x" transform="translate(1424 348)" fill="#496274"/>
</g>
</g>
</g>
</g>
<defs>
<path id="path0_fill" d="M 48.7986 18.6164L 45.5176 16.9395L 42.9407 9.98878C 42.6481 9.20566 42.122 8.52959 41.4323 8.05063C 40.7427 7.57168 39.9224 7.31258 39.0806 7.30786L 32.675 7.30786L 32.675 1.29388C 32.675 0.950724 32.5376 0.62162 32.293 0.37897C 32.0485 0.136319 31.7168 4.5968e-16 31.3709 0L 7.51149 0C 7.16744 0.00273099 6.83842 0.140255 6.59611 0.38261C 6.3538 0.624965 6.21784 0.95251 6.21785 1.29388L 6.21785 4.50271C 6.21785 4.84587 6.35524 5.17498 6.5998 5.41763C 6.84437 5.66028 7.17606 5.7966 7.52193 5.7966C 7.86779 5.7966 8.19949 5.66028 8.44405 5.41763C 8.68861 5.17498 8.82601 4.84587 8.82601 4.50271L 8.82601 2.58259L 30.0668 2.58259L 30.0668 28.1601L 8.82601 28.1601L 8.82601 26.24C 8.82601 25.8968 8.68861 25.5677 8.44405 25.325C 8.19949 25.0824 7.86779 24.9461 7.52193 24.9461C 7.17606 24.9461 6.84437 25.0824 6.5998 25.325C 6.35524 25.5677 6.21785 25.8968 6.21785 26.24L 6.21785 39.1788C 6.21785 39.522 6.35524 39.8511 6.5998 40.0937C 6.84437 40.3364 7.17606 40.4727 7.52193 40.4727L 12.3418 40.4727C 12.6416 41.7597 13.3721 42.908 14.4142 43.7302C 15.4563 44.5524 16.7484 45 18.0797 45C 19.4111 45 20.7032 44.5524 21.7453 43.7302C 22.7874 42.908 23.5179 41.7597 23.8177 40.4727L 33.3427 40.4727C 33.646 41.7589 34.3797 42.9052 35.424 43.7246C 36.4683 44.544 37.7617 44.9882 39.0931 44.9845C 40.4245 44.9809 41.7154 44.5298 42.7552 43.7048C 43.795 42.8798 44.5223 41.7295 44.8186 40.4416C 44.9128 40.4625 45.009 40.4729 45.1055 40.4727L 49.6958 40.4727C 50.0417 40.4727 50.3734 40.3364 50.618 40.0937C 50.8625 39.8511 50.9999 39.522 50.9999 39.1788L 50.9999 22.2548C 51.0048 21.5063 50.8021 20.7709 50.4138 20.1292C 50.0255 19.4874 49.4667 18.964 48.7986 18.6164L 48.7986 18.6164ZM 32.675 9.89562L 39.0806 9.89562C 39.3913 9.89665 39.6942 9.9919 39.9487 10.1686C 40.2032 10.3453 40.3972 10.595 40.5047 10.8841L 43.2537 18.3059C 43.3662 18.61 43.5895 18.8611 43.8796 19.0097L 47.6093 20.9143C 47.858 21.0405 48.0667 21.2325 48.2122 21.4691C 48.3576 21.7057 48.4342 21.9776 48.4335 22.2548L 48.4335 28.1601L 32.675 28.1601L 32.675 9.89562ZM 18.0693 42.4394C 17.4194 42.4394 16.784 42.2482 16.2436 41.8899C 15.7031 41.5316 15.2819 41.0224 15.0332 40.4266C 14.7845 39.8308 14.7194 39.1752 14.8462 38.5427C 14.973 37.9102 15.286 37.3292 15.7456 36.8732C 16.2052 36.4172 16.7907 36.1067 17.4282 35.9809C 18.0657 35.855 18.7264 35.9196 19.3269 36.1664C 19.9274 36.4132 20.4407 36.8311 20.8018 37.3673C 21.1629 37.9035 21.3556 38.5339 21.3556 39.1788C 21.3556 40.0431 21.0102 40.8722 20.3952 41.4844C 19.7802 42.0965 18.9457 42.4418 18.0745 42.4446L 18.0693 42.4394ZM 39.0963 42.4394C 38.4463 42.4394 37.8109 42.2482 37.2705 41.8899C 36.7301 41.5316 36.3089 41.0224 36.0602 40.4266C 35.8114 39.8308 35.7463 39.1752 35.8731 38.5427C 35.9999 37.9102 36.3129 37.3292 36.7725 36.8732C 37.2321 36.4172 37.8177 36.1067 38.4552 35.9809C 39.0926 35.855 39.7534 35.9196 40.3539 36.1664C 40.9544 36.4132 41.4676 36.8311 41.8287 37.3673C 42.1898 37.9035 42.3826 38.5339 42.3826 39.1788C 42.3826 39.6085 42.2971 40.034 42.131 40.4309C 41.9649 40.8278 41.7216 41.1883 41.4148 41.4917C 41.1081 41.7951 40.744 42.0354 40.3434 42.1989C 39.9429 42.3625 39.5138 42.4459 39.0806 42.4446L 39.0963 42.4394ZM 48.4231 37.8849L 45.1368 37.8849C 45.0403 37.8847 44.9441 37.8951 44.8499 37.916C 44.5536 36.6281 43.8263 35.4778 42.7865 34.6528C 41.7467 33.8278 40.4558 33.3766 39.1244 33.373C 37.793 33.3694 36.4996 33.8136 35.4553 34.633C 34.411 35.4523 33.6773 36.5987 33.374 37.8849L 23.8177 37.8849C 23.5179 36.5979 22.7874 35.4496 21.7453 34.6274C 20.7032 33.8052 19.4111 33.3576 18.0797 33.3576C 16.7484 33.3576 15.4563 33.8052 14.4142 34.6274C 13.3721 35.4496 12.6416 36.5979 12.3418 37.8849L 8.82601 37.8849L 8.82601 30.7479L 48.4283 30.7479L 48.4231 37.8849ZM 1.30408 11.0342C 0.958216 11.0342 0.626518 10.8979 0.381956 10.6553C 0.137394 10.4126 2.2386e-08 10.0835 2.2386e-08 9.74036C 2.2386e-08 9.3972 0.137394 9.06809 0.381956 8.82544C 0.626518 8.58279 0.958216 8.44647 1.30408 8.44647L 12.5661 8.44647C 12.912 8.44647 13.2437 8.58279 13.4882 8.82544C 13.7328 9.06809 13.8702 9.3972 13.8702 9.74036C 13.8702 10.0835 13.7328 10.4126 13.4882 10.6553C 13.2437 10.8979 12.912 11.0342 12.5661 11.0342L 1.30408 11.0342ZM 13.8702 15.3713C 13.8702 15.7145 13.7328 16.0436 13.4882 16.2863C 13.2437 16.5289 12.912 16.6652 12.5661 16.6652L 3.3906 16.6652C 3.04474 16.6652 2.71304 16.5289 2.46848 16.2863C 2.22392 16.0436 2.08653 15.7145 2.08653 15.3713C 2.08653 15.0282 2.22392 14.6991 2.46848 14.4564C 2.71304 14.2138 3.04474 14.0775 3.3906 14.0775L 12.5661 14.0775C 12.912 14.0775 13.2437 14.2138 13.4882 14.4564C 13.7328 14.6991 13.8702 15.0282 13.8702 15.3713ZM 13.8702 21.0023C 13.8702 21.3455 13.7328 21.6746 13.4882 21.9172C 13.2437 22.1599 12.912 22.2962 12.5661 22.2962L 5.47713 22.2962C 5.13127 22.2962 4.79957 22.1599 4.55501 21.9172C 4.31045 21.6746 4.17305 21.3455 4.17305 21.0023C 4.17305 20.6592 4.31045 20.3301 4.55501 20.0874C 4.79957 19.8448 5.13127 19.7084 5.47713 19.7084L 12.5661 19.7084C 12.912 19.7084 13.2437 19.8448 13.4882 20.0874C 13.7328 20.3301 13.8702 20.6592 13.8702 21.0023L 13.8702 21.0023Z"/>
<path id="path1_stroke_2x" d="M 45.5176 16.9395L 45.0487 17.1133L 45.1165 17.2961L 45.29 17.3847L 45.5176 16.9395ZM 42.9407 9.98878L 43.4095 9.81497L 43.4091 9.81378L 42.9407 9.98878ZM 41.4323 8.05063L 41.7176 7.63996L 41.4323 8.05063ZM 39.0806 7.30786L 39.0834 6.80786L 39.0806 6.80786L 39.0806 7.30786ZM 32.675 7.30786L 32.175 7.30786L 32.175 7.80786L 32.675 7.80786L 32.675 7.30786ZM 31.3709 0L 31.3709 -0.5L 31.3709 0ZM 7.51149 0L 7.51149 -0.500016L 7.50753 -0.499984L 7.51149 0ZM 6.21785 1.29388L 6.71785 1.29388L 6.71785 1.29387L 6.21785 1.29388ZM 8.82601 2.58259L 8.82601 2.08259L 8.32601 2.08259L 8.32601 2.58259L 8.82601 2.58259ZM 30.0668 2.58259L 30.5668 2.58259L 30.5668 2.08259L 30.0668 2.08259L 30.0668 2.58259ZM 30.0668 28.1601L 30.0668 28.6601L 30.5668 28.6601L 30.5668 28.1601L 30.0668 28.1601ZM 8.82601 28.1601L 8.32601 28.1601L 8.32601 28.6601L 8.82601 28.6601L 8.82601 28.1601ZM 12.3418 40.4727L 12.8288 40.3592L 12.7387 39.9727L 12.3418 39.9727L 12.3418 40.4727ZM 23.8177 40.4727L 23.8177 39.9727L 23.4208 39.9727L 23.3307 40.3592L 23.8177 40.4727ZM 33.3427 40.4727L 33.8293 40.3579L 33.7385 39.9727L 33.3427 39.9727L 33.3427 40.4727ZM 44.8186 40.4416L 44.9267 39.9534L 44.4425 39.8463L 44.3313 40.3295L 44.8186 40.4416ZM 45.1055 40.4727L 45.1055 39.9727L 45.1044 39.9727L 45.1055 40.4727ZM 50.9999 39.1788L 51.4999 39.1788L 50.9999 39.1788ZM 50.9999 22.2548L 50.4999 22.2515L 50.4999 22.2548L 50.9999 22.2548ZM 32.675 9.89562L 32.675 9.39562L 32.175 9.39562L 32.175 9.89562L 32.675 9.89562ZM 39.0806 9.89562L 39.0823 9.39562L 39.0806 9.39562L 39.0806 9.89562ZM 40.5047 10.8841L 40.9736 10.7105L 40.9734 10.71L 40.5047 10.8841ZM 43.2537 18.3059L 43.7226 18.1324L 43.7226 18.1322L 43.2537 18.3059ZM 43.8796 19.0097L 43.6517 19.4547L 43.6522 19.455L 43.8796 19.0097ZM 47.6093 20.9143L 47.3819 21.3596L 47.3831 21.3603L 47.6093 20.9143ZM 48.4335 22.2548L 47.9335 22.2534L 47.9335 22.2548L 48.4335 22.2548ZM 48.4335 28.1601L 48.4335 28.6601L 48.9335 28.6601L 48.9335 28.1601L 48.4335 28.1601ZM 32.675 28.1601L 32.175 28.1601L 32.175 28.6601L 32.675 28.6601L 32.675 28.1601ZM 18.0693 42.4394L 18.4215 42.0845L 18.2753 41.9394L 18.0693 41.9394L 18.0693 42.4394ZM 21.3556 39.1788L 20.8556 39.1788L 20.8556 39.1788L 21.3556 39.1788ZM 18.0745 42.4446L 17.7223 42.7994L 17.8692 42.9452L 18.0761 42.9446L 18.0745 42.4446ZM 39.0963 42.4394L 39.2533 42.9141L 39.0963 41.9394L 39.0963 42.4394ZM 42.3826 39.1788L 41.8826 39.1788L 41.8826 39.1788L 42.3826 39.1788ZM 39.0806 42.4446L 38.9236 41.9699L 39.0791 42.9446L 39.0806 42.4446ZM 48.4231 37.8849L 48.4231 38.3849L 48.9227 38.3849L 48.9231 37.8853L 48.4231 37.8849ZM 45.1368 37.8849L 45.1357 38.3849L 45.1368 38.3849L 45.1368 37.8849ZM 44.8499 37.916L 44.3626 38.0281L 44.4738 38.5113L 44.958 38.4041L 44.8499 37.916ZM 33.374 37.8849L 33.374 38.3849L 33.7698 38.3849L 33.8606 37.9997L 33.374 37.8849ZM 23.8177 37.8849L 23.3307 37.9984L 23.4208 38.3849L 23.8177 38.3849L 23.8177 37.8849ZM 12.3418 37.8849L 12.3418 38.3849L 12.7387 38.3849L 12.8288 37.9984L 12.3418 37.8849ZM 8.82601 37.8849L 8.32601 37.8849L 8.32601 38.3849L 8.82601 38.3849L 8.82601 37.8849ZM 8.82601 30.7479L 8.82601 30.2479L 8.32601 30.2479L 8.32601 30.7479L 8.82601 30.7479ZM 48.4283 30.7479L 48.9283 30.7482L 48.9286 30.2479L 48.4283 30.2479L 48.4283 30.7479ZM 0.381956 10.6553L 0.0297926 11.0102L 0.381956 10.6553ZM 0.381956 8.82544L 0.0297926 8.4705L 0.381956 8.82544ZM 1.30408 8.44647L 1.30408 7.94647L 1.30408 8.44647ZM 2.08653 15.3713L 1.58653 15.3713L 2.08653 15.3713ZM 5.47713 22.2962L 5.47713 21.7962L 5.47713 22.2962ZM 12.5661 19.7084L 12.5661 20.2084L 12.5661 19.7084ZM 49.0262 18.1712L 45.7451 16.4943L 45.29 17.3847L 48.5711 19.0616L 49.0262 18.1712ZM 45.9864 16.7657L 43.4095 9.81498L 42.4719 10.1626L 45.0487 17.1133L 45.9864 16.7657ZM 43.4091 9.81378C 43.0846 8.96181 42.4658 8.16657 41.7176 7.63996L 41.1471 8.4613C 41.7781 8.89261 42.2116 9.44951 42.4723 10.1638L 43.4091 9.81378ZM 41.7176 7.63996C 40.9631 7.12287 40 6.81863 39.0834 6.80786L 39.0778 7.80785C 39.8448 7.80653 40.5223 8.02048 41.1471 8.4613L 41.7176 7.63996ZM 39.0806 6.80786L 32.675 6.80786L 32.675 7.80786L 39.0806 7.80786L 39.0806 6.80786ZM 33.175 7.30786L 33.175 1.29388L 32.175 1.29388L 32.175 7.30786L 33.175 7.30786ZM 33.175 1.29388C 33.175 0.816843 32.984 0.360142 32.6452 0.0240316L 31.9409 0.733908C 32.0912 0.883098 32.175 1.08461 32.175 1.29388L 33.175 1.29388ZM 32.6452 0.0240316C 32.3066 -0.311947 31.8481 -0.5 31.3709 -0.5L 31.3709 0.5C 31.5854 0.5 31.7904 0.584586 31.9409 0.733908L 32.6452 0.0240316ZM 31.3709 -0.5L 7.51149 -0.5L 7.51149 0.5L 31.3709 0.5L 31.3709 -0.5ZM 7.50753 -0.499984C 7.03281 -0.496216 6.57804 -0.306492 6.24252 0.0290892L 6.94969 0.736131C 7.09879 0.587003 7.30207 0.501678 7.51546 0.499984L 7.50753 -0.499984ZM 6.24252 0.0290892C 5.90687 0.3648 5.71783 0.819345 5.71785 1.2939L 6.71785 1.29387C 6.71784 1.08568 6.80072 0.88513 6.94969 0.736131L 6.24252 0.0290892ZM 5.71785 1.29388L 5.71785 4.50271L 6.71785 4.50271L 6.71785 1.29388L 5.71785 1.29388ZM 5.71785 4.50271C 5.71785 4.97975 5.90888 5.43646 6.24764 5.77257L 6.95197 5.06269C 6.8016 4.9135 6.71785 4.71199 6.71785 4.50271L 5.71785 4.50271ZM 6.24764 5.77257C 6.58627 6.10855 7.04472 6.2966 7.52193 6.2966L 7.52193 5.2966C 7.30741 5.2966 7.10246 5.21201 6.95197 5.06269L 6.24764 5.77257ZM 7.52193 6.2966C 7.99914 6.2966 8.45759 6.10855 8.79621 5.77257L 8.09189 5.06269C 7.94139 5.21201 7.73644 5.2966 7.52193 5.2966L 7.52193 6.2966ZM 8.79621 5.77257C 9.13497 5.43646 9.32601 4.97975 9.32601 4.50271L 8.32601 4.50271C 8.32601 4.71199 8.24225 4.9135 8.09189 5.06269L 8.79621 5.77257ZM 9.32601 4.50271L 9.32601 2.58259L 8.32601 2.58259L 8.32601 4.50271L 9.32601 4.50271ZM 8.82601 3.08259L 30.0668 3.08259L 30.0668 2.08259L 8.82601 2.08259L 8.82601 3.08259ZM 29.5668 2.58259L 29.5668 28.1601L 30.5668 28.1601L 30.5668 2.58259L 29.5668 2.58259ZM 30.0668 27.6601L 8.82601 27.6601L 8.82601 28.6601L 30.0668 28.6601L 30.0668 27.6601ZM 9.32601 28.1601L 9.32601 26.24L 8.32601 26.24L 8.32601 28.1601L 9.32601 28.1601ZM 9.32601 26.24C 9.32601 25.7629 9.13497 25.3062 8.79621 24.9701L 8.09189 25.68C 8.24225 25.8292 8.32601 26.0307 8.32601 26.24L 9.32601 26.24ZM 8.79621 24.9701C 8.45759 24.6341 7.99914 24.4461 7.52193 24.4461L 7.52193 25.4461C 7.73644 25.4461 7.94139 25.5307 8.09189 25.68L 8.79621 24.9701ZM 7.52193 24.4461C 7.04472 24.4461 6.58627 24.6341 6.24764 24.9701L 6.95197 25.68C 7.10246 25.5307 7.30741 25.4461 7.52193 25.4461L 7.52193 24.4461ZM 6.24764 24.9701C 5.90888 25.3062 5.71785 25.7629 5.71785 26.24L 6.71785 26.24C 6.71785 26.0307 6.8016 25.8292 6.95197 25.68L 6.24764 24.9701ZM 5.71785 26.24L 5.71785 39.1788L 6.71785 39.1788L 6.71785 26.24L 5.71785 26.24ZM 5.71785 39.1788C 5.71785 39.6558 5.90888 40.1125 6.24764 40.4486L 6.95197 39.7388C 6.8016 39.5896 6.71785 39.3881 6.71785 39.1788L 5.71785 39.1788ZM 6.24764 40.4486C 6.58627 40.7846 7.04472 40.9727 7.52193 40.9727L 7.52193 39.9727C 7.30741 39.9727 7.10246 39.8881 6.95197 39.7388L 6.24764 40.4486ZM 7.52193 40.9727L 12.3418 40.9727L 12.3418 39.9727L 7.52193 39.9727L 7.52193 40.9727ZM 11.8548 40.5861C 12.1807 41.9534 13.0011 43.2432 14.1045 44.1227L 14.7239 43.3377C 13.7432 42.5728 13.1026 41.5661 12.8288 40.3592L 11.8548 40.5861ZM 14.1045 44.1227C 15.2162 44.991 16.6654 45.4931 18.0797 45.5L 18.0797 44.5C 16.8313 44.5069 15.6963 44.1138 14.7239 43.3377L 14.1045 44.1227ZM 18.0797 45.5C 19.4941 45.4931 20.9433 44.991 22.055 44.1227L 21.4356 43.3377C 20.4632 44.1138 19.3282 44.5069 18.0797 44.5L 18.0797 45.5ZM 22.055 44.1227C 23.1584 43.2432 23.9788 41.9534 24.3047 40.5861L 23.3307 40.3592C 23.0569 41.5661 22.4163 42.5728 21.4356 43.3377L 22.055 44.1227ZM 23.8177 40.9727L 33.3427 40.9727L 33.3427 39.9727L 23.8177 39.9727L 23.8177 40.9727ZM 32.856 40.5874C 33.1856 41.9539 34.0096 43.2414 35.1154 44.118L 35.7327 43.3313C 34.7498 42.5691 34.1065 41.564 33.8293 40.3579L 32.856 40.5874ZM 35.1154 44.118C 36.2295 44.9833 37.68 45.4814 39.0944 45.4845L 39.0917 44.4846C 37.8433 44.4949 36.7072 44.1048 35.7327 43.3313L 35.1154 44.118ZM 39.0944 45.4845C 40.5088 45.4738 41.9566 44.9678 43.0659 44.0965L 42.4444 43.3131C 41.4741 44.0919 40.3402 44.4881 39.0917 44.4846L 39.0944 45.4845ZM 43.0659 44.0965C 44.1669 43.2139 44.9838 41.9219 45.3059 40.5537L 44.3313 40.3295C 44.0608 41.5371 43.423 42.5456 42.4444 43.3131L 43.0659 44.0965ZM 44.7105 40.9298C 44.8317 40.9559 44.9826 40.9722 45.1066 40.9727L 45.1044 39.9727C 45.0354 39.9736 44.9938 39.9691 44.9267 39.9534L 44.7105 40.9298ZM 45.1055 40.9727L 49.6958 40.9727L 49.6958 39.9727L 45.1055 39.9727L 45.1055 40.9727ZM 49.6958 40.9727C 50.173 40.9727 50.6315 40.7846 50.9701 40.4486L 50.2658 39.7388C 50.1153 39.8881 49.9104 39.9727 49.6958 39.9727L 49.6958 40.9727ZM 50.9701 40.4486C 51.3089 40.1125 51.4999 39.6558 51.4999 39.1788L 50.4999 39.1788C 50.4999 39.3881 50.4162 39.5896 50.2658 39.7388L 50.9701 40.4486ZM 51.4999 39.1788L 51.4999 22.2548L 50.4999 22.2548L 50.4999 39.1788L 51.4999 39.1788ZM 51.4999 22.2581C 51.5005 21.4409 51.2613 20.5732 50.8416 19.8703L 49.986 20.388C 50.3428 20.9686 50.5091 21.5717 50.4999 22.2515L 51.4999 22.2581ZM 50.8416 19.8703C 50.414 19.1726 49.7557 18.556 49.0294 18.1729L 48.5678 19.0599C 49.1777 19.3721 49.6371 19.8022 49.986 20.388L 50.8416 19.8703ZM 32.675 10.3956L 39.0806 10.3956L 39.0806 9.39562L 32.675 9.39562L 32.675 10.3956ZM 39.079 10.3956C 39.3146 10.3907 39.4741 10.4409 39.6636 10.5793L 40.2338 9.75785C 39.9142 9.54293 39.468 9.40257 39.0823 9.39563L 39.079 10.3956ZM 39.6636 10.5793C 39.8593 10.7082 39.9604 10.8382 40.036 11.0583L 40.9734 10.71C 40.8341 10.3517 40.5472 9.98235 40.2338 9.75785L 39.6636 10.5793ZM 40.0358 11.0578L 42.7848 18.4795L 43.7226 18.1322L 40.9736 10.7105L 40.0358 11.0578ZM 42.7847 18.4793C 42.9375 18.8673 43.2835 19.2565 43.6517 19.4547L 44.1076 18.5647C 43.8956 18.4657 43.7949 18.3526 43.7226 18.1324L 42.7847 18.4793ZM 43.6522 19.455L 47.3819 21.3596L 47.8367 20.469L 44.107 18.5644L 43.6522 19.455ZM 47.3831 21.3603C 47.573 21.4513 47.6808 21.5504 47.7862 21.731L 48.6381 21.2072C 48.4526 20.9146 48.1431 20.6297 47.8355 20.4684L 47.3831 21.3603ZM 47.7862 21.731C 47.8997 21.9063 47.9389 22.0454 47.9335 22.2534L 48.9335 22.2562C 48.9296 21.9099 48.8156 21.5051 48.6381 21.2072L 47.7862 21.731ZM 47.9335 22.2548L 47.9335 28.1601L 48.9335 28.1601L 48.9335 22.2548L 47.9335 22.2548ZM 48.4335 27.6601L 32.675 27.6601L 32.675 28.6601L 48.4335 28.6601L 48.4335 27.6601ZM 33.175 28.1601L 33.175 9.89562L 32.175 9.89562L 32.175 28.1601L 33.175 28.1601ZM 18.0693 41.9394C 17.4922 41.9447 16.9965 41.7955 16.5198 41.4731L 15.9673 42.3066C 16.5715 42.7008 17.3465 42.9341 18.0693 42.9394L 18.0693 41.9394ZM 16.5198 41.4731C 16.0375 41.1599 15.7099 40.7639 15.4946 40.2339L 14.5718 40.6192C 14.8539 41.2808 15.3687 41.9033 15.9673 42.3066L 16.5198 41.4731ZM 15.4946 40.2339C 15.2693 39.7084 15.2188 39.1999 15.3364 38.641L 14.3559 38.4444C 14.22 39.1505 14.2997 39.9531 14.5718 40.6192L 15.4946 40.2339ZM 15.3364 38.641C 15.4434 38.0798 15.6865 37.6285 16.0977 37.2282L 15.3934 36.5183C 14.8854 37.0299 14.5026 37.7406 14.3559 38.4444L 15.3364 38.641ZM 16.0977 37.2282C 16.5016 36.8199 16.958 36.5778 17.525 36.4714L 17.3314 35.4903C 16.6234 35.6355 15.9088 36.0145 15.3934 36.5183L 16.0977 37.2282ZM 17.525 36.4714C 18.09 36.3545 18.6058 36.4049 19.1369 36.6289L 19.517 35.7039C 18.8471 35.4344 18.0413 35.3556 17.3314 35.4903L 17.525 36.4714ZM 19.1369 36.6289C 19.6718 36.8429 20.0714 37.1683 20.387 37.6466L 21.2165 37.088C 20.8099 36.4939 20.183 35.9835 19.517 35.7039L 19.1369 36.6289ZM 20.387 37.6466C 20.7115 38.1186 20.8611 38.6078 20.8556 39.1788L 21.8556 39.1788C 21.8501 38.46 21.6142 37.6884 21.2165 37.088L 20.387 37.6466ZM 20.8556 39.1788C 20.8556 39.9095 20.5637 40.6113 20.0425 41.13L 20.748 41.8388C 21.4568 41.1332 21.8556 40.1767 21.8556 39.1788L 20.8556 39.1788ZM 20.0425 41.13C 19.5212 41.6489 18.813 41.9422 18.073 41.9446L 18.0761 42.9446C 19.0783 42.9414 20.0392 42.5442 20.748 41.8388L 20.0425 41.13ZM 18.4268 42.0897L 18.4215 42.0845L 17.7171 42.7943L 17.7223 42.7994L 18.4268 42.0897ZM 39.0963 41.9394C 38.5191 41.9447 38.0234 41.7955 37.5468 41.4731L 36.9942 42.3066C 37.5985 42.7008 38.3735 42.9341 39.0963 42.9394L 39.0963 41.9394ZM 37.5468 41.4731C 37.0645 41.1599 36.7369 40.7639 36.5216 40.2339L 35.5987 40.6192C 35.8809 41.2808 36.3957 41.9033 36.9942 42.3066L 37.5468 41.4731ZM 36.5216 40.2339C 36.2962 39.7084 36.2457 39.1999 36.3634 38.641L 35.3829 38.4444C 35.247 39.1505 35.3266 39.9531 35.5987 40.6192L 36.5216 40.2339ZM 36.3634 38.641C 36.4703 38.0798 36.7135 37.6285 37.1247 37.2282L 36.4204 36.5183C 35.9124 37.0299 35.5296 37.7406 35.3829 38.4444L 36.3634 38.641ZM 37.1247 37.2282C 37.5285 36.8199 37.985 36.5778 38.552 36.4714L 38.3584 35.4903C 37.6504 35.6355 36.9357 36.0145 36.4204 36.5183L 37.1247 37.2282ZM 38.552 36.4714C 39.117 36.3545 39.6328 36.4049 40.1638 36.6289L 40.5439 35.7039C 39.874 35.4344 39.0683 35.3556 38.3584 35.4903L 38.552 36.4714ZM 40.1638 36.6289C 40.6987 36.8429 41.0984 37.1683 41.414 37.6466L 42.2434 37.088C 41.8368 36.4939 41.21 35.9835 40.5439 35.7039L 40.1638 36.6289ZM 41.414 37.6466C 41.7385 38.1186 41.8881 38.6078 41.8826 39.1788L 42.8826 39.1788C 42.8771 38.46 42.6412 37.6884 42.2434 37.088L 41.414 37.6466ZM 41.8826 39.1788C 41.885 39.5591 41.819 39.8876 41.6698 40.238L 42.5923 40.6239C 42.7752 40.1805 42.8801 39.658 42.8826 39.1788L 41.8826 39.1788ZM 41.6698 40.238C 41.525 40.5903 41.3367 40.8691 41.0632 41.1362L 41.7664 41.8472C 42.1064 41.5075 42.4049 41.0654 42.5923 40.6239L 41.6698 40.238ZM 41.0632 41.1362C 40.793 41.4068 40.5107 41.5932 40.1545 41.736L 40.5324 42.6619C 40.9773 42.4777 41.4231 42.1834 41.7664 41.8472L 41.0632 41.1362ZM 40.1545 41.736C 39.8 41.8833 39.4666 41.9482 39.0822 41.9446L 39.0791 42.9446C 39.5609 42.9437 40.0858 42.8416 40.5324 42.6619L 40.1545 41.736ZM 39.2377 42.9193L 39.2533 42.9141L 38.9392 41.9647L 38.9236 41.9699L 39.2377 42.9193ZM 48.4231 37.3849L 45.1368 37.3849L 45.1368 38.3849L 48.4231 38.3849L 48.4231 37.3849ZM 45.1379 37.3849C 45.0139 37.3854 44.863 37.4017 44.7418 37.4278L 44.958 38.4041C 45.0251 38.3885 45.0667 38.384 45.1357 38.3849L 45.1379 37.3849ZM 45.3371 37.8039C 45.0151 36.4357 44.1982 35.1437 43.0972 34.2611L 42.4757 35.0445C 43.4543 35.812 44.0921 36.8205 44.3626 38.0281L 45.3371 37.8039ZM 43.0972 34.2611C 41.9879 33.3898 40.5401 32.8838 39.1257 32.873L 39.123 33.873C 40.3715 33.8695 41.5054 34.2657 42.4757 35.0445L 43.0972 34.2611ZM 39.1257 32.873C 37.7113 32.8762 36.2608 33.3743 35.1467 34.2396L 35.764 35.0263C 36.7385 34.2528 37.8746 33.8627 39.123 33.873L 39.1257 32.873ZM 35.1467 34.2396C 34.0409 35.1162 33.2169 36.4037 32.8873 37.7701L 33.8606 37.9997C 34.1378 36.7936 34.7811 35.7885 35.764 35.0263L 35.1467 34.2396ZM 33.374 37.3849L 23.8177 37.3849L 23.8177 38.3849L 33.374 38.3849L 33.374 37.3849ZM 24.3047 37.7715C 23.9788 36.4042 23.1584 35.1144 22.055 34.2349L 21.4356 35.0199C 22.4163 35.7848 23.0569 36.7915 23.3307 37.9984L 24.3047 37.7715ZM 22.055 34.2349C 20.9433 33.3666 19.4941 32.8645 18.0797 32.8576L 18.0797 33.8576C 19.3282 33.8507 20.4632 34.2438 21.4356 35.0199L 22.055 34.2349ZM 18.0797 32.8576C 16.6654 32.8645 15.2162 33.3666 14.1045 34.2349L 14.7239 35.0199C 15.6963 34.2438 16.8313 33.8507 18.0797 33.8576L 18.0797 32.8576ZM 14.1045 34.2349C 13.0011 35.1144 12.1807 36.4042 11.8548 37.7715L 12.8288 37.9984C 13.1026 36.7915 13.7432 35.7848 14.7239 35.0199L 14.1045 34.2349ZM 12.3418 37.3849L 8.82601 37.3849L 8.82601 38.3849L 12.3418 38.3849L 12.3418 37.3849ZM 9.32601 37.8849L 9.32601 30.7479L 8.32601 30.7479L 8.32601 37.8849L 9.32601 37.8849ZM 8.82601 31.2479L 48.4283 31.2479L 48.4283 30.2479L 8.82601 30.2479L 8.82601 31.2479ZM 47.9283 30.7475L 47.9231 37.8845L 48.9231 37.8853L 48.9283 30.7482L 47.9283 30.7475ZM 1.30408 10.5342C 1.08956 10.5342 0.884617 10.4497 0.734119 10.3003L 0.0297926 11.0102C 0.368419 11.3462 0.826868 11.5342 1.30408 11.5342L 1.30408 10.5342ZM 0.734119 10.3003C 0.583754 10.1511 0.5 9.94963 0.5 9.74036L -0.5 9.74036C -0.5 10.2174 -0.308967 10.6741 0.0297926 11.0102L 0.734119 10.3003ZM 0.5 9.74036C 0.5 9.53108 0.583754 9.32957 0.734119 9.18038L 0.0297926 8.4705C -0.308967 8.80661 -0.5 9.26332 -0.5 9.74036L 0.5 9.74036ZM 0.734119 9.18038C 0.884617 9.03106 1.08956 8.94647 1.30408 8.94647L 1.30408 7.94647C 0.826868 7.94647 0.368419 8.13452 0.0297926 8.4705L 0.734119 9.18038ZM 1.30408 8.94647L 12.5661 8.94647L 12.5661 7.94647L 1.30408 7.94647L 1.30408 8.94647ZM 12.5661 8.94647C 12.7806 8.94647 12.9856 9.03106 13.1361 9.18038L 13.8404 8.4705C 13.5018 8.13452 13.0433 7.94647 12.5661 7.94647L 12.5661 8.94647ZM 13.1361 9.18038C 13.2864 9.32957 13.3702 9.53108 13.3702 9.74036L 14.3702 9.74036C 14.3702 9.26332 14.1791 8.80661 13.8404 8.4705L 13.1361 9.18038ZM 13.3702 9.74036C 13.3702 9.94963 13.2864 10.1511 13.1361 10.3003L 13.8404 11.0102C 14.1791 10.6741 14.3702 10.2174 14.3702 9.74036L 13.3702 9.74036ZM 13.1361 10.3003C 12.9856 10.4497 12.7806 10.5342 12.5661 10.5342L 12.5661 11.5342C 13.0433 11.5342 13.5018 11.3462 13.8404 11.0102L 13.1361 10.3003ZM 12.5661 10.5342L 1.30408 10.5342L 1.30408 11.5342L 12.5661 11.5342L 12.5661 10.5342ZM 13.3702 15.3713C 13.3702 15.5806 13.2864 15.7821 13.1361 15.9313L 13.8404 16.6412C 14.1791 16.3051 14.3702 15.8484 14.3702 15.3713L 13.3702 15.3713ZM 13.1361 15.9313C 12.9856 16.0806 12.7806 16.1652 12.5661 16.1652L 12.5661 17.1652C 13.0433 17.1652 13.5018 16.9772 13.8404 16.6412L 13.1361 15.9313ZM 12.5661 16.1652L 3.3906 16.1652L 3.3906 17.1652L 12.5661 17.1652L 12.5661 16.1652ZM 3.3906 16.1652C 3.17609 16.1652 2.97114 16.0806 2.82065 15.9313L 2.11632 16.6412C 2.45494 16.9772 2.91339 17.1652 3.3906 17.1652L 3.3906 16.1652ZM 2.82065 15.9313C 2.67028 15.7821 2.58653 15.5806 2.58653 15.3713L 1.58653 15.3713C 1.58653 15.8484 1.77756 16.3051 2.11632 16.6412L 2.82065 15.9313ZM 2.58653 15.3713C 2.58653 15.1621 2.67028 14.9606 2.82065 14.8114L 2.11632 14.1015C 1.77756 14.4376 1.58653 14.8943 1.58653 15.3713L 2.58653 15.3713ZM 2.82065 14.8114C 2.97114 14.662 3.17609 14.5775 3.3906 14.5775L 3.3906 13.5775C 2.9134 13.5775 2.45495 13.7655 2.11632 14.1015L 2.82065 14.8114ZM 3.3906 14.5775L 12.5661 14.5775L 12.5661 13.5775L 3.3906 13.5775L 3.3906 14.5775ZM 12.5661 14.5775C 12.7806 14.5775 12.9856 14.662 13.1361 14.8114L 13.8404 14.1015C 13.5018 13.7655 13.0433 13.5775 12.5661 13.5775L 12.5661 14.5775ZM 13.1361 14.8114C 13.2864 14.9606 13.3702 15.1621 13.3702 15.3713L 14.3702 15.3713C 14.3702 14.8943 14.1791 14.4376 13.8404 14.1015L 13.1361 14.8114ZM 13.3702 21.0023C 13.3702 21.2116 13.2864 21.4131 13.1361 21.5623L 13.8404 22.2722C 14.1791 21.9361 14.3702 21.4794 14.3702 21.0023L 13.3702 21.0023ZM 13.1361 21.5623C 12.9856 21.7116 12.7806 21.7962 12.5661 21.7962L 12.5661 22.7962C 13.0433 22.7962 13.5018 22.6081 13.8404 22.2722L 13.1361 21.5623ZM 12.5661 21.7962L 5.47713 21.7962L 5.47713 22.7962L 12.5661 22.7962L 12.5661 21.7962ZM 5.47713 21.7962C 5.26262 21.7962 5.05767 21.7116 4.90717 21.5623L 4.20284 22.2722C 4.54147 22.6081 4.99992 22.7962 5.47713 22.7962L 5.47713 21.7962ZM 4.90717 21.5623C 4.75681 21.4131 4.67305 21.2116 4.67305 21.0023L 3.67305 21.0023C 3.67305 21.4794 3.86409 21.9361 4.20284 22.2722L 4.90717 21.5623ZM 4.67305 21.0023C 4.67305 20.793 4.75681 20.5915 4.90717 20.4423L 4.20284 19.7325C 3.86409 20.0686 3.67305 20.5253 3.67305 21.0023L 4.67305 21.0023ZM 4.90717 20.4423C 5.05767 20.293 5.26261 20.2084 5.47713 20.2084L 5.47713 19.2084C 4.99992 19.2084 4.54147 19.3965 4.20284 19.7325L 4.90717 20.4423ZM 5.47713 20.2084L 12.5661 20.2084L 12.5661 19.2084L 5.47713 19.2084L 5.47713 20.2084ZM 12.5661 20.2084C 12.7806 20.2084 12.9856 20.293 13.1361 20.4423L 13.8404 19.7325C 13.5018 19.3965 13.0433 19.2084 12.5661 19.2084L 12.5661 20.2084ZM 13.1361 20.4423C 13.2864 20.5915 13.3702 20.793 13.3702 21.0023L 14.3702 21.0023C 14.3702 20.5253 14.1791 20.0686 13.8404 19.7325L 13.1361 20.4423Z"/>
</defs>
</svg>
