<svg width="84" height="88" viewBox="0 0 84 88" version="1.1" xmlns="http://www.w3.org/2000/svg" xmlns:xlink="http://www.w3.org/1999/xlink">
<title>Government icon</title>
<desc>Created using Figma</desc>
<g id="Canvas" transform="matrix(2 0 0 2 -1732 -824)">
<g id="Government icon">
<g id="Group">
<g id="Group">
<g id="Group">
<g id="Vector">
<use xlink:href="#path0_fill" transform="translate(866.05 448.951)" fill="#496274"/>
</g>
<g id="Vector">
<use xlink:href="#path1_fill" transform="translate(866 412)" fill="#496274"/>
</g>
<g id="Vector">
<use xlink:href="#path2_fill" transform="translate(870.573 427.71)" fill="#496274"/>
</g>
<g id="Vector">
<use xlink:href="#path3_fill" transform="translate(898.447 427.71)" fill="#496274"/>
</g>
<g id="Vector">
<use xlink:href="#path4_fill" transform="translate(891.478 427.71)" fill="#496274"/>
</g>
<g id="Vector">
<use xlink:href="#path5_fill" transform="translate(884.51 427.71)" fill="#496274"/>
</g>
<g id="Vector">
<use xlink:href="#path6_fill" transform="translate(877.541 427.71)" fill="#496274"/>
</g>
</g>
</g>
</g>
</g>
</g>
<defs>
<path id="path0_fill" d="M 41.4884 2.96811L 39.3656 2.96811L 39.3656 0.371015C 39.3656 0.139131 39.181 -2.26449e-05 38.9964 -2.26449e-05L 2.86128 -2.26449e-05C 2.63054 -2.26449e-05 2.49206 0.185507 2.49206 0.371015L 2.49206 2.96811L 0.369196 2.96811C 0.138449 2.96811 5.63349e-06 3.15364 5.63349e-06 3.33914L 5.63349e-06 6.67826C 5.63349e-06 6.91014 0.184598 7.04929 0.369196 7.04929L 41.5807 7.04929C 41.8115 7.04929 41.9499 6.86376 41.9499 6.67826L 41.9499 3.33914C 41.9038 3.15364 41.7192 2.96811 41.4884 2.96811Z"/>
<path id="path1_fill" d="M 0.74231 14.7362L 41.1693 14.7362C 41.5847 14.7362 41.9539 14.4116 41.9539 13.9478L 41.9539 12.6029C 41.9539 12.2319 41.7231 11.8609 41.4001 11.6754L 21.6019 0.173925C 21.1866 -0.0579597 20.725 -0.0579597 20.3097 0.173925L 0.557701 11.6754C 0.234654 11.8609 0.0039003 12.1855 0.0039003 12.6029L 0.0039003 13.9478C -0.0422493 14.4116 0.326964 14.7362 0.74231 14.7362ZM 20.9558 5.92464C 22.0634 5.92464 22.9402 6.80579 22.9402 7.91884C 22.9402 9.03188 22.0634 9.91306 20.9558 9.91306C 19.8482 9.91306 18.9714 9.03188 18.9714 7.91884C 18.9714 6.80579 19.8482 5.92464 20.9558 5.92464Z"/>
<path id="path2_fill" d="M 4.47651 1.94782C 4.70726 1.94782 4.8457 1.76231 4.8457 1.57681L 4.8457 0.37102C 4.8457 0.139136 4.66111 1.13225e-05 4.47651 1.13225e-05L 0.369191 1.13225e-05C 0.138443 1.13225e-05 -5.2466e-14 0.185513 -5.2466e-14 0.37102L -5.2466e-14 1.57681C -5.2466e-14 1.80869 0.184593 1.94782 0.369191 1.94782L 0.876853 1.94782L 0.876853 18.3189L 0.369191 18.3189C 0.138443 18.3189 -5.2466e-14 18.5043 -5.2466e-14 18.6898L -5.2466e-14 19.8957C -5.2466e-14 20.1276 0.184593 20.2667 0.369191 20.2667L 4.47651 20.2667C 4.70726 20.2667 4.8457 20.0812 4.8457 19.8957L 4.8457 18.6898C 4.8457 18.458 4.66111 18.3189 4.47651 18.3189L 3.96885 18.3189L 3.96885 1.94782L 4.47651 1.94782Z"/>
<path id="path3_fill" d="M 4.4765 1.94782C 4.70724 1.94782 4.84571 1.76231 4.84571 1.57681L 4.84571 0.37102C 4.84571 0.139136 4.66109 1.13225e-05 4.4765 1.13225e-05L 0.369202 1.13225e-05C 0.138454 1.13225e-05 1.1267e-05 0.185513 1.1267e-05 0.37102L 1.1267e-05 1.57681C 1.1267e-05 1.80869 0.184604 1.94782 0.369202 1.94782L 0.876836 1.94782L 0.876836 18.3189L 0.369202 18.3189C 0.138454 18.3189 1.1267e-05 18.5043 1.1267e-05 18.6898L 1.1267e-05 19.8957C 1.1267e-05 20.1276 0.184604 20.2667 0.369202 20.2667L 4.4765 20.2667C 4.70724 20.2667 4.84571 20.0812 4.84571 19.8957L 4.84571 18.6898C 4.84571 18.458 4.66109 18.3189 4.4765 18.3189L 3.96886 18.3189L 3.96886 1.94782L 4.4765 1.94782Z"/>
<path id="path4_fill" d="M 4.47651 1.94782C 4.70725 1.94782 4.8457 1.76231 4.8457 1.57681L 4.8457 0.37102C 4.8457 0.139136 4.6611 1.13225e-05 4.47651 1.13225e-05L 0.369185 1.13225e-05C 0.138437 1.13225e-05 -5.63349e-06 0.185513 -5.63349e-06 0.37102L -5.63349e-06 1.57681C -5.63349e-06 1.80869 0.184587 1.94782 0.369185 1.94782L 0.876847 1.94782L 0.876847 18.3189L 0.369185 18.3189C 0.138437 18.3189 -5.63349e-06 18.5043 -5.63349e-06 18.6898L -5.63349e-06 19.8957C -5.63349e-06 20.1276 0.184587 20.2667 0.369185 20.2667L 4.47651 20.2667C 4.70725 20.2667 4.8457 20.0812 4.8457 19.8957L 4.8457 18.6898C 4.8457 18.458 4.6611 18.3189 4.47651 18.3189L 3.96887 18.3189L 3.96887 1.94782L 4.47651 1.94782Z"/>
<path id="path5_fill" d="M 4.47652 1.94782C 4.70727 1.94782 4.84571 1.76231 4.84571 1.57681L 4.84571 0.37102C 4.84571 0.139136 4.66112 1.13225e-05 4.47652 1.13225e-05L 0.369196 1.13225e-05C 0.138449 1.13225e-05 5.63349e-06 0.185513 5.63349e-06 0.37102L 5.63349e-06 1.57681C 5.63349e-06 1.80869 0.184598 1.94782 0.369196 1.94782L 0.87683 1.94782L 0.87683 18.3189L 0.369196 18.3189C 0.138449 18.3189 5.63349e-06 18.5043 5.63349e-06 18.6898L 5.63349e-06 19.8957C 5.63349e-06 20.1276 0.184598 20.2667 0.369196 20.2667L 4.47652 20.2667C 4.70727 20.2667 4.84571 20.0812 4.84571 19.8957L 4.84571 18.6898C 4.84571 18.458 4.66112 18.3189 4.47652 18.3189L 3.96886 18.3189L 3.96886 1.94782L 4.47652 1.94782Z"/>
<path id="path6_fill" d="M 4.4765 1.94782C 4.70725 1.94782 4.84569 1.76231 4.84569 1.57681L 4.84569 0.37102C 4.84569 0.139136 4.6611 1.13225e-05 4.4765 1.13225e-05L 0.369208 1.13225e-05C 0.13846 1.13225e-05 -1.1267e-05 0.185513 -1.1267e-05 0.37102L -1.1267e-05 1.57681C -1.1267e-05 1.80869 0.184609 1.94782 0.369208 1.94782L 0.876841 1.94782L 0.876841 18.3189L 0.369208 18.3189C 0.13846 18.3189 -1.1267e-05 18.5043 -1.1267e-05 18.6898L -1.1267e-05 19.8957C -1.1267e-05 20.1276 0.184609 20.2667 0.369208 20.2667L 4.4765 20.2667C 4.70725 20.2667 4.84569 20.0812 4.84569 19.8957L 4.84569 18.6898C 4.84569 18.458 4.6611 18.3189 4.4765 18.3189L 3.96887 18.3189L 3.96887 1.94782L 4.4765 1.94782Z"/>
</defs>
</svg>
