<svg width="112" height="74" viewBox="0 0 112 74" version="1.1" xmlns="http://www.w3.org/2000/svg" xmlns:xlink="http://www.w3.org/1999/xlink">
<title>noun_50059_cc</title>
<desc>Created using Figma</desc>
<g id="Canvas" transform="matrix(2 0 0 2 -1716 -984)">
<g id="noun_50059_cc">
<g id="Vector">
<use xlink:href="#path0_fill" transform="translate(860.636 492)" fill="#496274"/>
</g>
<g id="Vector">
<use xlink:href="#path1_fill" transform="translate(858 524.621)" fill="#496274"/>
</g>
</g>
</g>
<defs>
<path id="path0_fill" d="M 0.740428 29.4102L 3.71088 29.4102C 4.10164 29.4102 4.42519 29.1117 4.45008 28.7273C 5.15816 17.8977 14.3445 9.41414 25.3646 9.41414C 36.384 9.41414 45.571 17.8977 46.2779 28.7273C 46.3034 29.1117 46.6269 29.4102 47.0171 29.4102L 49.9875 29.4102C 50.1916 29.4102 50.387 29.3274 50.5264 29.1816C 50.6664 29.0363 50.7392 28.8395 50.7273 28.639C 50.013 16.1954 40.1217 6.28774 27.7527 5.14752L 27.7527 3.43904C 27.7527 3.36241 27.7483 3.2864 27.7408 3.21161L 28.9206 3.21161C 29.8184 3.21161 30.5495 2.49131 30.5495 1.6055C 30.5495 0.720297 29.8184 -2.1514e-07 28.9206 -2.1514e-07L 21.5125 -2.1514e-07C 20.614 -2.1514e-07 19.8829 0.720297 19.8829 1.6055C 19.8829 2.49131 20.614 3.21161 21.5125 3.21161L 23.0058 3.21161C 22.9983 3.2864 22.994 3.36241 22.994 3.43904L 22.994 5.1463C 10.6169 6.27916 0.71554 16.1892 0.00123643 28.639C -0.0105857 28.8395 0.0628357 29.0357 0.202212 29.1816C 0.34221 29.3274 0.536964 29.4102 0.740428 29.4102Z"/>
<path id="path1_fill" d="M 53.7451 1.38438e-06L 2.25553 1.38438e-06C 1.01172 1.38438e-06 7.12069e-09 0.98267 7.12069e-09 2.18909C 7.12069e-09 3.39551 1.01234 4.3788 2.25553 4.3788L 53.7451 4.3788C 54.9883 4.3788 56 3.39613 56 2.1897C 56 0.983283 54.9883 1.38438e-06 53.7451 1.38438e-06Z"/>
</defs>
</svg>
