<svg width="18" height="19" viewBox="0 0 18 19" version="1.1" xmlns="http://www.w3.org/2000/svg" xmlns:xlink="http://www.w3.org/1999/xlink">
<title>linkedin_simple</title>
<desc>Created using Figma</desc>
<g id="Canvas" transform="translate(411 269)">
<g id="linkedin_simple">
<g id="Vector">
<use xlink:href="#path0_fill" transform="translate(-411 -264)" fill="#FFFFFF"/>
</g>
<g id="Vector">
<use xlink:href="#path1_fill" transform="translate(-405 -264)" fill="#FFFFFF"/>
</g>
<g id="Vector">
<use xlink:href="#path2_fill" transform="translate(-411 -269)" fill="#FFFFFF"/>
</g>
</g>
</g>
<defs>
<path id="path0_fill" d="M 4 0L 0 0L 0 14L 4 14L 4 0Z"/>
<path id="path1_fill" d="M 7.499 0C 4.708 0 4.228 1.018 4 2L 4 0L 0 0L 0 14L 4 14L 4 6C 4 4.703 4.703 4 6 4C 7.266 4 8 4.688 8 6L 8 14L 12 14L 12 7C 12 3 11.479 0 7.499 0Z"/>
<path id="path2_fill" d="M 2 4C 3.10457 4 4 3.10457 4 2C 4 0.89543 3.10457 0 2 0C 0.89543 0 0 0.89543 0 2C 0 3.10457 0.89543 4 2 4Z"/>
</defs>
</svg>
