<svg width="112" height="94" viewBox="0 0 112 94" version="1.1" xmlns="http://www.w3.org/2000/svg" xmlns:xlink="http://www.w3.org/1999/xlink">
<title>logistics-fixed</title>
<desc>Created using Figma</desc>
<g id="Canvas" transform="matrix(2 0 0 2 -2844 -874)">
<g id="logistics-fixed">
<use xlink:href="#path0_fill" transform="translate(1422 437)" fill="#496274"/>
</g>
</g>
<defs>
<path id="path0_fill" d="M 54.25 7.834L 19.25 7.834C 18.284 7.834 17.5 7.05414 17.5 6.09325C 17.5 5.13236 18.284 4.3525 19.25 4.3525L 54.25 4.3525C 55.216 4.3525 56 5.13236 56 6.09325C 56 7.05414 55.216 7.834 54.25 7.834ZM 56 23.5007C 56 22.5399 55.216 21.76 54.25 21.76L 19.25 21.76C 18.284 21.76 17.5 22.5399 17.5 23.5007C 17.5 24.4616 18.284 25.2415 19.25 25.2415L 54.25 25.2415C 55.216 25.2415 56 24.4616 56 23.5007ZM 56 40.9082C 56 39.9474 55.216 39.1675 54.25 39.1675L 19.25 39.1675C 18.284 39.1675 17.5 39.9474 17.5 40.9082C 17.5 41.8691 18.284 42.649 19.25 42.649L 54.25 42.649C 55.216 42.649 56 41.8691 56 40.9082ZM 6.61678 11.5331L 13.6168 2.82935C 14.2205 2.07821 14.098 0.98328 13.3438 0.381851C 12.5886 -0.219578 11.4879 -0.0968552 10.8841 0.653408L 4.94378 8.03941L 2.80003 6.4414C 2.02653 5.86521 0.930155 6.02101 0.35003 6.78868C -0.230094 7.55809 -0.0725947 8.64954 0.70003 9.2266L 4.20003 11.8369C 4.51415 12.0727 4.8834 12.185 5.24915 12.185C 5.76278 12.1859 6.27115 11.9613 6.61678 11.5331ZM 6.61678 28.9397L 13.6168 20.2368C 14.2205 19.4857 14.098 18.3908 13.3438 17.7893C 12.5886 17.1879 11.4879 17.3106 10.8841 18.0609L 4.94378 25.4478L 2.80003 23.848C 2.02653 23.2727 0.930155 23.4294 0.35003 24.1962C -0.230094 24.9656 -0.0725947 26.057 0.70003 26.6332L 4.20003 29.2444C 4.51415 29.4794 4.8834 29.5925 5.24915 29.5925C 5.76278 29.5934 6.27115 29.3688 6.61678 28.9397ZM 6.61678 46.3472L 13.6168 37.6435C 14.2205 36.8932 14.098 35.7974 13.3438 35.1968C 12.5886 34.5963 11.4879 34.7173 10.8841 35.4693L 4.94378 42.8553L 2.80003 41.2564C 2.02653 40.6793 0.930155 40.836 0.35003 41.6037C -0.230094 42.3731 -0.0725947 43.4645 0.70003 44.0407L 4.20003 46.6518C 4.51415 46.8868 4.8834 47 5.24915 47C 5.76278 47.0009 6.27115 46.7763 6.61678 46.3472Z"/>
</defs>
</svg>
