<svg width="116" height="98" viewBox="0 0 116 98" version="1.1" xmlns="http://www.w3.org/2000/svg" xmlns:xlink="http://www.w3.org/1999/xlink">
<title>Vector</title>
<desc>Created using Figma</desc>
<g id="Canvas" transform="matrix(2 0 0 2 -2842 -872)">
<g id="Vector">
<use xlink:href="#path0_fill" transform="translate(1422 437)" fill="#496274"/>
<mask id="mask0_outline_out">
<rect id="mask0_outline_inv" fill="white" x="-2" y="-2" width="59" height="51" transform="translate(1422 437)"/>
<use xlink:href="#path0_fill" fill="black" transform="translate(1422 437)"/>
</mask>
<g mask="url(#mask0_outline_out)">
<use xlink:href="#path1_stroke_2x" transform="translate(1422 437)" fill="#496274"/>
</g>
</g>
</g>
<defs>
<path id="path0_fill" d="M 54.25 7.834L 19.25 7.834C 18.284 7.834 17.5 7.05414 17.5 6.09325C 17.5 5.13236 18.284 4.3525 19.25 4.3525L 54.25 4.3525C 55.216 4.3525 56 5.13236 56 6.09325C 56 7.05414 55.216 7.834 54.25 7.834ZM 56 23.5007C 56 22.5399 55.216 21.76 54.25 21.76L 19.25 21.76C 18.284 21.76 17.5 22.5399 17.5 23.5007C 17.5 24.4616 18.284 25.2415 19.25 25.2415L 54.25 25.2415C 55.216 25.2415 56 24.4616 56 23.5007ZM 56 40.9082C 56 39.9474 55.216 39.1675 54.25 39.1675L 19.25 39.1675C 18.284 39.1675 17.5 39.9474 17.5 40.9082C 17.5 41.8691 18.284 42.649 19.25 42.649L 54.25 42.649C 55.216 42.649 56 41.8691 56 40.9082ZM 6.61678 11.5331L 13.6168 2.82935C 14.2205 2.07821 14.098 0.98328 13.3438 0.381851C 12.5886 -0.219578 11.4879 -0.0968552 10.8841 0.653408L 4.94378 8.03941L 2.80003 6.4414C 2.02653 5.86521 0.930155 6.02101 0.35003 6.78868C -0.230094 7.55809 -0.0725947 8.64954 0.70003 9.2266L 4.20003 11.8369C 4.51415 12.0727 4.8834 12.185 5.24915 12.185C 5.76278 12.1859 6.27115 11.9613 6.61678 11.5331ZM 6.61678 28.9397L 13.6168 20.2368C 14.2205 19.4857 14.098 18.3908 13.3438 17.7893C 12.5886 17.1879 11.4879 17.3106 10.8841 18.0609L 4.94378 25.4478L 2.80003 23.848C 2.02653 23.2727 0.930155 23.4294 0.35003 24.1962C -0.230094 24.9656 -0.0725947 26.057 0.70003 26.6332L 4.20003 29.2444C 4.51415 29.4794 4.8834 29.5925 5.24915 29.5925C 5.76278 29.5934 6.27115 29.3688 6.61678 28.9397ZM 6.61678 46.3472L 13.6168 37.6435C 14.2205 36.8932 14.098 35.7974 13.3438 35.1968C 12.5886 34.5963 11.4879 34.7173 10.8841 35.4693L 4.94378 42.8553L 2.80003 41.2564C 2.02653 40.6793 0.930155 40.836 0.35003 41.6037C -0.230094 42.3731 -0.0725947 43.4645 0.70003 44.0407L 4.20003 46.6518C 4.51415 46.8868 4.8834 47 5.24915 47C 5.76278 47.0009 6.27115 46.7763 6.61678 46.3472Z"/>
<path id="path1_stroke_2x" d="M 6.61678 11.5331L 7.39494 12.1612L 7.39603 12.1598L 6.61678 11.5331ZM 13.6168 2.82935L 14.396 3.45606L 14.3962 3.45584L 13.6168 2.82935ZM 13.3438 0.381851L 13.9672 -0.400014L 13.9668 -0.400366L 13.3438 0.381851ZM 10.8841 0.653408L 10.1051 0.0264745L 10.1049 0.026684L 10.8841 0.653408ZM 4.94378 8.03941L 4.34613 8.84117L 5.11893 9.41723L 5.72302 8.66613L 4.94378 8.03941ZM 2.80003 6.4414L 3.39768 5.63964L 3.39741 5.63945L 2.80003 6.4414ZM 0.35003 6.78868L -0.447784 6.18578L -0.44844 6.18665L 0.35003 6.78868ZM 0.70003 9.2266L 0.10163 10.0278L 0.102193 10.0282L 0.70003 9.2266ZM 4.20003 11.8369L 4.80048 11.0372L 4.79786 11.0352L 4.20003 11.8369ZM 5.24915 12.185L 5.25085 11.185L 5.24915 11.185L 5.24915 12.185ZM 6.61678 28.9397L 7.39556 29.567L 7.396 29.5665L 6.61678 28.9397ZM 13.6168 20.2368L 14.396 20.8636L 14.3962 20.8633L 13.6168 20.2368ZM 13.3438 17.7893L 13.9672 17.0075L 13.9668 17.0071L 13.3438 17.7893ZM 10.8841 18.0609L 10.1051 17.434L 10.1049 17.4342L 10.8841 18.0609ZM 4.94378 25.4478L 4.34571 26.2492L 5.11866 26.826L 5.72306 26.0745L 4.94378 25.4478ZM 2.80003 23.848L 3.3981 23.0466L 3.39683 23.0456L 2.80003 23.848ZM 0.35003 24.1962L -0.447455 23.5928L -0.44844 23.5941L 0.35003 24.1962ZM 0.70003 26.6332L 1.29799 25.8317L 1.29785 25.8316L 0.70003 26.6332ZM 4.20003 29.2444L 4.79906 28.4436L 4.79799 28.4428L 4.20003 29.2444ZM 5.24915 29.5925L 5.25085 28.5925L 5.24915 28.5925L 5.24915 29.5925ZM 6.61678 46.3472L 7.39556 46.9745L 7.39603 46.9739L 6.61678 46.3472ZM 13.6168 37.6435L 12.8377 37.0165L 12.8375 37.0168L 13.6168 37.6435ZM 13.3438 35.1968L 13.9667 34.4145L 13.9662 34.4142L 13.3438 35.1968ZM 10.8841 35.4693L 11.6634 36.096L 11.6639 36.0953L 10.8841 35.4693ZM 4.94378 42.8553L 4.34592 43.6569L 5.11877 44.2333L 5.72302 43.482L 4.94378 42.8553ZM 2.80003 41.2564L 2.20207 42.0579L 2.20217 42.058L 2.80003 41.2564ZM 0.35003 41.6037L -0.447784 41.0008L -0.44844 41.0016L 0.35003 41.6037ZM 0.70003 44.0407L 1.29799 43.2392L 1.29785 43.2391L 0.70003 44.0407ZM 4.20003 46.6518L 4.79906 45.8511L 4.79799 45.8503L 4.20003 46.6518ZM 5.24915 47L 5.25085 46L 5.24915 46L 5.24915 47ZM 54.25 6.834L 19.25 6.834L 19.25 8.834L 54.25 8.834L 54.25 6.834ZM 19.25 6.834C 18.8313 6.834 18.5 6.49687 18.5 6.09325L 16.5 6.09325C 16.5 7.61142 17.7367 8.834 19.25 8.834L 19.25 6.834ZM 18.5 6.09325C 18.5 5.68963 18.8313 5.3525 19.25 5.3525L 19.25 3.3525C 17.7367 3.3525 16.5 4.57508 16.5 6.09325L 18.5 6.09325ZM 19.25 5.3525L 54.25 5.3525L 54.25 3.3525L 19.25 3.3525L 19.25 5.3525ZM 54.25 5.3525C 54.6687 5.3525 55 5.68963 55 6.09325L 57 6.09325C 57 4.57508 55.7633 3.3525 54.25 3.3525L 54.25 5.3525ZM 55 6.09325C 55 6.49687 54.6687 6.834 54.25 6.834L 54.25 8.834C 55.7633 8.834 57 7.61142 57 6.09325L 55 6.09325ZM 57 23.5007C 57 21.9826 55.7633 20.76 54.25 20.76L 54.25 22.76C 54.6687 22.76 55 23.0971 55 23.5007L 57 23.5007ZM 54.25 20.76L 19.25 20.76L 19.25 22.76L 54.25 22.76L 54.25 20.76ZM 19.25 20.76C 17.7367 20.76 16.5 21.9826 16.5 23.5007L 18.5 23.5007C 18.5 23.0971 18.8313 22.76 19.25 22.76L 19.25 20.76ZM 16.5 23.5007C 16.5 25.0189 17.7367 26.2415 19.25 26.2415L 19.25 24.2415C 18.8313 24.2415 18.5 23.9044 18.5 23.5007L 16.5 23.5007ZM 19.25 26.2415L 54.25 26.2415L 54.25 24.2415L 19.25 24.2415L 19.25 26.2415ZM 54.25 26.2415C 55.7633 26.2415 57 25.0189 57 23.5007L 55 23.5007C 55 23.9044 54.6687 24.2415 54.25 24.2415L 54.25 26.2415ZM 57 40.9082C 57 39.3901 55.7633 38.1675 54.25 38.1675L 54.25 40.1675C 54.6687 40.1675 55 40.5046 55 40.9082L 57 40.9082ZM 54.25 38.1675L 19.25 38.1675L 19.25 40.1675L 54.25 40.1675L 54.25 38.1675ZM 19.25 38.1675C 17.7367 38.1675 16.5 39.3901 16.5 40.9082L 18.5 40.9082C 18.5 40.5046 18.8313 40.1675 19.25 40.1675L 19.25 38.1675ZM 16.5 40.9082C 16.5 42.4264 17.7367 43.649 19.25 43.649L 19.25 41.649C 18.8313 41.649 18.5 41.3119 18.5 40.9082L 16.5 40.9082ZM 19.25 43.649L 54.25 43.649L 54.25 41.649L 19.25 41.649L 19.25 43.649ZM 54.25 43.649C 55.7633 43.649 57 42.4264 57 40.9082L 55 40.9082C 55 41.3119 54.6687 41.649 54.25 41.649L 54.25 43.649ZM 7.39603 12.1598L 14.396 3.45606L 12.8375 2.20263L 5.83753 10.9064L 7.39603 12.1598ZM 14.3962 3.45584C 15.348 2.27175 15.1532 0.545646 13.9672 -0.400014L 12.7203 1.16372C 13.0429 1.42091 13.0931 1.88467 12.8373 2.20285L 14.3962 3.45584ZM 13.9668 -0.400366C 12.7812 -1.34464 11.0539 -1.15254 10.1051 0.0264746L 11.6632 1.28034C 11.9219 0.958834 12.3961 0.90548 12.7208 1.16407L 13.9668 -0.400366ZM 10.1049 0.026684L 4.16454 7.41268L 5.72302 8.66613L 11.6634 1.28013L 10.1049 0.026684ZM 5.54143 7.23765L 3.39768 5.63964L 2.20238 7.24316L 4.34613 8.84117L 5.54143 7.23765ZM 3.39741 5.63945C 2.18437 4.73583 0.464594 4.97844 -0.447784 6.18578L 1.14784 7.39158C 1.39572 7.06358 1.86869 6.99459 2.20265 7.24336L 3.39741 5.63945ZM -0.44844 6.18665C -1.36348 7.40025 -1.1131 9.12054 0.10163 10.0278L 1.29843 8.4254C 0.967913 8.17854 0.903293 7.71593 1.1485 7.39071L -0.44844 6.18665ZM 0.102193 10.0282L 3.60219 12.6385L 4.79786 11.0352L 1.29787 8.42498L 0.102193 10.0282ZM 3.59957 12.6365C 4.0616 12.9645 4.73634 13.1741 5.24915 13.185L 5.24915 11.185C 5.03046 11.1959 4.96671 11.181 4.80048 11.0372L 3.59957 12.6365ZM 5.24746 13.185C 6.05209 13.1864 6.85177 12.8341 7.39494 12.1612L 5.83861 10.905C 5.69053 11.0885 5.47347 11.1854 5.25085 11.185L 5.24746 13.185ZM 7.396 29.5665L 14.396 20.8636L 12.8376 19.6101L 5.83756 28.313L 7.396 29.5665ZM 14.3962 20.8633C 15.348 19.6792 15.1532 17.9531 13.9672 17.0075L 12.7203 18.5712C 13.0429 18.8284 13.0931 19.2922 12.8373 19.6104L 14.3962 20.8633ZM 13.9668 17.0071C 12.7812 16.0629 11.0539 16.255 10.1051 17.434L 11.6632 18.6878C 11.9219 18.3663 12.3961 18.313 12.7208 18.5716L 13.9668 17.0071ZM 10.1049 17.4342L 4.1645 24.8211L 5.72306 26.0745L 11.6634 18.6876L 10.1049 17.4342ZM 5.54185 24.6463L 3.3981 23.0466L 2.20196 24.6495L 4.34571 26.2492L 5.54185 24.6463ZM 3.39683 23.0456C 2.18335 22.1431 0.464418 22.3875 -0.447454 23.5928L 1.14752 24.7995C 1.39589 24.4712 1.86971 24.4023 2.20323 24.6504L 3.39683 23.0456ZM -0.44844 23.5941C -1.36328 24.8075 -1.11348 26.5282 0.10221 27.4349L 1.29785 25.8316C 0.968294 25.5858 0.903092 25.1237 1.1485 24.7982L -0.44844 23.5941ZM 0.102065 27.4347L 3.60206 30.0459L 4.79799 28.4428L 1.29799 25.8317L 0.102065 27.4347ZM 3.60099 30.0451C 4.06143 30.371 4.73528 30.5815 5.24915 30.5925L 5.24915 28.5925C 5.03153 28.6035 4.96688 28.5877 4.79906 28.4436L 3.60099 30.0451ZM 5.24746 30.5925C 6.05226 30.5939 6.85231 30.2415 7.39556 29.567L 5.83799 28.3124C 5.68999 28.4962 5.4733 28.5929 5.25085 28.5925L 5.24746 30.5925ZM 7.39603 46.9739L 14.396 38.2702L 12.8375 37.0168L 5.83753 45.7205L 7.39603 46.9739ZM 14.3958 38.2704C 15.3481 37.0871 15.1534 35.3594 13.9667 34.4145L 12.7209 35.9792C 13.0427 36.2354 13.093 36.6993 12.8377 37.0165L 14.3958 38.2704ZM 13.9662 34.4142C 12.782 33.4724 11.0541 33.6602 10.1044 34.8432L 11.6639 36.0953C 11.9217 35.7743 12.3953 35.7202 12.7213 35.9795L 13.9662 34.4142ZM 10.1049 34.8425L 4.16454 42.2286L 5.72302 43.482L 11.6634 36.096L 10.1049 34.8425ZM 5.54164 42.0537L 3.39789 40.4548L 2.20217 42.058L 4.34592 43.6569L 5.54164 42.0537ZM 3.39799 40.4549C 2.18405 39.5492 0.46408 39.7941 -0.447784 41.0008L 1.14784 42.2066C 1.39623 41.8779 1.86901 41.8095 2.20207 42.0579L 3.39799 40.4549ZM -0.44844 41.0016C -1.36328 42.215 -1.11348 43.9357 0.10221 44.8424L 1.29785 43.2391C 0.968294 42.9933 0.903092 42.5312 1.1485 42.2057L -0.44844 41.0016ZM 0.102066 44.8422L 3.60206 47.4534L 4.79799 45.8503L 1.29799 43.2392L 0.102066 44.8422ZM 3.60099 47.4526C 4.06143 47.7785 4.73528 47.989 5.24915 48L 5.24915 46C 5.03153 46.011 4.96688 45.9952 4.79906 45.8511L 3.60099 47.4526ZM 5.24746 48C 6.05226 48.0014 6.85231 47.649 7.39556 46.9745L 5.83799 45.7199C 5.68999 45.9037 5.47329 46.0004 5.25085 46L 5.24746 48Z"/>
</defs>
</svg>
