<svg width="86" height="82" viewBox="0 0 86 82" version="1.1" xmlns="http://www.w3.org/2000/svg" xmlns:xlink="http://www.w3.org/1999/xlink">
<title>Medical Icon</title>
<desc>Created using Figma</desc>
<g id="Canvas" transform="matrix(2 0 0 2 -1730 -512)">
<g id="Medical Icon">
<g id="Group">
<g id="Group">
<g id="Group">
<g id="Vector">
<use xlink:href="#path0_fill" transform="translate(865 256)" fill="#496274"/>
</g>
</g>
</g>
</g>
</g>
</g>
<defs>
<path id="path0_fill" fill-rule="evenodd" d="M 25.3322 6.79447L 17.668 6.79447C 14.7609 6.79447 12.3824 5.7411 12.3824 4.45351C 12.3824 3.16591 14.7609 2.11254 17.668 2.11254L 25.3322 2.11254C 28.2393 2.11254 30.6179 3.16591 30.6179 4.45351C 30.6179 5.7411 28.2393 6.79447 25.3322 6.79447ZM 30.3536 26.5872L 24.01 26.5872L 24.01 32.9256L 20.6383 32.9256L 20.6383 26.5872L 14.2945 26.5872L 14.2945 23.2182L 20.6383 23.2182L 20.6383 16.8798L 24.01 16.8798L 24.01 23.2182L 30.3536 23.2182L 30.3536 26.5872ZM 40.6524 7.64556C 39.9798 7.19612 38.9554 6.99252 37.8642 6.80635C 35.46 6.39652 32.7321 6.07251 32.7321 3.39724C 32.7321 1.52869 30.3536 9.31789e-10 27.4465 9.31789e-10L 15.5538 9.31789e-10C 12.6467 9.31789e-10 10.2684 1.52869 10.2681 3.39724C 10.2676 6.02577 7.06875 6.62468 5.04382 6.82088C 2.24005 7.09234 6.77985e-09 9.11061 6.77985e-09 12.0758L 6.77985e-09 35.7186C 6.77985e-09 38.6234 2.37854 41 5.28564 41L 37.7144 41C 40.6215 41 43 38.6234 43 35.7186L 43 12.0758C 43 10.3203 42.117 8.62393 40.6524 7.64556Z"/>
</defs>
</svg>
