<svg width="152" height="138" viewBox="0 0 152 138" version="1.1" xmlns="http://www.w3.org/2000/svg" xmlns:xlink="http://www.w3.org/1999/xlink">
<title>advertise</title>
<desc>Created using Figma</desc>
<g id="Canvas" transform="matrix(2 0 0 2 3048 -412)">
<g id="advertise">
<g id="Group">
<g id="Group">
<g id="Vector">
<use xlink:href="#path0_fill" transform="translate(-1524 214.796)" fill="#496274"/>
</g>
<g id="Vector">
<use xlink:href="#path1_fill" transform="translate(-1511.17 244.506)" fill="#496274"/>
</g>
<g id="Vector">
<use xlink:href="#path2_fill" transform="translate(-1465.48 226.044)" fill="#496274"/>
</g>
<g id="Vector">
<use xlink:href="#path3_fill" transform="translate(-1471.28 206)" fill="#496274"/>
</g>
<g id="Vector">
<use xlink:href="#path4_fill" transform="translate(-1459.67 244.649)" fill="#496274"/>
</g>
</g>
</g>
</g>
</g>
<defs>
<path id="path0_fill" d="M 45.5763 1.04447C 45.3758 0.519469 44.9162 0.135439 44.3604 0.0301148C 43.8063 -0.0784503 43.2358 0.111134 42.8528 0.52433L 28.3176 16.2501L 7.35413 24.1899C 4.50674 25.2691 2.25263 27.3853 1.00414 30.1497C -0.24271 32.9156 -0.330724 35.996 0.753142 38.8268C 2.42702 43.1969 6.71196 46.1347 11.4158 46.1347C 12.8028 46.1347 14.1686 45.8851 15.4758 45.3893L 17.4251 44.652L 29.7356 59.6097C 30.0518 59.9938 30.5179 60.2044 30.9971 60.2044C 31.1927 60.2044 31.3883 60.1704 31.5773 60.0991L 40.716 56.638C 41.205 56.4532 41.575 56.0449 41.7086 55.541C 41.8439 55.037 41.7282 54.4991 41.3973 54.0972L 29.773 39.9724L 36.4392 37.4478L 57.815 39.5738C 58.3773 39.6272 58.9282 39.3939 59.2721 38.9451C 59.616 38.5011 59.7024 37.908 59.502 37.383L 45.5763 1.04447ZM 36.3822 34.1876C 36.1296 34.165 35.8753 34.1957 35.639 34.2865L 26.5003 37.7476C 26.0113 37.9323 25.6413 38.3407 25.506 38.8446C 25.3708 39.3485 25.4881 39.8865 25.819 40.2884L 37.4416 54.4132L 31.5138 56.6574L 19.2033 41.6997C 18.8871 41.3157 18.421 41.105 17.9418 41.105C 17.7462 41.105 17.5506 41.1391 17.3616 41.2104L 14.3153 42.3641C 13.3814 42.7189 12.4051 42.8972 11.4158 42.8972C 8.05498 42.8972 4.99407 40.7988 3.79938 37.6763C 3.02356 35.6541 3.08712 33.4536 3.97866 31.4784C 4.86857 29.5048 6.47889 27.9929 8.51297 27.2233L 29.8366 19.1473C 30.0729 19.0582 30.2848 18.914 30.456 18.7293L 43.4672 4.65143L 55.5153 36.0916L 36.3822 34.1876Z"/>
<path id="path1_fill" d="M 7.14285 0.105577L 1.05038 2.41299C 0.209367 2.73059 -0.212771 3.66717 0.106684 4.50328C 0.354425 5.14981 0.973777 5.54842 1.63062 5.54842C 1.82457 5.54842 2.02016 5.51439 2.21085 5.44309L 8.30332 3.13568C 9.14433 2.81809 9.56647 1.88151 9.24702 1.0454C 8.92756 0.206044 7.98386 -0.210396 7.14285 0.105577Z"/>
<path id="path2_fill" d="M 12.2902 1.04511C 11.9691 0.207379 11.0271 -0.212299 10.186 0.106915L 1.04896 3.56804C 0.207948 3.88725 -0.212559 4.82221 0.106897 5.65994C 0.354638 6.30647 0.973992 6.70509 1.63083 6.70509C 1.82316 6.70509 2.02037 6.67106 2.21106 6.59814L 11.3481 3.13702C 12.1892 2.8178 12.6113 1.88123 12.2902 1.04511Z"/>
<path id="path3_fill" d="M 0.963723 11.4637C 1.1805 11.5609 1.40542 11.6063 1.62871 11.6063C 2.25296 11.6063 2.84623 11.2498 3.11679 10.6486L 6.88831 2.28425C 7.25829 1.46758 6.88994 0.508319 6.06849 0.142114C 5.24703 -0.224091 4.28052 0.142114 3.91543 0.957164L 0.143899 9.32154C -0.226082 10.1382 0.142267 11.0975 0.963723 11.4637Z"/>
<path id="path4_fill" d="M 10.7104 3.89166L 2.29696 0.142114C 1.4755 -0.224091 0.508989 0.142112 0.143898 0.957161C -0.226084 1.77383 0.142265 2.7331 0.963722 3.09768L 9.37713 6.84561C 9.59391 6.94283 9.81883 6.9882 10.0421 6.9882C 10.6664 6.9882 11.2596 6.63172 11.5302 6.03056C 11.9002 5.21551 11.5318 4.25625 10.7104 3.89166Z"/>
</defs>
</svg>
