<svg width="285" height="286" viewBox="0 0 285 286" version="1.1" xmlns="http://www.w3.org/2000/svg" xmlns:xlink="http://www.w3.org/1999/xlink">
<title>mobile-first</title>
<desc>Created using Figma</desc>
<g id="Canvas" transform="translate(-2735 -4811)">
<g id="mobile-first">
<g id="Vector">
<use xlink:href="#path0_fill" transform="translate(2735 4811)" fill="#496274"/>
</g>
<g id="Vector">
<use xlink:href="#path1_fill" transform="translate(2805.01 4937.29)" fill="#496274"/>
</g>
</g>
</g>
<defs>
<path id="path0_fill" d="M 262.76 4.7448e-08L 22.2401 4.7448e-08C 9.97281 4.7448e-08 -8.46246e-08 9.996 -8.46246e-08 22.285L -8.46246e-08 207.994C -8.46246e-08 220.287 9.97281 230.28 22.2401 230.28L 62.6005 230.28L 62.6005 222.852L 62.6005 215.423L 62.6005 181.995L 14.8262 181.995L 14.8262 22.285C 14.8262 18.1901 18.1459 14.8564 22.2401 14.8564L 262.76 14.8564C 266.851 14.8564 270.173 18.1901 270.173 22.285L 270.173 181.995L 178.021 181.995L 178.021 215.423L 178.021 222.852L 178.021 230.28L 262.76 230.28C 275.024 230.28 285 220.287 285 207.994L 285 22.285C 285 9.99967 275.024 4.7448e-08 262.76 4.7448e-08Z"/>
<path id="path1_fill" d="M 88.9605 1.8137C 86.8603 0.682065 84.457 1.61747e-07 81.8359 1.61747e-07L 70.4272 1.61747e-07L 66.7203 1.61747e-07L 51.8934 1.61747e-07L 48.1871 1.61747e-07L 44.4802 1.61747e-07L 14.8234 1.61747e-07C 12.1189 1.61747e-07 9.60676 0.725632 7.41318 1.92242C 3.01202 4.33099 1.08233e-07 8.82162 1.08233e-07 14.2801L 1.08233e-07 55.7133L 1.08233e-07 89.1405L 1.08233e-07 96.5694L 1.08233e-07 103.998L 1.08233e-07 144.857C 1.08233e-07 153.03 6.66784 159.71 14.8234 159.71L 53.0157 159.71L 63.4766 159.71L 81.8359 159.71C 85.5501 159.71 88.8588 158.274 91.3995 155.996C 94.4408 153.269 96.3736 149.308 96.3736 144.857L 96.3736 126.283L 96.3736 122.568L 96.3736 103.998L 96.3736 96.5694L 96.3736 89.1405L 96.3736 55.7133L 96.3736 14.2765C 96.3736 8.73082 93.4017 4.19296 88.9605 1.8137ZM 52.5955 146.776C 51.8137 147.886 50.7351 148.713 49.4754 149.148C 48.8748 149.358 48.2375 149.504 47.5646 149.504C 46.8258 149.504 46.1272 149.337 45.4645 149.09C 43.0108 148.151 41.2366 145.648 41.2366 142.67C 41.2366 140.552 42.1492 138.681 43.5537 137.426C 43.8431 137.168 44.1507 136.939 44.4802 136.736C 45.3958 136.178 46.4422 135.837 47.5646 135.837C 47.7816 135.837 47.9804 135.884 48.1871 135.906C 49.4754 136.043 50.6336 136.584 51.5748 137.426C 51.6836 137.519 51.7925 137.606 51.8934 137.708C 53.1165 138.956 53.8955 140.712 53.8911 142.67C 53.8911 144.215 53.403 145.63 52.5955 146.776ZM 81.5466 55.706L 81.5466 89.1339L 81.5466 96.5621L 81.5466 103.99L 81.5466 122.561L 81.5466 126.276L 66.7203 126.276L 51.8934 126.276L 48.1871 126.276L 44.4802 126.276L 14.827 126.276L 14.827 103.99L 14.827 96.5621L 14.827 89.1339L 14.827 55.706L 14.827 14.8498L 44.4802 14.8498L 48.1871 14.8498L 51.8934 14.8498L 66.7203 14.8498L 70.4272 14.8498L 81.5466 14.8498L 81.5466 55.706Z"/>
</defs>
</svg>
