<svg width="281" height="306" viewBox="0 0 281 306" version="1.1" xmlns="http://www.w3.org/2000/svg" xmlns:xlink="http://www.w3.org/1999/xlink">
<title>noun_583963_cc</title>
<desc>Created using Figma</desc>
<g id="Canvas" transform="translate(-4844 -4769)">
<g id="noun_583963_cc">
<g id="Group">
<g id="Vector">
<use xlink:href="#path0_stroke" transform="translate(4910.68 4887.59)" fill="#496274"/>
</g>
<g id="Vector">
<use xlink:href="#path1_stroke" transform="translate(4852 4928.86)" fill="#496274"/>
</g>
<g id="Vector">
<use xlink:href="#path2_fill" transform="translate(4984.19 4769)" fill="#496274"/>
</g>
</g>
</g>
</g>
<defs>
<path id="path0_stroke" d="M -2.51495e-06 57.1549L -2.51495e-06 49.1549C -4.04805 49.1549 -7.45817 52.1787 -7.94253 56.1977C -8.42689 60.2167 -5.83283 63.9641 -1.9007 64.9259L -2.51495e-06 57.1549ZM 33.6232 55.169L 39.4057 60.6974C 39.4935 60.6055 39.5791 60.5116 39.6624 60.4157L 33.6232 55.169ZM 74.1689 8.49896L 80.2081 13.7457C 80.6788 13.2038 81.0745 12.6011 81.3845 11.9538L 74.1689 8.49896ZM 95.2658 5.851L 89.2683 11.1453C 89.4388 11.3384 89.6185 11.5232 89.8068 11.6989L 95.2658 5.851ZM 181.631 8.16796L 184.846 0.842118C 182.059 -0.380657 178.82 0.0836674 176.489 2.04006L 181.631 8.16796ZM 184.269 44.9082L 180.502 37.8505C 177.767 39.3099 176.122 42.2176 176.279 45.3132C 176.436 48.4088 178.367 51.1352 181.235 52.3106L 184.269 44.9082ZM 182.62 87.2753L 179.342 79.9777C 176.509 81.2503 174.669 84.0474 174.621 87.1526C 174.574 90.2578 176.327 93.11 179.12 94.4688L 182.62 87.2753ZM 182.291 130.966L 178.551 123.895C 176.12 125.18 174.52 127.623 174.313 130.364C 174.106 133.105 175.321 135.76 177.531 137.396L 182.291 130.966ZM 177.016 171.348L 179.038 179.088L 179.046 179.086L 177.016 171.348ZM 53.072 169.693L 49.2849 176.739C 49.5224 176.867 49.7662 176.983 50.0153 177.086L 53.072 169.693ZM 0.329638 149.833L -7.67036 149.833C -7.67036 152.986 -5.81805 155.845 -2.94018 157.134C -0.0623145 158.423 3.30418 157.901 5.65671 155.801L 0.329638 149.833ZM 0.329638 57.1549L 8.32964 57.1549C 8.32964 52.7366 4.74792 49.1549 0.329638 49.1549L 0.329638 57.1549ZM -2.51495e-06 57.1549C -1.9007 64.9259 -1.89917 64.9262 -1.89755 64.9266C -1.89688 64.9268 -1.89516 64.9272 -1.89381 64.9275C -1.89208 64.928 -1.88803 64.9289 -1.88455 64.9298C -1.87951 64.931 -1.86903 64.9336 -1.85895 64.936C -1.84264 64.9399 -1.81227 64.9472 -1.77986 64.9549C -1.72286 64.9685 -1.62536 64.9915 -1.51351 65.0174C -1.30586 65.0655 -0.971359 65.1413 -0.575039 65.2273C 0.183794 65.3917 1.35178 65.632 2.71139 65.8795C 5.35754 66.3593 9.24373 66.9461 13.2662 67.2441C 17.2533 67.5283 22.144 67.519 26.3186 66.8661C 30.5207 66.1814 35.6607 64.6144 39.4057 60.6974L 27.8408 49.6405C 27.6301 49.8609 26.5894 50.6109 23.7454 51.0744C 20.874 51.5695 17.8533 51.5396 14.4235 51.286C 11.0291 51.046 7.99286 50.5778 5.5708 50.1371C 4.39631 49.9243 3.49374 49.7378 2.81555 49.5907C 2.49336 49.5209 2.26773 49.4697 2.09488 49.4296C 2.01648 49.4115 1.96864 49.4002 1.92786 49.3905C 1.91137 49.3866 1.90475 49.385 1.89628 49.3829C 1.89397 49.3824 1.89273 49.3821 1.89392 49.3823C 1.89356 49.3823 1.89633 49.3829 1.89616 49.3829C 1.89672 49.383 1.89786 49.3833 1.89814 49.3834C 1.89936 49.3837 1.90069 49.384 -2.51495e-06 57.1549ZM 39.6624 60.4157L 80.2081 13.7457L 68.1297 3.25225L 27.584 49.9223L 39.6624 60.4157ZM 74.1689 8.49896C 81.3845 11.9538 81.3829 11.957 81.3814 11.9602C 81.3809 11.9612 81.3794 11.9643 81.3785 11.9663C 81.3793 11.9646 81.3715 11.9807 81.3731 11.9773C 81.3743 11.9749 81.3621 12.0001 81.3645 11.9951C 81.365 11.9942 81.3538 12.0168 81.3551 12.0142C 81.3486 12.0272 81.3558 12.0124 81.3672 11.9906C 81.409 11.9097 81.4335 11.8627 81.5091 11.7305C 81.7027 11.3871 81.8709 11.1015 82.2041 10.6352C 82.9671 9.53506 83.4121 8.90336 84.3809 8.33846C 84.9899 7.92622 85.1712 8.00184 85.2177 8.00967C 85.3967 8.03981 86.7981 8.34694 89.2683 11.1453L 101.263 0.556729C 97.3056 -3.92678 92.8559 -6.92958 87.874 -7.7683C 82.7596 -8.62932 78.4701 -6.98148 75.4119 -4.91127C 72.7135 -2.99372 70.2947 -0.232734 69.1108 1.43922C 68.4705 2.35897 67.8944 3.30423 67.5871 3.84521C 67.4123 4.15514 67.2472 4.46377 67.162 4.62779C 67.1099 4.72852 67.0563 4.83462 67.0308 4.88584C 67.0135 4.92053 66.9938 4.96058 66.9854 4.97797C 66.9789 4.99113 66.9709 5.00779 66.9677 5.01436C 66.965 5.01986 66.9614 5.02733 66.9601 5.03008C 66.9589 5.03256 66.9572 5.03608 66.9566 5.03732C 66.955 5.04075 66.9534 5.04413 74.1689 8.49896ZM 95.2658 5.851C 89.8068 11.6989 89.8098 11.7017 89.8129 11.7047C 89.8142 11.7059 89.8175 11.709 89.8201 11.7113C 89.8233 11.7143 89.8309 11.7214 89.8373 11.7274C 89.8463 11.7357 89.8656 11.7535 89.8837 11.7701C 89.912 11.7961 89.9665 11.8459 90.0232 11.8972C 90.1208 11.9854 90.2926 12.1389 90.4868 12.3087C 90.8425 12.6193 91.4309 13.1205 92.1291 13.6871C 93.4553 14.7605 95.5654 16.3717 98.0952 18.0719C 102.995 21.3487 110.629 25.6279 119.416 28.5208C 137.58 34.4135 162.183 34.934 186.774 14.2959L 176.489 2.04006C 156.908 18.4732 138.328 17.8352 124.353 13.3016C 117.07 10.9814 111.394 7.73045 107.002 4.78046C 104.886 3.36719 103.355 2.19087 102.201 1.25506C 101.659 0.816979 101.298 0.508149 101.014 0.259894C 100.889 0.15031 100.818 0.0870981 100.753 0.0285312C 100.729 0.00641228 100.722 0.000288097 100.71 -0.0112732C 100.707 -0.0135 100.708 -0.0122233 100.71 -0.0110397C 100.708 -0.0122176 100.716 -0.00516494 100.715 -0.00574323C 100.717 -0.0045711 100.719 -0.00236606 100.72 -0.0017818C 100.722 0.000564734 100.725 0.00306203 95.2658 5.851ZM 181.631 8.16796C 178.417 15.4938 178.414 15.4927 178.412 15.4916C 178.411 15.4913 178.409 15.4903 178.408 15.4898C 178.409 15.4901 178.401 15.4867 178.402 15.4873C 178.401 15.4868 178.399 15.4859 178.401 15.4867C 178.412 15.4917 178.417 15.4938 178.438 15.5034C 178.495 15.5293 178.554 15.5563 178.66 15.6063C 178.904 15.7206 179.196 15.8612 179.621 16.0776C 180.537 16.5423 181.635 17.1304 182.984 17.9684C 185.821 19.7133 188.473 21.5739 190.351 24.1192C 192.027 26.2789 192.013 27.4782 191.711 28.3762C 191.218 29.8416 189.007 33.311 180.502 37.8505L 188.035 51.9659C 197.825 46.7411 204.432 40.7358 206.875 33.4817C 209.508 25.66 206.549 18.8948 202.992 14.3105C 199.636 10.1119 194.769 6.44903 191.394 4.35644C 189.637 3.27566 187.956 2.3666 186.87 1.81376C 186.294 1.5214 185.779 1.27312 185.466 1.12577C 185.294 1.04492 185.137 0.972861 185.048 0.932469C 184.996 0.908891 184.945 0.886037 184.918 0.8743C 184.902 0.866791 184.883 0.858681 184.875 0.854945C 184.869 0.852269 184.862 0.849046 184.858 0.847713C 184.856 0.846646 184.853 0.845243 184.852 0.844711C 184.849 0.843381 184.846 0.842118 181.631 8.16796ZM 184.269 44.9082C 181.235 52.3106 181.232 52.3096 181.23 52.3086C 181.229 52.3084 181.227 52.3075 181.226 52.307C 181.226 52.3072 181.22 52.3048 181.221 52.3051C 181.219 52.3043 181.221 52.3049 181.225 52.3066C 181.24 52.313 181.251 52.3176 181.281 52.3301C 181.355 52.3615 181.438 52.3971 181.575 52.4579C 181.882 52.593 182.265 52.7655 182.801 53.0223C 183.939 53.5664 185.332 54.2714 186.998 55.257C 190.47 57.2921 193.731 59.4977 195.841 62.4605C 197.59 64.7858 197.588 66.1218 196.855 67.5941C 195.626 70.0607 191.421 74.5517 179.342 79.9777L 185.898 94.5728C 198.872 88.7451 207.399 82.3134 211.177 74.7261C 215.451 66.1444 212.729 58.2954 208.627 52.8423C 204.886 48.0268 199.164 43.8608 195.116 41.4689C 193.022 40.2409 191.02 39.2186 189.705 38.5887C 189.014 38.2585 188.404 37.9823 188.025 37.8156C 187.821 37.7254 187.638 37.6468 187.531 37.6016C 187.471 37.5759 187.413 37.5516 187.382 37.5388C 187.363 37.5308 187.343 37.5225 187.333 37.5185C 187.327 37.5158 187.319 37.5126 187.316 37.5112C 187.313 37.5101 187.31 37.5088 187.308 37.5083C 187.305 37.507 187.302 37.5058 184.269 44.9082ZM 182.62 87.2753C 179.12 94.4688 179.117 94.4675 179.115 94.4662C 179.114 94.4659 179.111 94.4647 179.11 94.4641C 179.111 94.4644 179.103 94.4605 179.104 94.4612C 179.103 94.4606 179.101 94.4597 179.103 94.4608C 179.116 94.4669 179.122 94.4697 179.145 94.4815C 179.208 94.5131 179.273 94.5464 179.39 94.6073C 179.656 94.746 179.977 94.9175 180.44 95.18C 181.437 95.7427 182.634 96.4572 184.091 97.4701C 187.152 99.5781 190.034 101.862 191.969 104.958C 193.671 107.542 193.931 109.525 193.126 111.548C 192.105 114.116 188.676 118.539 178.551 123.895L 186.031 138.038C 197.497 131.974 204.905 125.227 207.993 117.461C 211.299 109.151 208.942 101.639 205.33 96.1551C 201.949 91.1832 196.816 86.8262 193.192 84.3106C 191.306 83.0117 189.493 81.9187 188.315 81.2518C 187.69 80.8996 187.133 80.6007 186.792 80.4228C 186.606 80.3254 186.436 80.2388 186.339 80.1901C 186.283 80.1617 186.228 80.1343 186.199 80.1202C 186.181 80.1112 186.161 80.1015 186.152 80.097C 186.145 80.0938 186.138 80.09 186.134 80.0884C 186.132 80.0871 186.128 80.0855 186.127 80.0848C 186.124 80.0832 186.121 80.0817 182.62 87.2753ZM 182.291 130.966C 177.531 137.396 177.528 137.395 177.526 137.393C 177.526 137.393 177.524 137.391 177.523 137.391C 177.524 137.391 177.518 137.387 177.519 137.388C 177.518 137.386 177.518 137.387 177.521 137.389C 177.533 137.398 177.541 137.404 177.564 137.422C 177.623 137.466 177.688 137.516 177.797 137.601C 178.042 137.792 178.345 138.033 178.771 138.386C 179.677 139.136 180.783 140.093 182.095 141.377C 184.834 144.037 187.454 146.918 189.023 150.31C 190.499 153.347 190.251 154.961 189.593 156.072C 188.644 157.674 185.33 160.897 174.987 163.609L 179.046 179.086C 190.789 176.006 199.177 171.285 203.358 164.229C 207.83 156.682 206.14 148.925 203.413 143.316C 200.779 138.06 196.435 133.018 193.261 129.917C 191.617 128.32 190.029 126.937 188.981 126.067C 188.429 125.61 187.94 125.221 187.636 124.984C 187.471 124.855 187.323 124.742 187.238 124.677C 187.188 124.64 187.141 124.604 187.116 124.586C 187.101 124.574 187.084 124.562 187.076 124.556C 187.071 124.552 187.065 124.547 187.062 124.545C 187.06 124.543 187.057 124.541 187.056 124.54C 187.053 124.538 187.051 124.537 182.291 130.966ZM 177.016 171.348C 174.995 163.607 174.996 163.607 174.997 163.606C 174.997 163.607 174.998 163.606 174.998 163.606C 174.997 163.607 174.997 163.607 174.995 163.607C 174.988 163.609 174.981 163.611 174.968 163.614C 174.937 163.622 174.897 163.632 174.836 163.648C 174.705 163.681 174.523 163.727 174.267 163.79C 173.736 163.921 172.982 164.102 171.969 164.335C 169.904 164.809 166.977 165.447 163.235 166.165C 155.668 167.618 145.302 169.306 133.249 170.371C 108.963 172.529 79.5409 171.979 56.1287 162.3L 50.0153 177.086C 77.0379 188.258 109.588 188.536 134.665 186.308C 147.294 185.181 158.458 183.373 166.25 181.878C 170.188 181.122 173.397 180.423 175.55 179.929C 176.645 179.677 177.52 179.467 178.09 179.326C 178.384 179.254 178.622 179.194 178.772 179.156C 178.851 179.136 178.918 179.119 178.958 179.109C 178.98 179.103 179 179.098 179.011 179.095C 179.018 179.093 179.025 179.091 179.028 179.091C 179.03 179.09 179.033 179.089 179.034 179.089C 179.036 179.088 179.038 179.088 177.016 171.348ZM 53.072 169.693C 56.859 162.646 56.8584 162.645 56.8575 162.645C 56.857 162.645 56.856 162.644 56.8549 162.644C 56.8532 162.643 56.8501 162.641 56.8466 162.639C 56.8403 162.636 56.8298 162.63 56.8172 162.623C 56.7934 162.61 56.7557 162.59 56.7086 162.565C 56.6171 162.516 56.4768 162.441 56.2989 162.347C 55.9486 162.161 55.424 161.883 54.7654 161.538C 53.4598 160.853 51.5611 159.866 49.2877 158.712C 44.7657 156.416 38.5665 153.358 32.222 150.487C 25.8802 147.621 19.0079 144.789 13.4353 143.058C 10.5661 142.177 7.46189 141.456 5.07944 141.204C 3.14985 141.015 -1.47126 140.717 -4.99743 143.865L 5.65671 155.801C 3.61391 157.625 1.75354 156.955 3.51952 157.128C 4.83264 157.238 6.35887 157.614 8.71232 158.345C 13.5852 159.842 19.5277 162.306 25.6297 165.066C 31.7291 167.823 37.603 170.723 42.0431 172.978C 44.2507 174.099 46.0553 175.036 47.3327 175.706C 47.9657 176.038 48.4525 176.296 48.7908 176.476C 48.9572 176.564 49.0805 176.63 49.1665 176.676C 49.2081 176.698 49.2377 176.714 49.2588 176.725C 49.2688 176.731 49.2753 176.734 49.2803 176.737C 49.2825 176.738 49.2836 176.739 49.2847 176.739C 49.2851 176.74 49.2852 176.74 49.2854 176.74C 49.2852 176.74 49.2849 176.739 53.072 169.693ZM 8.32964 149.833L 8.32964 57.1549L -7.67036 57.1549L -7.67036 149.833L 8.32964 149.833ZM 0.329638 49.1549L -2.51495e-06 49.1549L -2.51495e-06 65.1549L 0.329638 65.1549L 0.329638 49.1549Z"/>
<path id="path1_stroke" d="M 0 -2.52528e-06L 0 -8C -2.57542 -8 -4.99334 -6.76013 -6.49635 -4.66878C -7.99935 -2.57742 -8.40362 0.109621 -7.5825 2.55063L 0 -2.52528e-06ZM 58.6758 -2.52528e-06L 66.6758 -2.52528e-06C 66.6758 -4.41828 63.0941 -8 58.6758 -8L 58.6758 -2.52528e-06ZM 58.6758 124.453L 58.6758 132.453C 63.0941 132.453 66.6758 128.872 66.6758 124.453L 58.6758 124.453ZM 41.8642 124.453L 34.2817 127.004C 35.377 130.26 38.4289 132.453 41.8642 132.453L 41.8642 124.453ZM 0 8L 58.6758 8L 58.6758 -8L 0 -8L 0 8ZM 50.6758 -2.52528e-06L 50.6758 124.453L 66.6758 124.453L 66.6758 -2.52528e-06L 50.6758 -2.52528e-06ZM 58.6758 116.453L 41.8642 116.453L 41.8642 132.453L 58.6758 132.453L 58.6758 116.453ZM 49.4467 121.903L 7.5825 -2.55064L -7.5825 2.55063L 34.2817 127.004L 49.4467 121.903Z"/>
<path id="path2_fill" d="M -5.0299e-06 15.8754C -5.0299e-06 15.8754 24.3933 80.0881 21.7562 124.441C 21.7562 124.441 63.6205 165.153 108.122 126.758C 108.122 126.758 113.066 38.383 129.878 16.2064C 129.548 15.8754 69.554 -19.8718 -5.0299e-06 15.8754ZM 67.5761 93.9898L 67.5761 104.582L 62.6315 104.582L 62.6315 93.9898C 59.3351 93.9898 53.072 92.0038 49.7756 91.0108L 50.1052 86.3769C 50.1052 84.06 49.7756 82.074 49.1163 79.7571L 54.3905 79.7571C 54.3905 81.743 54.7202 84.722 55.7091 86.3769C 57.3573 88.6939 62.6315 89.6869 65.2686 89.6869C 70.2132 89.6869 75.4875 87.0389 75.4875 81.412C 75.4875 70.1583 51.0941 74.1302 51.0941 60.2285C 51.0941 53.6086 56.698 48.3127 62.6315 47.3198L 62.6315 38.714L 67.5761 38.714L 67.5761 47.3198C 72.5207 47.3198 76.1467 48.6437 78.7839 51.6227C 78.4542 52.9466 78.1246 53.9396 78.4542 55.2636L 78.7839 61.2215L 73.5096 61.2215L 73.5096 58.9045C 73.5096 53.9396 70.5429 51.9537 65.5983 51.9537C 60.6537 51.9537 56.0387 54.6016 56.0387 59.8975C 56.0387 69.8273 80.4321 66.1864 80.4321 81.0811C 80.4321 88.0319 74.1689 93.3278 67.5761 93.9898Z"/>
</defs>
</svg>
