<svg width="184" height="136" viewBox="0 0 184 136" version="1.1" xmlns="http://www.w3.org/2000/svg" xmlns:xlink="http://www.w3.org/1999/xlink">
<title>online-app</title>
<desc>Created using Figma</desc>
<g id="Canvas" transform="matrix(2 0 0 2 3434 -412)">
<g id="online-app">
<g id="onboard">
<g id="noun_895328_cc">
<g id="Group">
<g id="Vector">
<use xlink:href="#path0_fill" transform="translate(-1717 206)" fill="#496274"/>
</g>
</g>
</g>
</g>
<g id="noun_645963_cc">
<g id="Group">
<g id="Vector">
<use xlink:href="#path1_fill" transform="translate(-1687 229)" fill="#496274"/>
</g>
<g id="Vector">
<use xlink:href="#path2_fill" transform="translate(-1682.36 235.08)" fill="#496274"/>
</g>
<g id="Vector">
<use xlink:href="#path2_fill" transform="translate(-1682.36 239.64)" fill="#496274"/>
</g>
<g id="Vector">
<use xlink:href="#path2_fill" transform="translate(-1682.36 244.2)" fill="#496274"/>
</g>
<g id="Vector">
<use xlink:href="#path2_fill" transform="translate(-1682.36 248.76)" fill="#496274"/>
</g>
<g id="Vector">
<use xlink:href="#path2_fill" transform="translate(-1682.36 253.32)" fill="#496274"/>
</g>
<g id="Vector">
<use xlink:href="#path3_fill" transform="translate(-1668.45 257.88)" fill="#496274"/>
</g>
</g>
</g>
</g>
</g>
<defs>
<path id="path0_fill" d="M 6 2.61719e-06C 2.71064 2.61719e-06 0 2.71056 0 6L 0 66C 5.30337e-05 66.5304 0.210784 67.0391 0.585845 67.4142C 0.960906 67.7892 1.46958 67.9999 2 68L 90 68C 90.5304 67.9999 91.0391 67.7892 91.4142 67.4142C 91.7892 67.0391 91.9999 66.5304 92 66L 92 6C 92 2.71056 89.2894 2.61719e-06 86 2.61719e-06L 6 2.61719e-06L 6 2.61719e-06ZM 6 4L 86 4C 87.1427 4 88 4.85724 88 6L 88 16L 4 16L 4 6C 4 4.85724 4.8573 4 6 4ZM 10 7C 8.34314 7 7 8.3431 7 10C 7 11.6568 8.34314 13 10 13C 11.6568 13 13 11.6568 13 10C 13 8.3431 11.6568 7 10 7ZM 20 7C 18.3431 7 17 8.3431 17 10C 17 11.6568 18.3431 13 20 13C 21.6568 13 23 11.6568 23 10C 23 8.3431 21.6568 7 20 7ZM 30 7C 28.3431 7 27 8.3431 27 10C 27 11.6568 28.3431 13 30 13C 31.6568 13 33 11.6568 33 10C 33 8.3431 31.6568 7 30 7ZM 4 20L 88 20L 88 64L 4 64L 4 20L 4 20Z"/>
<path id="path1_fill" d="M 34 0L 0 0L 0 38L 34 38L 34 0ZM 32.4545 36.48L 1.54545 36.48L 1.54545 1.52L 32.4545 1.52L 32.4545 36.48Z"/>
<path id="path2_fill" d="M 24.7273 0L 0 0L 0 1.52L 24.7273 1.52L 24.7273 0Z"/>
<path id="path3_fill" d="M 10.8182 0L 0 0L 0 4.56L 10.8182 4.56L 10.8182 0Z"/>
</defs>
</svg>
