<svg width="94" height="24" viewBox="0 0 94 24" version="1.1" xmlns="http://www.w3.org/2000/svg" xmlns:xlink="http://www.w3.org/1999/xlink">
<title>noun_666302_cc</title>
<desc>Created using Figma</desc>
<g id="Canvas" transform="matrix(2 0 0 2 -2852 -1076)">
<g id="noun_666302_cc">
<g id="Vector">
<use xlink:href="#path0_fill" transform="translate(1426 538)" fill="#496274"/>
</g>
</g>
</g>
<defs>
<path id="path0_fill" d="M 5.875 11.75C 2.62613 11.75 0 9.12387 0 5.875C 0 2.632 2.62613 0 5.875 0C 9.12387 0 11.75 2.632 11.75 5.875C 11.75 9.12387 9.118 11.75 5.875 11.75ZM 23.4941 11.75C 20.257 11.75 17.625 9.12387 17.625 5.875C 17.625 2.632 20.257 0 23.4941 0C 26.7489 0 29.3691 2.632 29.3691 5.875C 29.3691 9.12387 26.743 11.75 23.4941 11.75ZM 41.125 11.75C 37.8761 11.75 35.2383 9.12387 35.2383 5.875C 35.2383 2.632 37.8761 0 41.125 0C 44.3621 0 47 2.632 47 5.875C 47 9.12387 44.3621 11.75 41.125 11.75Z"/>
</defs>
</svg>
