<svg width="100" height="100" viewBox="0 0 100 100" version="1.1" xmlns="http://www.w3.org/2000/svg" xmlns:xlink="http://www.w3.org/1999/xlink">
<title>new-other</title>
<desc>Created using Figma</desc>
<g id="Canvas" transform="matrix(2 0 0 2 -4864 -9290)">
<g id="new-other">
<g id="Vector">
<use xlink:href="#path0_fill" transform="translate(2432 4645)" fill="#496274"/>
</g>
</g>
</g>
<defs>
<path id="path0_fill" d="M 28 25C 28 26.7 26.7 28 25 28C 23.3 28 22 26.7 22 25C 22 23.3 23.3 22 25 22C 26.7 22 28 23.3 28 25ZM 15 22C 13.3 22 12 23.3 12 25C 12 26.7 13.3 28 15 28C 16.7 28 18 26.7 18 25C 18 23.3 16.7 22 15 22ZM 35 22C 33.3 22 32 23.3 32 25C 32 26.7 33.3 28 35 28C 36.7 28 38 26.7 38 25C 38 23.3 36.7 22 35 22ZM 50 25C 50 38.8 38.8 50 25 50C 11.2 50 0 38.8 0 25C 0 11.2 11.2 0 25 0C 38.8 0 50 11.2 50 25ZM 46 25C 46 13.4 36.6 4 25 4C 13.4 4 4 13.4 4 25C 4 36.6 13.4 46 25 46C 36.6 46 46 36.6 46 25Z"/>
</defs>
</svg>
