<svg width="284" height="279" viewBox="0 0 284 279" version="1.1" xmlns="http://www.w3.org/2000/svg" xmlns:xlink="http://www.w3.org/1999/xlink">
<title>noun_798456_cc</title>
<desc>Created using Figma</desc>
<g id="Canvas" transform="translate(-3799 -4801)">
<g id="noun_798456_cc">
<g id="Vector">
<use xlink:href="#path0_fill" transform="translate(3799 4801)" fill="#496274"/>
</g>
</g>
</g>
<defs>
<path id="path0_fill" d="M 215.316 122.832L 188.364 156.496C 189.077 161.448 188.211 166.498 185.889 170.931C 183.567 175.364 179.907 178.955 175.427 181.195C 170.947 183.434 165.874 184.209 160.929 183.409C 155.984 182.608 151.416 180.274 147.873 176.736C 144.331 173.199 141.993 168.637 141.192 163.699C 140.39 158.761 141.166 153.695 143.408 149.222C 145.651 144.748 149.247 141.093 153.686 138.774C 158.126 136.455 163.183 135.591 168.142 136.303L 201.883 109.302C 203.732 107.829 206.06 107.087 208.422 107.218C 210.784 107.35 213.014 108.347 214.687 110.017C 216.36 111.687 217.357 113.915 217.489 116.273C 217.622 118.632 216.879 120.957 215.403 122.803L 215.316 122.832ZM 272.138 75.1478C 274.719 72.6765 276.406 69.4197 276.933 65.888C 277.259 63.554 277.042 61.1764 276.298 58.9401C 275.553 56.7038 274.302 54.6691 272.642 52.9944C 270.982 51.3197 268.957 50.0502 266.725 49.2845C 264.493 48.5188 262.114 48.2777 259.774 48.5799C 256.208 49.1378 252.932 50.8748 250.472 53.5127L 237.819 66.1476C 221.078 53.0816 201.12 44.761 180.044 42.0605L 180.044 30.5218L 191.253 30.5218C 195.122 30.5766 198.876 29.2118 201.805 26.6863C 204.733 24.1607 206.632 20.65 207.141 16.8196C 207.35 14.6929 207.112 12.546 206.441 10.5168C 205.77 8.48759 204.681 6.62104 203.245 5.03712C 201.808 3.45321 200.056 2.18696 198.1 1.31979C 196.144 0.452619 194.028 0.00370384 191.888 0.00190208L 138.504 0.00190208C 134.621 -0.0582762 130.852 1.31133 127.916 3.84932C 124.98 6.38731 123.083 9.91597 122.587 13.7618C 122.377 15.8885 122.615 18.0354 123.286 20.0646C 123.957 22.0938 125.046 23.9604 126.483 25.5443C 127.919 27.1282 129.672 28.3944 131.627 29.2616C 133.583 30.1288 135.699 30.5777 137.839 30.5795L 149.539 30.5795L 149.539 42.1182C 129.679 44.7395 110.801 52.3195 94.6522 64.1572C 91.3846 66.5518 89.2034 70.1446 88.5885 74.1452C 87.9736 78.1458 88.9754 82.2264 91.3734 85.4894C 93.7715 88.7524 97.3693 90.9305 101.376 91.5445C 105.382 92.1585 109.468 91.1582 112.736 88.7635C 125.652 79.2589 140.918 73.4502 156.893 71.9622C 172.868 70.4741 188.947 73.3631 203.401 80.3182C 217.855 87.2734 230.136 98.0316 238.925 111.436C 247.713 124.84 252.676 140.383 253.279 156.394C 253.883 172.404 250.104 188.276 242.35 202.302C 234.595 216.328 223.158 227.977 209.269 235.998C 195.38 244.018 179.564 248.106 163.522 247.821C 147.48 247.537 131.82 242.89 118.225 234.382C 114.816 232.419 110.782 231.841 106.958 232.769C 103.135 233.698 99.8163 236.06 97.6906 239.366C 95.565 242.673 94.7957 246.669 95.5424 250.527C 96.289 254.385 98.4944 257.807 101.701 260.085C 125.852 275.394 154.754 281.412 183.02 277.018C 210.8 272.658 236.141 258.63 254.564 237.414C 272.987 216.198 283.305 189.161 283.693 161.082C 284.074 134.648 275.503 108.859 259.37 87.8981L 272.138 75.1478ZM 28.5572 152.803C 26.9045 152.723 25.2526 152.979 23.7018 153.555C 22.151 154.131 20.7335 155.016 19.5354 156.156C 18.3372 157.295 17.3834 158.666 16.7316 160.185C 16.0798 161.704 15.7438 163.339 15.7438 164.991C 15.7438 166.644 16.0798 168.279 16.7316 169.797C 17.3834 171.316 18.3372 172.687 19.5354 173.827C 20.7335 174.966 22.151 175.851 23.7018 176.427C 25.2526 177.004 26.9045 177.259 28.5572 177.179L 99.1009 177.179C 100.754 177.259 102.405 177.004 103.956 176.427C 105.507 175.851 106.925 174.966 108.123 173.827C 109.321 172.687 110.275 171.316 110.926 169.797C 111.578 168.279 111.914 166.644 111.914 164.991C 111.914 163.339 111.578 161.704 110.926 160.185C 110.275 158.666 109.321 157.295 108.123 156.156C 106.925 155.016 105.507 154.131 103.956 153.555C 102.405 152.979 100.754 152.723 99.1009 152.803L 28.5572 152.803ZM 127.064 121.505C 127.064 119.902 126.748 118.315 126.134 116.835C 125.52 115.355 124.62 114.009 123.485 112.876C 122.35 111.743 121.003 110.844 119.521 110.231C 118.038 109.618 116.449 109.302 114.845 109.302L 44.301 109.302C 42.6482 109.222 40.9964 109.478 39.4456 110.054C 37.8948 110.63 36.4773 111.515 35.2792 112.655C 34.081 113.794 33.1271 115.165 32.4754 116.684C 31.8236 118.203 31.4875 119.838 31.4875 121.49C 31.4875 123.143 31.8236 124.778 32.4754 126.296C 33.1271 127.815 34.081 129.186 35.2792 130.326C 36.4773 131.465 37.8948 132.35 39.4456 132.926C 40.9964 133.503 42.6482 133.758 44.301 133.678L 114.845 133.678C 118.08 133.678 121.184 132.396 123.475 130.114C 125.766 127.832 127.056 124.736 127.064 121.505ZM 83.3571 220.709C 85.0098 220.789 86.6617 220.533 88.2125 219.957C 89.7633 219.381 91.1808 218.496 92.3789 217.356C 93.5771 216.217 94.5309 214.846 95.1827 213.327C 95.8345 211.809 96.1705 210.173 96.1705 208.521C 96.1705 206.869 95.8345 205.233 95.1827 203.715C 94.5309 202.196 93.5771 200.825 92.3789 199.686C 91.1808 198.546 89.7633 197.661 88.2125 197.085C 86.6617 196.509 85.0098 196.253 83.3571 196.333L 12.8134 196.333C 11.1607 196.253 9.50884 196.509 7.95803 197.085C 6.40721 197.661 4.98976 198.546 3.79161 199.686C 2.59347 200.825 1.63959 202.196 0.987832 203.715C 0.33607 205.233 2.07771e-08 206.869 2.07771e-08 208.521C 2.07771e-08 210.173 0.33607 211.809 0.987832 213.327C 1.63959 214.846 2.59347 216.217 3.79161 217.356C 4.98976 218.496 6.40721 219.381 7.95803 219.957C 9.50884 220.533 11.1607 220.789 12.8134 220.709L 83.3571 220.709Z"/>
</defs>
</svg>
