<svg width="108" height="88" viewBox="0 0 108 88" version="1.1" xmlns="http://www.w3.org/2000/svg" xmlns:xlink="http://www.w3.org/1999/xlink">
<title>staffing</title>
<desc>Created using Figma</desc>
<g id="Canvas" transform="matrix(2 0 0 2 -2848 -524)">
<g id="staffing">
<g id="Vector">
<use xlink:href="#path0_fill" transform="translate(1427.47 262)" fill="#496274"/>
</g>
<g id="Vector">
<use xlink:href="#path1_fill" transform="translate(1424 272.715)" fill="#496274"/>
</g>
<g id="Vector">
<use xlink:href="#path0_fill" transform="translate(1446.66 262)" fill="#496274"/>
</g>
<g id="Vector">
<use xlink:href="#path2_fill" transform="translate(1443.19 272.715)" fill="#496274"/>
</g>
<g id="Vector">
<use xlink:href="#path3_fill" transform="translate(1465.28 262)" fill="#496274"/>
</g>
<g id="Vector">
<use xlink:href="#path4_fill" transform="translate(1461.81 272.715)" fill="#496274"/>
</g>
</g>
</g>
<defs>
<path id="path0_fill" d="M 4.60405 9.27494C 7.1468 9.27494 9.20811 7.19868 9.20811 4.63747C 9.20811 2.07627 7.1468 0 4.60405 0C 2.06131 0 2.83275e-06 2.07627 2.83275e-06 4.63747C 2.83275e-06 7.19868 2.06131 9.27494 4.60405 9.27494Z"/>
<path id="path1_fill" d="M 11.4181 0.00014668L 4.73483 0.00014668C 3.47929 0.00014668 2.27518 0.502523 1.38738 1.39677C 0.499579 2.29101 0.000819765 3.50386 0.000819765 4.76851L 0.000819765 14.4548C -0.019883 15.5757 0.352119 16.668 1.0515 17.54C 1.75088 18.412 2.73292 19.008 3.82515 19.2232L 3.82515 29.7697C 3.82515 30.7021 4.19287 31.5963 4.8474 32.2555C 5.50193 32.9148 6.38967 33.2852 7.31532 33.2852L 8.76337 33.2852C 9.68902 33.2852 10.5768 32.9148 11.2313 32.2555C 11.8858 31.5963 12.2535 30.7021 12.2535 29.7697L 12.2535 19.1297C 13.3504 18.9407 14.3462 18.3685 15.0659 17.5136C 15.7856 16.6587 16.1834 15.5757 16.1893 14.4548L 16.1893 4.76851C 16.1893 4.13916 16.0656 3.51603 15.8254 2.93506C 15.5852 2.35408 15.2331 1.82675 14.7896 1.38348C 14.3461 0.9402 13.8198 0.589746 13.2412 0.352324C 12.6625 0.114902 12.0429 -0.0047894 11.4181 0.00014668Z"/>
<path id="path2_fill" d="M 11.4181 2.28265e-06L 4.73483 2.28265e-06C 3.47929 2.28265e-06 2.27518 0.502379 1.38738 1.39662C 0.499581 2.29086 0.000817496 3.50372 0.000817496 4.76837L 0.000817496 14.4547C -0.0198853 15.5755 0.35212 16.6679 1.0515 17.5399C 1.75088 18.4119 2.73292 19.0078 3.82515 19.2231L 3.82515 29.7696C 3.82515 30.7019 4.19287 31.5961 4.8474 32.2554C 5.50194 32.9147 6.38967 33.2851 7.31532 33.2851L 8.83763 33.2851C 9.76328 33.2851 10.651 32.9147 11.3056 32.2554C 11.9601 31.5961 12.3278 30.7019 12.3278 29.7696L 12.3278 29.7696L 12.3278 19.1296C 13.4042 18.9173 14.3741 18.335 15.0716 17.4824C 15.7691 16.6297 16.1511 15.5595 16.1521 14.4547L 16.1521 4.76837C 16.1521 4.14218 16.0297 3.52212 15.7918 2.94359C 15.5539 2.36507 15.2052 1.8394 14.7656 1.39662C 14.326 0.953837 13.8041 0.602605 13.2297 0.362972C 12.6554 0.123339 12.0398 2.28265e-06 11.4181 2.28265e-06L 11.4181 2.28265e-06Z"/>
<path id="path3_fill" d="M 4.60405 9.27494C 7.14679 9.27494 9.20811 7.19868 9.20811 4.63747C 9.20811 2.07627 7.14679 0 4.60405 0C 2.0613 0 2.83275e-06 2.07627 2.83275e-06 4.63747C 2.83275e-06 7.19868 2.0613 9.27494 4.60405 9.27494Z"/>
<path id="path4_fill" d="M 11.4181 0.00014896L 4.73483 0.00014896C 3.47929 0.00014896 2.27518 0.502525 1.38738 1.39677C 0.499581 2.29101 0.000817496 3.50386 0.000817496 4.76851L 0.000817496 14.4548C -0.0198853 15.5757 0.35212 16.668 1.0515 17.54C 1.75088 18.412 2.73291 19.008 3.82515 19.2232L 3.82515 29.7697C 3.82515 30.7021 4.19287 31.5963 4.8474 32.2555C 5.50194 32.9148 6.38967 33.2852 7.31532 33.2852L 8.76337 33.2852C 9.68902 33.2852 10.5768 32.9148 11.2313 32.2555C 11.8858 31.5963 12.2535 30.7021 12.2535 29.7697L 12.2535 29.7697L 12.2535 19.1297C 13.3504 18.9407 14.3462 18.3685 15.0659 17.5136C 15.7856 16.6587 16.1834 15.5757 16.1893 14.4548L 16.1893 4.76851C 16.1893 4.13916 16.0656 3.51604 15.8254 2.93506C 15.5852 2.35408 15.2331 1.82675 14.7896 1.38348C 14.3461 0.940202 13.8198 0.589748 13.2412 0.352326C 12.6625 0.114904 12.0429 -0.00478712 11.4181 0.00014896L 11.4181 0.00014896Z"/>
</defs>
</svg>
