<svg width="227" height="300" viewBox="0 0 227 300" version="1.1" xmlns="http://www.w3.org/2000/svg" xmlns:xlink="http://www.w3.org/1999/xlink">
<title>stress-free-compliance</title>
<desc>Created using Figma</desc>
<g id="Canvas" transform="translate(-6968 -4753)">
<g id="stress-free-compliance">
<g id="Group">
<g id="Vector">
<use xlink:href="#path0_stroke" transform="translate(6977 4792.65)" fill="#496274"/>
</g>
<g id="Vector">
<use xlink:href="#path1_stroke" transform="translate(7001.59 4847.83)" fill="#496274"/>
</g>
<g id="Vector">
<use xlink:href="#path2_stroke" transform="translate(7001.59 4909.13)" fill="#496274"/>
</g>
<g id="Vector">
<use xlink:href="#path3_stroke" transform="translate(7001.59 4970.43)" fill="#496274"/>
</g>
<g id="Vector">
<use xlink:href="#path4_stroke" transform="translate(7081.5 4853.96)" fill="#496274"/>
</g>
<g id="Vector">
<use xlink:href="#path4_stroke" transform="translate(7081.5 4915.26)" fill="#496274"/>
</g>
<g id="Vector">
<use xlink:href="#path5_stroke" transform="translate(7081.5 4976.57)" fill="#496274"/>
</g>
<g id="Vector">
<use xlink:href="#path4_stroke" transform="translate(7081.5 4878.48)" fill="#496274"/>
</g>
<g id="Vector">
<use xlink:href="#path5_stroke" transform="translate(7081.5 4939.78)" fill="#496274"/>
</g>
<g id="Vector">
<use xlink:href="#path5_stroke" transform="translate(7081.5 5001.09)" fill="#496274"/>
</g>
<g id="Vector">
<use xlink:href="#path6_stroke" transform="translate(7032.32 4762)" fill="#496274"/>
</g>
</g>
</g>
</g>
<defs>
<path id="path0_stroke" d="M 153.551 8.5L 196.706 8.5L 196.706 -8.5L 153.551 -8.5L 153.551 8.5ZM 196.706 8.5C 198.823 8.5 200.5 10.2055 200.5 12.2609L 217.5 12.2609C 217.5 0.773258 208.168 -8.5 196.706 -8.5L 196.706 8.5ZM 200.5 12.2609L 200.5 239.087L 217.5 239.087L 217.5 12.2609L 200.5 12.2609ZM 200.5 239.087C 200.5 241.142 198.823 242.848 196.706 242.848L 196.706 259.848C 208.168 259.848 217.5 250.574 217.5 239.087L 200.5 239.087ZM 196.706 242.848L 12.2941 242.848L 12.2941 259.848L 196.706 259.848L 196.706 242.848ZM 12.2941 242.848C 10.177 242.848 8.5 241.142 8.5 239.087L -8.5 239.087C -8.5 250.574 0.831564 259.848 12.2941 259.848L 12.2941 242.848ZM 8.5 239.087L 8.5 12.2609L -8.5 12.2609L -8.5 239.087L 8.5 239.087ZM 8.5 12.2609C 8.5 10.2055 10.177 8.5 12.2941 8.5L 12.2941 -8.5C 0.831567 -8.5 -8.5 0.77326 -8.5 12.2609L 8.5 12.2609ZM 12.2941 8.5L 55.3215 8.5L 55.3215 -8.5L 12.2941 -8.5L 12.2941 8.5Z"/>
<path id="path1_stroke" d="M 12.2941 30.6521L 6.29186 36.6707L 11.7733 42.1373L 17.727 37.1893L 12.2941 30.6521ZM -6.00226 24.4098L 6.29186 36.6707L 18.2964 24.6336L 6.00226 12.3727L -6.00226 24.4098ZM 17.727 37.1893L 54.6093 6.53712L 43.7436 -6.53712L 6.86125 24.115L 17.727 37.1893Z"/>
<path id="path2_stroke" d="M 12.2941 30.6522L 6.29185 36.6707L 11.7733 42.1373L 17.727 37.1893L 12.2941 30.6522ZM -6.00226 24.4098L 6.29185 36.6707L 18.2964 24.6336L 6.00226 12.3728L -6.00226 24.4098ZM 17.727 37.1893L 54.6093 6.53712L 43.7436 -6.53712L 6.86125 24.115L 17.727 37.1893Z"/>
<path id="path3_stroke" d="M 12.2941 30.6521L 6.29186 36.6707L 11.7733 42.1373L 17.727 37.1893L 12.2941 30.6521ZM -6.00226 24.4098L 6.29186 36.6707L 18.2964 24.6336L 6.00226 12.3727L -6.00226 24.4098ZM 17.727 37.1893L 54.6093 6.53712L 43.7436 -6.53712L 6.86125 24.115L 17.727 37.1893Z"/>
<path id="path4_stroke" d="M 0 8.5L 79.9118 8.5L 79.9118 -8.5L 0 -8.5L 0 8.5Z"/>
<path id="path5_stroke" d="M 0 8.5L 79.9118 8.5L 79.9118 -8.5L 0 -8.5L 0 8.5Z"/>
<path id="path6_stroke" d="M 60.0984 6.62633L 52.5562 10.5463L 52.5562 10.5463L 60.0984 6.62633ZM 38.2546 6.62633L 45.7967 10.5464L 45.7967 10.5464L 38.2546 6.62633ZM 0 49.0434L -8.5 49.0434L -8.5 57.5434L 0 57.5434L 0 49.0434ZM 98.3529 49.0434L 98.3529 57.5434L 106.853 57.5434L 106.853 49.0434L 98.3529 49.0434ZM 86.0588 3.76086L 68.6197 3.76086L 68.6197 20.7609L 86.0588 20.7609L 86.0588 3.76086ZM 68.6197 3.76086C 68.612 3.76086 68.5681 3.77397 68.419 3.67156C 68.2335 3.54418 67.9218 3.24757 67.6405 2.70638L 52.5562 10.5463C 55.3709 15.9618 61.021 20.7609 68.6197 20.7609L 68.6197 3.76086ZM 67.6405 2.70638C 64.1855 -3.94128 57.2157 -8.5 49.1765 -8.5L 49.1765 8.5C 50.6434 8.5 51.9194 9.32097 52.5562 10.5463L 67.6405 2.70638ZM 49.1765 -8.5C 41.1375 -8.5 34.1677 -3.94125 30.7125 2.70626L 45.7967 10.5464C 46.4337 9.32094 47.7098 8.5 49.1765 8.5L 49.1765 -8.5ZM 30.7126 2.70624C 30.4312 3.24748 30.1195 3.54412 29.934 3.67152C 29.7849 3.77396 29.7409 3.76086 29.7332 3.76086L 29.7332 20.7609C 37.3318 20.7609 42.982 15.9618 45.7967 10.5464L 30.7126 2.70624ZM 29.7332 3.76086L 12.2941 3.76086L 12.2941 20.7609L 29.7332 20.7609L 29.7332 3.76086ZM 12.2941 3.76086C 0.831561 3.76086 -8.5 13.0341 -8.5 24.5217L 8.5 24.5217C 8.5 22.4663 10.177 20.7609 12.2941 20.7609L 12.2941 3.76086ZM -8.5 24.5217L -8.5 49.0434L 8.5 49.0434L 8.5 24.5217L -8.5 24.5217ZM 0 57.5434L 98.3529 57.5434L 98.3529 40.5434L 0 40.5434L 0 57.5434ZM 106.853 49.0434L 106.853 24.5217L 89.8529 24.5217L 89.8529 49.0434L 106.853 49.0434ZM 106.853 24.5217C 106.853 13.0341 97.5214 3.76086 86.0588 3.76086L 86.0588 20.7609C 88.176 20.7609 89.8529 22.4664 89.8529 24.5217L 106.853 24.5217Z"/>
</defs>
</svg>
