<svg width="20" height="16" viewBox="0 0 20 16" version="1.1" xmlns="http://www.w3.org/2000/svg" xmlns:xlink="http://www.w3.org/1999/xlink">
<title>twitter_simple</title>
<desc>Created using Figma</desc>
<g id="Canvas" transform="translate(407 361)">
<g id="twitter_simple">
<use xlink:href="#path0_fill" transform="translate(-407 -361)" fill="#FFFFFF"/>
</g>
</g>
<defs>
<path id="path0_fill" d="M 19.987 1.894C 19.251 2.216 18.462 2.431 17.63 2.529C 18.48 2.031 19.13 1.24 19.436 0.298C 18.644 0.759 17.766 1.095 16.831 1.276C 16.083 0.491 15.017 0 13.838 0C 11.572 0 9.738 1.807 9.738 4.038C 9.738 4.352 9.774 4.663 9.842 4.96C 6.435 4.788 3.413 3.181 1.39 0.739C 1.038 1.336 0.834 2.029 0.834 2.771C 0.834 4.17 1.56 5.406 2.658 6.131C 1.987 6.109 1.354 5.928 0.802 5.625C 0.801 5.642 0.801 5.659 0.801 5.677C 0.801 7.632 2.215 9.266 4.091 9.637C 3.748 9.727 3.386 9.779 3.01 9.779C 2.746 9.779 2.49 9.755 2.24 9.707C 2.76 11.311 4.274 12.478 6.068 12.512C 4.67 13.594 2.9 14.24 0.979 14.24C 0.649 14.24 0.321 14.222 0 14.184C 1.814 15.329 3.971 15.997 6.287 15.997C 13.828 15.997 17.953 9.843 17.953 4.506C 17.953 4.333 17.948 4.156 17.941 3.985C 18.741 3.414 19.438 2.703 19.987 1.894Z"/>
</defs>
</svg>
