<svg width="184" height="136" viewBox="0 0 184 136" version="1.1" xmlns="http://www.w3.org/2000/svg" xmlns:xlink="http://www.w3.org/1999/xlink">
<title>onboard</title>
<desc>Created using Figma</desc>
<g id="Canvas" transform="matrix(2 0 0 2 3048 -254)">
<g id="onboard">
<g id="noun_66520_cc">
<g id="Vector">
<use xlink:href="#path0_fill" transform="translate(-1516 163)" fill="#496274"/>
</g>
</g>
<g id="noun_895328_cc">
<g id="Group">
<g id="Vector">
<use xlink:href="#path1_fill" transform="translate(-1524 127)" fill="#496274"/>
</g>
</g>
</g>
</g>
</g>
<defs>
<path id="path0_fill" d="M 76 5.85329L 70.8678 0.713552L 70.8678 4.12093L 62.1805 4.12093C 61.6351 1.76257 59.5205 -1.8915e-07 56.9824 -1.8915e-07C 54.445 -1.8915e-07 52.3311 1.76257 51.7858 4.12093L 40.9132 4.12093C 40.3687 1.76257 38.2533 -1.8915e-07 35.7151 -1.8915e-07C 33.1785 -1.8915e-07 31.0646 1.76257 30.5193 4.12093L 19.646 4.12093C 19.1014 1.76257 16.9876 -1.8915e-07 14.4479 -1.8915e-07C 11.9112 -1.8915e-07 9.79739 1.76257 9.25206 4.12093L -3.8469e-08 4.12093L -3.8469e-08 7.54923L 9.61975 7.54923C 10.4707 9.35906 12.3061 10.6204 14.4471 10.6204C 16.5912 10.6204 18.4258 9.35906 19.2767 7.54923L 30.8862 7.54923C 31.738 9.35906 33.5726 10.6204 35.7143 10.6204C 37.8584 10.6204 39.6922 9.35906 40.544 7.54923L 52.1542 7.54923C 53.0052 9.35906 54.8398 10.6204 56.9824 10.6204C 59.1257 10.6204 60.9603 9.35906 61.812 7.54923L 70.8686 7.54923L 70.8686 11L 76 5.85329ZM 14.4479 8.49676C 12.6753 8.49676 11.2325 7.06733 11.2325 5.31018C 11.2325 3.55304 12.6746 2.12438 14.4479 2.12438C 16.2219 2.12438 17.6648 3.55381 17.6648 5.31018C 17.6648 7.06811 16.2212 8.49676 14.4479 8.49676ZM 35.7143 8.49676C 33.9418 8.49676 32.499 7.06733 32.499 5.31018C 32.499 3.55304 33.941 2.12438 35.7143 2.12438C 37.4876 2.12438 38.9313 3.55381 38.9313 5.31018C 38.932 7.06811 37.4884 8.49676 35.7143 8.49676ZM 56.9816 8.49676C 55.209 8.49676 53.7662 7.06733 53.7662 5.31018C 53.7662 3.55304 55.2083 2.12438 56.9816 2.12438C 58.7549 2.12438 60.1977 3.55381 60.1977 5.31018C 60.1985 7.06811 58.7549 8.49676 56.9816 8.49676Z"/>
<path id="path1_fill" d="M 6 2.61719e-06C 2.71064 2.61719e-06 0 2.71056 0 6L 0 66C 5.30337e-05 66.5304 0.210784 67.0391 0.585845 67.4142C 0.960906 67.7892 1.46958 67.9999 2 68L 90 68C 90.5304 67.9999 91.0391 67.7892 91.4142 67.4142C 91.7892 67.0391 91.9999 66.5304 92 66L 92 6C 92 2.71056 89.2894 2.61719e-06 86 2.61719e-06L 6 2.61719e-06L 6 2.61719e-06ZM 6 4L 86 4C 87.1427 4 88 4.85724 88 6L 88 16L 4 16L 4 6C 4 4.85724 4.8573 4 6 4ZM 10 7C 8.34314 7 7 8.3431 7 10C 7 11.6568 8.34314 13 10 13C 11.6568 13 13 11.6568 13 10C 13 8.3431 11.6568 7 10 7ZM 20 7C 18.3431 7 17 8.3431 17 10C 17 11.6568 18.3431 13 20 13C 21.6568 13 23 11.6568 23 10C 23 8.3431 21.6568 7 20 7ZM 30 7C 28.3431 7 27 8.3431 27 10C 27 11.6568 28.3431 13 30 13C 31.6568 13 33 11.6568 33 10C 33 8.3431 31.6568 7 30 7ZM 4 20L 88 20L 88 64L 4 64L 4 20L 4 20Z"/>
</defs>
</svg>
